<?xml version="1.0" encoding="UTF-8" standalone="no"?>
<svg
   height="177.23843"
   width="156.90024"
   viewBox="-76.34904 -24.43275 86.516318 32.478168"
   version="1.1"
   id="svg243"
   sodipodi:docname="HKU_Logo_Simp.svg"
   inkscape:version="1.1 (c68e22c387, 2021-05-23)"
   xmlns:inkscape="http://www.inkscape.org/namespaces/inkscape"
   xmlns:sodipodi="http://sodipodi.sourceforge.net/DTD/sodipodi-0.dtd"
   xmlns="http://www.w3.org/2000/svg"
   xmlns:svg="http://www.w3.org/2000/svg">
  <defs
     id="defs247" />
  <sodipodi:namedview
     id="namedview245"
     pagecolor="#ffffff"
     bordercolor="#666666"
     borderopacity="1.0"
     inkscape:pageshadow="2"
     inkscape:pageopacity="0.0"
     inkscape:pagecheckerboard="0"
     showgrid="false"
     inkscape:zoom="0.97875"
     inkscape:cx="596.16858"
     inkscape:cy="-12.771392"
     inkscape:window-width="1920"
     inkscape:window-height="1001"
     inkscape:window-x="-9"
     inkscape:window-y="-9"
     inkscape:window-maximized="1"
     inkscape:current-layer="svg243" />
  <path
     d="m -59.767463,21.701833 c 0,0 3.171,-2.352 3.478,-3.787 0.31,-1.434 -1.943,-6.444998 -4.502,-8.7989973 -2.561,-2.352 -7.369,-2.456 -8.495,0 -1.126,2.4589993 -1.331,3.7059993 -3.984,6.4569973 -2.657,2.749 -3.652,3.084 -1.897,5.5 1.754,2.419 11.759,12.423 24.564,16.31 2.423,0.738 8.25,2.85 17.448,2.85 9.196,0 21.717,-2.516 33.38000038,-11.239 1.65600002,-1.238 9.27900022,-7.31 9.57800022,-10.002 0.2369994,-2.134 -2.4650002,-3.796 -4.0770002,-6.640998 -1.611,-2.8509993 -2.039,-7.5399993 -8.679,-5.0269993 -0.537,0.205 -1.816,0.888 -2.466,1.989 -0.649,1.1059993 -2.418,3.4679993 -3.7,4.8389993 -1.2790004,1.372998 -1.0410004,3.082998 -0.092,4.222998 0.559,0.671 3.271,2.894 3.271,2.894 -8.2500004,5.451 -14.9180004,8.743 -27.0750004,9.008 -1.281,0.02 -13.939,0.749 -26.752,-8.575"
     fill="#ffffff"
     id="path133" />
  <path
     d="m -68.295463,-13.546165 c 0,0 -0.158,17.0340007 12.891,30.085998 10.591,10.588 22.257,12.582 22.257,12.582 v -57.404998 h -35.148 z"
     fill="#00b38c"
     id="path135" />
  <path
     d="m 2.0035374,-13.546165 c 0,0 0.155,17.0340007 -12.8930004,30.085998 -10.591,10.588 -22.254,12.582 -22.254,12.582 V -28.283165 H 2.0035374 Z"
     fill="#009cd5"
     id="path137" />
  <path
     fill="#ee4023"
     d="M -68.305463,-56.646165 H 2.0035374 v 28.364 H -68.305463 Z"
     id="path139" />
  <path
     d="M -8.9974626,11.167835 H -28.172463 c 0,0 -0.421,4.344998 -4.75,4.251998 -4.836,-0.108 -4.75,-4.251998 -4.75,-4.251998 h -18.837 v -34.284 h 47.5120004 z"
     fill="#ffd430"
     id="path141" />
  <path
     d="m -50.896463,-24.676165 c 0,0 1.917,1.422 4.62,1.028 2.697,-0.388 7.883,-3.122 10.866,-1.562 2.984,1.562 2.555,1.138 2.555,1.138 0,0 3.089,-3.195 7.921,-1.988 4.83,1.208 4.76,2.577 7.21,2.308 2.52,-0.275 2.983,-1.064 2.983,-1.064 V 4.8218357 c 0,0 -1.74,1.899 -5.539,1.119 -3.802,-0.783 -6.677,-3.586 -12.643,0.355 0,0 -3.374,-2.417 -6.927,-1.812 -3.549,0.602 -7.223,3.415 -11.405,1.156 l 0.078,-29.7120007 z"
     fill="#ffffff"
     id="path143" />
  <path
     d="m -8.9304626,-33.797165 c 0.817,-0.017 1.399,0.225 1.843,0.588 l -0.076,0.148 c -0.539,0.17 -0.948,0.738 -1.398,0.661 -0.33,-0.099 -0.304,-0.183 -0.518,-0.367 -0.009,-0.443 0.033,-0.76 0.149,-1.03 m -53.7840004,-3.313 c 1.155,0.198 2.019,1.532 2.577,2.357 v 0.072 h -0.368 c -1.17,-0.35 -2.222,-0.354 -2.651,-1.472 0.127,-0.447 0.223,-0.653 0.442,-0.957 m 11.381,-12.597 -0.442,-0.062 c -0.198,0.646 0.3,1.361 0.922,1.609 0.172,0.022 0.343,0.049 0.517,0.073 0.147,-0.223 0.294,-0.442 0.443,-0.664 0.062,-0.134 0.025,-0.257 -0.283,-0.195 -0.002,0 -0.454,-0.482 -1.157,-0.761"
     fill="#ffd300"
     id="path145" />
  <path
     fill="#785342"
     d="m -33.299463,-24.101165 h 0.459 V 6.2528357 h -0.459 z"
     id="path147" />
  <path
     d="M 1.6865374,-28.697165 H -67.850463 v -27.596 H 1.6855374 v 27.596 z m 0.085,12.193 c 0,16.7460006 -8.438,29.244 -17.1310004,36.396998 -7.046,5.802 -14.631,8.27 -17.128,8.688 l -0.093,-12.9 c -0.275,-0.01 -0.533,-0.063 -0.766,-0.147 l 0.02,13.037 c -6.633,-0.487 -34.52,-12.949 -34.52,-45.073998 v -11.428 h 34.442 l -0.01,4.276 c 0.211,0.338 0.499,0.4 0.773,0.182 v -4.46 H 1.7715374 Z m -70.3830004,-40.555 v 40.556 c 0,17.8280007 8.364,29.107 15.383,35.433998 8.358,7.536 18.647,10.642 20.094,10.642 1.702,0 10.321,-3.16 15.646,-6.97 9.5600004,-6.842 19.6370004,-19.3889973 19.9440004,-39.104998 v -40.557 z"
     fill="#3d1e0b"
     id="path149" />
  <path
     d="m 10.025537,17.688833 c -0.2479994,-0.807 -0.6249994,-1.257 -1.3129994,-2.066 -0.55,-0.655 -1.3080002,-1.554998 -2.4050002,-3.109998 -0.815,-1.149 -1.289,-2.167 -1.706,-3.0609993 -0.766,-1.634 -1.312,-2.807 -3.25,-3.142 -2.24500002,-0.381 -4.162,0.411 -5.802,1.632 -0.521,0.854 -1.058,1.675 -1.619,2.4739993 1.959,-2.0439993 4.311,-3.8499993 7.293,-3.3439993 1.538,0.259 1.943,1.125 2.678,2.706 0.41,0.8739993 0.922,1.9739993 1.777,3.1819993 1.115,1.577 1.884,2.487998 2.4450002,3.158998 0.661,0.781 0.963,1.143 1.165,1.8 0.295,0.955 0.164,2.23 -2.7440002,5.143 -7.889,7.884 -17.4150004,13.142 -28.3190004,15.63 -3.963,0.898 -11.402,1.213 -11.479,1.215 -0.041,-0.002 -7.483,-0.315 -11.441,-1.215 -16.082,-3.666 -24.565,-12.159 -27.348,-14.948 l -0.147,-0.15 c -2.621,-2.619 -3.67,-3.726 -3.333,-4.829 0.166,-0.534 0.553,-0.901 1.196,-1.51 0.753,-0.713 1.785,-1.689 3.101,-3.547998 0.847,-1.205 1.367,-2.297 1.782,-3.18 0.735,-1.5529993 1.181,-2.4929993 2.729,-2.7509993 2.397,-0.408 4.008,0.398 5.435,1.707 -0.359,-0.556 -0.714,-1.133 -1.058,-1.729 -1.225,-0.701 -2.667,-1.051 -4.505,-0.738 -1.941,0.33 -2.507,1.525 -3.295,3.1879993 -0.422,0.892 -0.9,1.91 -1.71,3.057 -1.27,1.797998 -2.272,2.740998 -3.002,3.435998 -0.683,0.648 -1.176,1.113 -1.4,1.842 -0.49,1.59 0.851,2.929 3.524,5.601 l 0.144,0.146 c 2.825,2.829 11.425,11.439 27.721,15.15 4.03,0.925 11.308,1.228 11.615,1.236 0.338,-0.011 7.618,-0.312 11.649,-1.236 11.05,-2.515 20.70200038,-7.846 28.6920004,-15.832 2.6120002,-2.62 3.4369996,-4.277 2.9299996,-5.915 m -67.933,-0.81 c 0.019,0.795 -0.415,1.225 -0.847,1.303 -0.485,0.086 -1.198,-0.246 -1.624,-1.468 -0.699,-2.029 -2.305,-4.646998 -2.375,-4.760998 l -0.285,-0.463 c 0,0 -2.66,3.370998 -3.15,3.995998 -1.059,-1.437998 -1.666,-2.798998 -1.666,-3.977998 l 0.003,-0.172 c 0.05,-1.012 0.377,-1.6549993 0.997,-1.9599993 1.397,-0.691 3.976,0.501 4.508,0.8639993 3.221,2.215 4.407,4.883998 4.439,6.638998 m 56.5720004,-5.185998 -0.289,0.226 c -0.078,0.059 -1.878,1.46 -2.97,3.890998 -0.49,1.091 -1.674,1.892 -2.591,1.751 -0.783,-0.121 -1.037,-0.881 -1.108,-1.501 -0.216,-1.846998 1.405,-4.147998 4.336,-6.1649973 0.657,-0.457 3.76999998,-1.968 5.271,-1.217 0.559,0.271 0.854,0.846 0.896,1.7379993 l 0.002,0.175 c 0,1.098 -0.496,2.347 -1.37600002,3.681 -0.447,-0.538 -2.17099998,-2.579 -2.17099998,-2.579 M -67.194463,8.6868357 c -0.88,0.436 -1.358,1.311 -1.423,2.6089993 -0.24,4.758998 8.143,12.021998 18.685,16.201998 5.429,2.149 10.892,3.193 16.699,3.193 6.192,0 13.125,-1.562 16.77,-3.107 9.7620004,-4.136 19.7030004,-11.695 19.4390004,-17.199998 -0.058,-1.1849993 -0.501,-1.9929993 -1.323,-2.3969993 -1.98700002,-0.985 -5.487,0.886 -6.046,1.272 -3.219,2.2159993 -4.917,4.7279993 -4.662,6.8929973 0.145,1.23 0.782,2.02 1.75,2.171 1.271,0.193 2.772,-0.771 3.413,-2.194 0.767,-1.707998 1.931,-2.883998 2.457,-3.358998 0.359,0.423 1.55499998,1.84 1.81199998,2.145998 -1.41699998,1.898 -3.58699998,3.931 -6.27099998,5.887 -0.358,-0.275 -2.24,-1.749 -3.017,-2.584 -0.892,-0.968 -0.962,-2.321 -0.263,-3.812998 -0.397,0.456998 -0.8,0.897998 -1.2080004,1.335998 -0.153,1.138 0.146,2.17 0.9090004,3.001 0.73,0.782 2.313,2.046 2.927,2.529 -2.938,2.06 -6.4380004,4.019 -10.2150004,5.618 -3.576,1.507 -10.38,3.037 -16.471,3.037 -5.71,0 -11.082,-1.022 -16.419,-3.136 -3.515,-1.393 -6.811,-3.16 -9.614,-5.053 0.624,-0.567 2.048,-1.866 2.742,-2.617 0.626,-0.677 0.87,-1.6 0.76,-2.647 -0.352,-0.363 -0.7,-0.74 -1.049,-1.134 0.489,1.338 0.422,2.508 -0.272,3.257 -0.722,0.781 -2.319,2.231 -2.83,2.691 -2.405,-1.695 -4.402,-3.474 -5.794,-5.171 0.28,-0.354 2.072,-2.632998 2.584,-3.278998 0.496,0.848 1.518,2.674998 2.022,4.130998 0.579,1.683 1.698,2.112 2.483,1.972 0.893,-0.157 1.503,-1.009 1.479,-2.069 -0.039,-1.948 -1.315,-4.875998 -4.771,-7.2569973 -0.464,-0.324 -3.41,-1.855 -5.283,-0.928"
     fill="#3d1e0b"
     id="path151" />
  <path
     d="m -67.622463,19.154833 1.284,-0.654 c 0,0 0.306,-0.103 -0.576,-0.14 -0.093,-0.856 -0.737,-1.754 -2.272,-1.586 -1.528,0.162 -0.956,1.86 -0.873,2.546 0.081,0.684 0.027,2.6 -1.069,2.514 -1.094,-0.078 -0.983,-1.967 -0.874,-2.431 -0.465,0.245 -1.397,0.852 -1.48,0.901 -0.035,0.021 0.023,0.055 0.156,0.051 0.188,-0.014 0.479,-0.064 0.474,0.054 -0.003,0.084 0.6,1.837 1.774,1.757 1.178,-0.082 1.943,-0.688 1.918,-2.134 -0.031,-1.451 -0.57,-2.748 0.387,-2.906 0.962,-0.174 1.411,1.259 1.151,2.028 m 0.07,3.001 c 1.062,-0.729 2.147,-1.467 2.147,-1.467 l -1.005,2.419 z m 3.18,-1.871 -0.653,-0.499 c 0,0 -4.413,2.925 -4.866,3.227 -0.103,0.066 -0.4,0.049 -0.612,-0.024 -0.156,-0.052 -0.156,0.032 -0.091,0.092 l 1.062,0.983 0.09,-0.075 c -0.052,-0.069 -0.288,-0.327 -0.062,-0.498 0.096,-0.073 0.782,-0.535 1.619,-1.107 l 1.301,1.147 -0.812,1.948 c -0.069,0.15 -0.516,-0.041 -0.515,-0.039 l -0.046,0.107 c 0.341,0.327 1.159,1.034 1.23,1.095 l 0.087,-0.106 c -0.115,-0.101 -0.184,-0.293 0.151,-1.106 0.353,-0.856 2.117,-5.145 2.117,-5.145 m 23.196,14.522 c 0.556,-1.161 1.229,-2.348 1.229,-2.348 l 0.49,2.46 z m 1.742,-3.31 -0.629,-0.039 c 0,0 -2.597,4.784 -2.838,5.271 -0.054,0.115 -0.323,0.245 -0.539,0.291 -0.167,0.03 -0.122,0.105 -0.034,0.121 l 1.409,0.319 0.04,-0.106 c -0.079,-0.035 -0.413,-0.139 -0.301,-0.402 0.043,-0.111 0.492,-0.853 0.929,-1.765 l 1.998,0.182 0.378,2.002 c 0.038,0.163 -0.429,0.296 -0.429,0.296 0,0 -0.122,0.101 0.035,0.111 0.469,0.033 1.552,0.076 1.646,0.08 v -0.145 c -0.155,-0.002 -0.35,0.09 -0.49,-0.78 -0.155,-0.948 -1.175,-5.436 -1.175,-5.436 m -26.929,-4.708 1.1,0.802 0.093,-0.099 c -0.072,-0.108 -0.334,-0.323 0.219,-1.002 0.553,-0.682 2.824,-3.81 2.824,-3.81 0,0 1.935,1.166 1.006,2.679 -0.816,1.335 -2.472,0.431 -2.973,-0.033 -0.303,-0.276 -0.303,0.128 -0.303,0.128 0,0 0.655,0.58 1.234,0.778 0.583,0.202 2.093,0.509 2.823,-0.653 0.733,-1.16 -0.099,-2.342 -1.282,-3.023 -1.186,-0.681 -1.286,-0.806 -1.286,-0.806 0,0 -0.15,0.03 0.006,0.174 0.152,0.151 0.215,0.323 0.07,0.523 -0.144,0.194 -2.833,3.911 -3.025,4.144 -0.196,0.23 -0.508,0.019 -0.506,0.198 m 7.223,-2.298 c 0,0 0.34,0.302 0,0.829 -0.338,0.521 -2.603,3.976 -2.603,3.976 0,0 -0.216,0.28 -0.642,0.146 -0.06,-0.021 -0.172,0.039 -0.031,0.123 0.333,0.195 0.964,0.602 1.22,0.771 0.188,0.122 0.072,-0.124 0.072,-0.124 0,0 -0.208,-0.231 0.02,-0.575 0.225,-0.34 2.471,-3.919 2.715,-4.223 0.247,-0.301 0.413,-0.215 0.566,-0.146 0.154,0.073 0.175,-0.033 0.072,-0.101 l -1.381,-0.811 -0.05,0.077 m 1.875,1.168 c 0,0 2.938,1.55 3.21,1.63 l -0.525,1.07 c -0.081,0.11 -0.129,-0.304 -0.049,-0.769 -0.768,-0.497 -1.917,-1.021 -1.917,-1.021 l -2.379,4.456 c 0,0 1.646,0.967 1.834,1.04 0.369,0.146 0.753,-0.515 0.865,-0.479 l -0.573,1.104 c -0.08,0.124 -2.779,-1.376 -3.561,-1.76 -0.192,-0.096 -0.094,-0.206 0.271,-0.146 0.369,0.066 0.369,0.082 0.654,-0.381 0.289,-0.463 2.141,-3.898 2.252,-4.086 0.112,-0.197 -0.385,-0.787 -0.082,-0.658"
     fill="#231f20"
     id="path153" />
  <path
     d="m -57.975463,28.634833 c 0,0 0.939,0.492 1.197,0.64 0.253,0.143 0.51,0.047 0.654,-0.191 0.144,-0.239 0.191,-0.096 0.015,0.238 -0.174,0.334 -0.459,0.83 -0.589,1.036 -0.126,0.209 -0.272,0.16 -0.126,-0.156 0.144,-0.32 -0.129,-0.466 -0.588,-0.705 -0.464,-0.237 -0.863,-0.496 -0.863,-0.496 z m 24.724,3.276 c 0,0 3.314,-0.204 3.587,-0.278 0,0 0.117,1.053 0.105,1.191 -0.01,0.137 -0.266,-0.195 -0.44,-0.63 -0.811,0.018 -2.169,0.118 -2.169,0.118 l -0.014,5.342 c 0,0 2.067,-0.098 2.267,-0.121 0.394,-0.045 0.762,-1.203 0.874,-1.227 l -0.227,1.76 c 0,0 -3.383,0.147 -4.229,0.169 -0.215,0.006 -0.181,-0.141 0.172,-0.253 0.354,-0.117 0.378,-0.209 0.417,-0.75 0.036,-0.543 0.066,-4.584 0.064,-4.8 -0.001,-0.226 -0.735,-0.471 -0.407,-0.521"
     fill="#231f20"
     id="path155" />
  <path
     d="m -32.304463,34.478833 c 0,0 1.065,-0.059 1.359,-0.064 0.291,-0.008 0.462,-0.218 0.462,-0.5 0.002,-0.277 0.117,-0.179 0.136,0.198 0.02,0.38 0.027,0.952 0.02,1.195 -0.003,0.244 -0.15,0.276 -0.189,-0.067 -0.038,-0.352 -0.346,-0.338 -0.864,-0.305 -0.523,0.024 -0.998,0.012 -0.998,0.012 z m -24.113,-1.689 c 0,0 1.125,0.474 1.428,0.614 0.232,0.031 0.185,-0.117 -0.062,-0.365 -0.06,-0.061 -0.045,-0.283 0.147,-0.623 0.175,-0.313 1.528,-3.105 1.528,-3.105 l 0.796,5.083 0.974,0.317 c 0,0 1.763,-4.521 1.927,-4.943 0.166,-0.428 0.406,-0.342 0.605,-0.296 0.2,0.044 0.216,-0.14 0.019,-0.208 -0.201,-0.072 -1.229,-0.373 -1.444,-0.451 -0.215,-0.08 -0.156,0.135 0.027,0.226 0.179,0.091 0.207,0.225 0.127,0.51 -0.079,0.286 -1.467,4.019 -1.467,4.019 l -0.88,-5.483 c 0,0 -0.744,-0.46 -0.917,-0.564 -0.174,-0.104 -0.224,0.086 -0.061,0.231 0.163,0.151 0.154,0.286 0.035,0.562 -0.123,0.278 -2.068,4.078 -2.182,4.259 -0.112,0.174 -0.707,-0.023 -0.6,0.217 m 7.953,-3.259 -0.324,1.151 c 0.468,-0.564 1.02,-0.519 1.02,-0.519 0,0 0.282,0.072 0.657,0.17 -0.219,0.769 -1.287,4.457 -1.419,4.847 -0.146,0.438 -0.57,0.202 -0.628,0.359 -0.03,0.076 -0.009,0.104 0.164,0.146 0.21,0.047 0.977,0.327 1.134,0.373 0.157,0.043 0.176,0.063 0.199,0.008 0.08,-0.228 -0.363,-0.229 -0.218,-0.67 0.053,-0.175 1.261,-4.28 1.435,-4.879 0.353,0.102 0.695,0.213 0.913,0.293 0.213,0.082 0.469,0.402 0.505,0.938 0.11,-0.452 0.354,-1.145 0.354,-1.145 z m 19.901,2.258 0.133,1.188 c 0.221,-0.702 0.749,-0.864 0.749,-0.864 0,0 0.762,-0.082 1.146,-0.129 0.083,0.79 0.49,4.614 0.515,5.023 0.032,0.46 -0.459,0.401 -0.446,0.573 0.006,0.082 0.035,0.086 0.208,0.061 0.232,-0.037 1.097,-0.141 1.258,-0.167 0.157,-0.026 0.186,-0.015 0.181,-0.079 -0.024,-0.24 -0.486,0.024 -0.52,-0.433 -0.013,-0.181 -0.446,-4.44 -0.51,-5.061 0.366,-0.037 0.924,-0.185 1.353,-0.237 0.224,-0.03 0.543,0.136 0.777,0.616 -0.066,-0.461 -0.105,-1.199 -0.105,-1.199 z m -16.67,4.876 1.49,0.304 c 0,0 0.118,-0.138 -0.152,-0.244 -0.038,-0.014 -0.163,-0.176 -0.099,-0.449 0,0 0.836,-4.415 0.896,-4.728 0.064,-0.312 0.214,-0.29 0.375,-0.275 0.164,0.014 0.315,-0.201 -0.011,-0.265 -0.325,-0.062 -0.951,-0.159 -1.26,-0.223 -0.224,-0.046 -0.265,0.151 -0.152,0.198 0.152,0.062 0.386,0.25 0.35,0.461 -0.039,0.224 -0.837,4.269 -0.925,4.681 -0.061,0.285 -0.201,0.414 -0.425,0.357 -0.162,-0.031 -0.217,0.15 -0.087,0.183 m 9.781,-1.723 c 0,0.258 -0.21,0.467 -0.467,0.467 -0.257,0 -0.465,-0.209 -0.465,-0.467 0,-0.259 0.21,-0.465 0.465,-0.465 0.257,0.002 0.467,0.207 0.467,0.465 m 14.042,-1.143 c 0,0.257 -0.21,0.466 -0.47,0.466 a 0.4656,0.4656 0 0 1 -0.465,-0.466 c 0,-0.258 0.208,-0.47 0.465,-0.47 0.26,10e-4 0.47,0.213 0.47,0.47 m 0.2,-3.336 1.837,-0.404 c 0,0 0.209,0.063 -0.117,0.215 -0.213,0.097 -0.155,0.151 -0.082,0.255 l 2.8,4.355 0.377,-5.419 c 0,0 -0.118,-0.124 -0.408,-0.003 l -0.069,-0.129 1.096,-0.517 c 0.103,-0.043 0.298,0.025 0.062,0.181 -0.188,0.12 -0.172,0.2 -0.188,0.296 l -0.505,6.056 -0.848,0.335 -3.262,-5.032 c 0,0 -0.258,-0.041 -0.507,-0.006 -0.249,0.038 -0.276,-0.15 -0.186,-0.183 m 6.297,-1.651 c 0,0 1.959,4.551 2.026,4.734 0.07,0.182 0.08,0.374 -0.115,0.521 -0.191,0.143 -0.115,0.257 0.021,0.193 0.135,-0.066 1.114,-0.578 1.363,-0.71 0.154,-0.086 0.075,-0.222 -0.154,-0.13 -0.232,0.1 -0.356,-0.143 -0.458,-0.4 -0.083,-0.201 -1.89,-4.429 -1.89,-4.429 -0.047,-0.123 0.035,-0.266 0.217,-0.402 0.136,-0.101 0.132,-0.28 -0.052,-0.191 -0.186,0.1 -1.354,0.649 -1.469,0.714 -0.112,0.066 -0.066,0.159 0.149,0.1 0.212,-0.061 0.329,-0.047 0.362,0 m 5.6310004,0.063 c -0.291,0.336 -0.8960004,0.877 -1.2050004,1.145 l -1.356,-2.606 c 0.294,-0.146 0.57,-0.293 0.737,-0.387 0.553,-0.323 0.872,-0.225 1.4080004,-0.047 0.54,0.178 0.817,1.439 0.416,1.895 m 4.007,1.394 c -0.426,0.111 -0.772,-0.123 -1.508,-0.703 -0.731,-0.584 -1.545,-1.076 -1.918,-0.898 0.106,-0.237 0.427,-1.024 0.012,-1.757 -0.413,-0.732 -1.5360004,-0.841 -2.0450004,-0.585 -0.514,0.268 -2.437,1.387 -2.437,1.387 -0.131,0.255 0.171,0.199 0.592,0.029 l 2.6470004,5.056 c -0.2670004,0.195 -0.2930004,0.394 -0.2930004,0.394 l 1.4510004,-0.721 c 0,0 -0.003,-0.115 -0.437,0.02 l -1.1040004,-2.124 c 0.137,-0.165 0.3590004,-0.433 0.6540004,-0.695 0.843,-0.685 1.91,0.396 2.682,0.936 0.775,0.541 0.884,0.442 1.201,0.182 0.325,-0.272 0.934,-0.631 0.503,-0.521 m 2.016,-1.51 -2.76,-4.446 c 0.318,-0.211 0.612,-0.412 0.809,-0.543 0.584,-0.394 1.192,0.211 1.192,0.211 l -0.73,-1.071 -3.71,2.525 0.688,0.977 c 0,0 -0.294,-0.684 0.148,-0.99 0.171,-0.119 0.498,-0.349 0.867,-0.599 l 2.816,4.396 c -0.521,0.398 -0.193,0.428 -0.193,0.428 l 1.285,-0.892 c -10e-4,-0.001 0.059,-0.253 -0.412,0.004 m -1.187,-6.089 1.404,-1.085 c 0,0 -0.239,0.492 0.138,0.986 0.375,0.494 2.09699998,2.769 2.61299998,3.146 0.513,0.372 2.01300002,-0.164 1.79600002,-2.196 0.474,0.338 0.059,2.37 -1.07000002,2.907 -1.047,0.495 -1.47799998,-0.21 -1.81599998,-0.611 -1.323,-1.584 -1.814,-2.221 -2.253,-2.75 -0.376,-0.457 -0.812,-0.397 -0.812,-0.397"
     fill="#231f20"
     id="path157" />
  <path
     d="m -1.7594626,20.316833 1.24799998,-1.067 c 0,0 -0.278,0.335 0.276,1.024 0.554,0.692 2.15400002,2.828 2.59000002,3.244 0.434,0.414 0.967,0.176 1.009,-0.062 0.037,-0.235 0.117,-0.078 0.02,0.278 -0.097,0.357 -0.425,1.085 -1.264,0.535 -0.575,-0.377 -0.651,-0.514 -0.832,-0.711 -0.177,-0.197 -2.15200002,-2.729 -2.413,-3.065 -0.257,-0.335 -0.634,-0.176 -0.634,-0.176 m 4.862,-2.79 -0.437,-1.733 c 0,0 -0.145,0.098 -0.145,0.287 0,0.191 0,0.461 -0.216,0.481 -0.216,0.025 -0.87,-0.073 -1.51700002,1.205 -0.219,0.428 -0.146,2.167 0.89200002,1.952 1.036,-0.216 3.085,-1.062 3.783,0.237 0.698,1.301 -0.891,2.216 -2.096,1.59 -0.026,0 0.458,1.422 0.575,1.787 0.1,-0.096 0.098,-0.423 0.247,-0.556 0.285,-0.264 1.59,-0.384 1.733,-2.07 0.146,-1.688 -0.962,-2.378 -1.831,-2.433 -1.156,-0.074 -2.844,1.061 -2.987,0.267 -0.13200002,-0.713 1.253,-1.448 1.999,-1.014"
     fill="#231f20"
     id="path159" />
  <path
     d="m -54.011463,-38.784165 c 0.391,0.622 0.955,1.377 2.181,3.02 l 0.147,0.37 c -1.188,0.222 -2.059,-0.034 -2.998,-0.391 -0.357,0.467 -0.894,0.722 -1.549,0.885 v -1.99 h -0.074 c -0.486,0.288 -1.076,0.711 -1.88,0.476 0.333,-0.67 0.423,-1.536 0.261,-1.507 h -0.073 c -0.73,0.162 -1.246,0.476 -2.008,0.357 -0.208,-0.039 -0.104,-0.14 -0.054,-0.208 0.172,-0.443 0.344,-0.886 0.516,-1.327 -0.757,0.124 -1.417,0.244 -2.147,-0.075 0.171,-0.171 0.427,-0.344 0.6,-0.516 0.14,-0.186 0.245,-0.392 0.368,-0.588 l -0.148,-0.146 c -0.636,0.182 -1.319,-0.157 -1.864,-0.359 0.181,-0.229 0.305,-0.39 0.61,-0.602 0.278,-0.119 0.529,-0.307 0.443,-0.442 -0.074,-0.049 -0.065,-0.172 -0.201,-0.198 -0.742,-0.09 -1.512,-0.136 -2.01,-0.59 l 0.219,-0.243 c 0.628,-0.523 0.746,-0.473 1.695,-0.441 0,-0.025 0.127,0.004 0.01,-0.181 -0.424,-0.67 -0.204,-2.094 -0.272,-1.798 -0.176,0.937 -1.618,1.06 -1.578,0.726 0.026,-1.625 -0.602,-1.091 -0.72,-1.484 -0.088,-0.287 0.144,-0.586 0.571,-0.838 0.995,-0.597 1.577,0.555 1.401,-0.034 -0.1,-0.124 -0.112,-0.289 -0.297,-0.37 -0.776,-0.149 -1.439,-0.502 -1.623,-0.883 -0.144,-0.363 -0.097,-0.896 0.181,-1.325 0.091,-0.109 0.188,-0.164 0.336,-0.22 0.828,-0.12 1.603,1.459 1.696,1.104 -0.424,-1.252 -0.597,-2.664 0.542,-3.128 0.235,-0.062 0.688,-0.085 1.004,0.253 0.523,0.64 -0.071,2.352 0,3.613 0.077,1.397 0.847,3.084 1.474,4.125 0.52,0.774 1.129,1.538 1.915,2.282 0.701,0.546 1.783,1.245 2.512,1.395 0.09,0.222 0.27,0.62 0.358,0.89 0.133,0.135 0.235,0.231 0.456,0.388"
     fill="#ffd300"
     id="path161" />
  <path
     d="m -53.288463,-46.049165 c 0.21,0.099 0.422,0.199 0.593,0.316 -0.665,1.437 -1.152,2.96 0.661,4.273 0.354,0.257 0.797,0.435 1.157,0.492 0.222,0.425 1.366,0.692 1.646,0.319 0.395,-0.075 0.785,-0.146 1.178,-0.22 1.266,-0.55 1.828,-1.709 1.843,-3.096 0.829,-0.031 1.045,-0.401 1.472,-0.812 l 0.148,0.223 c 0.345,0.625 0.007,1.62 -0.294,2.061 -0.222,-0.218 -0.441,-0.441 -0.664,-0.66 h -0.074 c 0.195,0.69 0.642,1.349 0.368,2.134 l -0.148,-0.073 c -0.122,-0.375 -0.267,-0.555 -0.664,-0.664 v 0.074 c 0.459,0.77 0.958,2.205 0,2.946 h -0.072 c -0.016,-0.749 -0.307,-1.29 -0.737,-1.623 l -0.148,0.15 c 0.203,0.468 0.77,1.686 0.414,2.293 -0.588,-0.443 -1.265,-1.104 -1.857,-1.547 l 0.263,0.587 c 0.394,0.595 0.762,1.378 -0.114,2.671 -0.487,-1.447 -2.407,-2.505 -2.773,-3.338 -0.081,1.439 1.773,2.455 0.311,4.493 l -0.149,-0.074 c -0.379,-1.267 -1.442,-1.919 -2.061,-2.948 -0.439,-0.724 -0.645,-1.244 -0.393,-2.414 l -0.275,0.128 c -0.146,0.248 -0.334,0.642 -0.48,0.887 -0.217,-0.135 -0.204,-0.282 -0.253,-0.441 -0.213,-0.902 0.394,-1.248 0.61,-2.037 l 0.052,-0.25 c -0.027,0 -0.038,-0.229 -0.221,0.218 -0.174,0.334 -0.203,0.465 -0.521,0.643 l 0.004,-0.418 c 0.167,-0.324 0.284,-0.63 0.305,-1.14 l -0.129,0.044 -0.11,0.23 c -0.074,0.171 -0.139,0.25 -0.212,0.422 -0.098,0.224 -0.199,0.252 -0.224,0.194 -0.375,-0.875 0.614,-1.927 0.89,-2.478 0.067,-0.194 -0.005,-0.149 -0.075,-0.072 -0.343,0.368 -0.67,0.792 -1.013,1.16 l -0.151,-0.068 c 0,-0.223 0,-0.492 0.057,-0.649 0.324,-0.984 0.542,-1.508 1.333,-2.217 0.083,-0.041 -0.01,-0.186 -0.155,-0.141 -0.369,0.124 -0.924,0.437 -1.293,0.56 0,-0.123 0.076,-0.458 0.149,-0.631 0.221,-0.322 0.411,-0.649 0.706,-0.888 l 0.249,0.018 0.312,-0.542 c -0.038,-0.271 0.173,-0.371 0.166,-0.664 -0.51,-1.011 0.355,-2.311 -0.061,-3.636 0.682,0.257 1.358,0.934 1.423,1.006 0.021,-0.625 0.301,-1.536 0.555,-1.916 0.144,0.125 0.317,0.309 0.451,0.576 0.174,0.272 0.344,0.541 0.519,0.812 0.117,-0.255 0.188,-0.706 0.307,-0.961 0.202,-0.432 0.486,-0.852 0.687,-1.285 0.198,0.514 0.456,1.251 0.648,1.769 0.283,-0.1 0.083,-0.207 0.223,-0.429 0.123,-0.59 0.32,-0.861 0.465,-1.253 0.267,0.454 0.479,1.381 0.614,2.086 h 0.074 l 0.149,-0.074 c 0.196,-0.452 0.383,-0.737 0.578,-1.004 0.699,0.722 0.441,1.955 0.614,1.988 0.271,-0.01 0.601,-0.625 0.823,-0.822 0.392,0.431 0.169,1.439 0.405,1.671 l 0.231,-0.138 c 0.495,-0.436 0.93,-0.739 1.586,-0.442 -0.136,1.276 -0.261,3.394 -0.923,3.683 -0.121,0.122 -0.489,-0.196 -0.663,-0.22 0.732,1.308 0.219,2.836 -1.251,2.874 -0.223,-0.125 -0.442,-0.248 -0.662,-0.37 -0.126,-0.047 -0.198,-0.023 -0.148,0.15 0.954,1.609 -0.554,3.321 -1.99,3.39 l -0.147,-0.074 c 0.022,-0.149 0.048,-0.296 0.076,-0.444 1.236,-0.069 2.144,-1.542 1.619,-2.873 h -0.079 c -0.218,0.608 -0.391,0.904 -1.251,0.884 -0.223,-0.173 -0.443,-0.343 -0.663,-0.515 0.071,-1.032 0.771,-0.906 1.324,-1.403 v -1.695 c 0.908,0.646 2.152,0.197 2.622,-0.49 0.316,-0.883 0.024,-0.771 -0.052,-0.579 -0.399,0.965 -2.091,1.316 -2.422,0.554 v -0.364 l 0.075,-0.146 c 0.414,-0.161 1.166,-0.285 1.62,-0.223 0.461,0.062 0.737,-0.008 0.885,0.369 0.169,-0.396 0.761,-0.38 0.768,-1.043 -0.306,0.624 -1.166,0.429 -1.904,0.445 -0.664,0.018 -1.412,0.095 -1.481,-0.045 -0.049,-0.223 -0.09,-0.583 -0.14,-0.805 l -0.164,0.277 c -0.056,1.091 -0.073,2.093 -0.172,3.151 -0.52,-0.233 -1.101,-0.43 -1.849,-0.286 v -0.072 c 0.345,-1.105 0.689,-2.211 1.032,-3.316 -0.014,-0.149 -0.087,-0.172 -0.146,-0.074 -0.125,0.338 -0.176,0.578 -0.441,0.661 h -0.075 c -0.469,-0.023 -0.758,-0.573 -1.154,-0.77 -0.405,-0.1 -0.689,-0.113 -1.107,-0.164 -0.195,-0.123 -0.366,-0.588 -0.54,-0.858 -0.09,-0.147 -0.18,-0.054 -0.061,0.551 0.183,0.464 0.638,0.713 0.638,0.713 0,0 0.017,0.673 0.233,1.044 0.378,0.642 1.101,0.667 1.695,1.105 -0.146,0.422 -0.501,1.034 -0.371,1.472 0.324,0.683 0.938,1.021 0.811,1.99 -0.286,0.135 -0.426,0.203 -0.884,0.219 -0.546,-0.195 -0.948,-0.375 -1.179,-0.884 -0.273,-0.443 -0.076,-1.043 0.148,-1.4 l -0.148,-0.146 c -0.293,0.051 -0.589,0.098 -0.885,0.146 -0.521,-0.107 -0.946,-0.64 -1.093,-1.379 l -0.239,-0.158 c 0,0 -0.188,0.454 0.075,0.832 0.27,0.376 0.64,0.856 0.745,0.907"
     fill="#ffd300"
     id="path163" />
  <path
     d="m -59.526463,-51.057165 c 0.523,0.028 0.549,0.188 0.865,0.39 0.59,0.733 -0.661,1.458 -1.165,3.699 -0.05,0.163 -0.1,0.311 -0.121,0.311 l -0.116,-0.251 c -0.342,-1.358 -0.041,-2.506 0,-3.907 0.003,-0.205 0.377,-0.243 0.537,-0.242"
     fill="#ffe280"
     id="path165" />
  <path
     d="m -59.526463,-51.057165 c 0.523,0.028 0.549,0.188 0.865,0.39 0.59,0.733 -0.661,1.458 -1.165,3.699 -0.05,0.163 -0.1,0.311 -0.121,0.311 l -0.116,-0.251 c -0.342,-1.358 -0.041,-2.506 0,-3.907 0.003,-0.205 0.377,-0.243 0.537,-0.242"
     fill="#ffe280"
     id="path167" />
  <path
     d="m -28.454463,-55.015165 c 0.802,0.503 0.06,2.114 -0.15,2.652 0.928,-0.256 1.592,-0.828 2.801,-1.029 1.709,-0.29 3.278,0.642 5.011,0.219 1.629,-0.396 3.182,-1.972 5.082,-1.03 l -0.07,0.146 c -1.868,0.331 -2.93,2.123 -4.573,2.799 -1.337,0.554 -3.172,0.095 -4.544,0.167 l 0.125,0.128 c 1.966,0.833 1.761,1.772 2.794,2.551 l -0.363,0.178 c -0.887,0.447 -2.306,0.056 -3.094,-0.296 -0.908,-0.563 -1.815,-1.129 -2.724,-1.695 -2.443,-1.389 -9.948,-1.144 -10.907,1.401 -0.647,1.579 1.254,2.4 3.719,2.188 1.918,-0.167 3.98,-0.607 4.757,-0.568 v -0.075 l -0.15,-0.219 a 18.137,18.137 0 0 0 -0.441,-0.221 l 0.073,-0.146 c 0.884,-0.17 1.289,0.171 2.063,0.367 0.183,-0.528 0.342,-1.014 0.736,-1.327 0.783,0.167 1.897,1 2.431,0.59 0.955,0.5 3.341,1.336 4.642,-0.223 -0.447,-0.167 -1.312,-0.88 -1.4,-1.411 0.871,0.18 1.778,0.979 2.799,1.042 l 0.147,-0.221 c 0.026,-0.294 -0.076,-0.631 -0.049,-0.927 0.029,-0.161 0.168,-0.229 0.418,-0.032 0.761,0.48 2.024,1.088 3.168,0.884 0.062,-0.622 -0.585,-0.951 -0.531,-1.655 0.485,0.255 2.575,1.321 2.889,1.067 -0.026,-0.369 -0.244,-0.849 -0.268,-1.216 l 0.487,0.405 c 0.393,0.343 0.784,0.688 1.18,1.031 h 0.147 c 0.262,-0.648 0.408,-1.373 0.755,-1.909 0.202,-0.169 0.153,0.188 0.202,0.216 0.365,0.994 1.085,1.833 1.9150004,2.209 0.519,-0.603 -0.03,-1.491 1.229,-2.53 l -0.197,0.69 c -0.02,1.375 0.048,2.107 0.886,2.797 0.768,-0.151 0.729,-0.794 1.18,-1.253 0.778,-0.794 2.535,-0.285 3.436,-1.605 -0.749,2.298 -2.181,1.964 -2.765,2.896 -0.521,0.827 -0.044,1.38 -0.3,2.615 -0.134,0.614 -0.546,0.942 -0.812,1.401 h 0.075 c 0.881,-0.405 1.342,-1.234 2.135,-1.621 1.073,-0.527 2.937,0.256 4.48599998,-0.43 -1.33299998,2.39 -2.68299998,1.542 -4.36999998,2.031 -0.755,0.218 -1.066,0.666 -1.664,0.978 -0.874,0.452 -2.062,0.612 -3.167,0.81 -2.4760004,0.441 -6.0440004,-0.372 -7.7910004,-0.431 l 0.054,0.357 c 1.327,1.617 2.859,2.574 5.452,2.947 3.4180004,0.492 7.4890004,-3.422 9.8710004,-0.223 l -0.147,0.149 c -0.173,-0.05 -0.344,-0.098 -0.517,-0.149 l -0.145,0.149 c 0.554,1.046 1.81499998,0.951 1.91499998,2.576 l -0.075,0.15 c -0.295,-0.099 -0.58699998,-0.199 -0.88399998,-0.294 l -0.074,0.071 c 0.311,0.587 0.93499998,1.25 0.95699998,1.844 -0.269,-0.049 -0.53999998,-0.1 -0.81199998,-0.147 -0.026,0.269 -0.048,0.539 -0.073,0.81 l 0.4,0.064 c 0.10200001,0.065 0.37999998,0.083 0.57499998,0.579 -0.85699998,0.311 -0.82399998,0.736 -1.04699998,1.418 -0.616,-0.042 -0.667,-0.25 -0.957,-0.588 l -0.147,0.072 c -0.179,0.905 -0.41,1.547 -0.959,2.065 -0.583,-0.157 -0.747,-0.506 -1.512,-0.163 -0.144,-0.085 -0.109,-0.28 -0.109,-0.353 0.087,-0.522 0.293,-0.745 0.488,-1.136 l 0.105,-0.191 c 0.083,-0.107 0.102,-0.253 -0.076,-0.147 -0.169,0.147 -0.343,0.295 -0.517,0.441 -0.238,0.768 -0.408,1.423 -1.397,1.474 -0.62,-0.337 -0.659,-0.985 -1.178,-1.399 l 0.07,-0.146 c 0.935,-0.37 1.871,-0.736 2.803,-1.105 0.567,-1.826 0.035,-2.91 -1.217,-3.378 -2.718,-1.008 -10.1610004,1.087 -13.5920004,0.211 -1.409,-0.359 -3.292,-1.551 -3.833,-2.799 -0.159,-0.375 -0.216,-1.046 0.014,-1.571 0.074,-0.165 -0.16,-0.139 -0.234,-0.122 -0.093,0.219 -0.195,0.441 -0.293,0.66 l -2.136,-0.441 c -3.348,-0.11 -5.647,1.146 -7.222,1.842 -3.162,1.401 -5.171,3.829 -11.507,2.959 -0.24,-0.113 -0.306,-0.035 -0.355,-0.011 0.072,1.229 0.832,1.398 0.883,2.732 -0.46,0.787 -1.142,1.11 -1.839,1.466 -0.177,0.096 -0.261,-0.233 -0.354,-0.519 l -0.158,0.224 c 0.103,1.022 -0.546,1.43 -1.252,1.842 -0.171,0.113 -0.204,0.09 -0.271,-0.384 -0.246,-0.393 -0.37,-0.475 -0.614,-0.87 -0.109,-0.169 -0.208,-0.172 -0.148,0.074 -0.069,0.786 -0.462,1.126 -1.031,1.402 -0.236,0.167 -0.353,0.176 -0.293,-0.073 -0.034,-0.649 -0.348,-1.107 -0.887,-1.254 -0.093,0.941 -0.699,1.229 -1.396,1.548 -0.246,0.131 -0.268,0.066 -0.223,-0.22 0.119,-0.485 0.05,-1.233 -0.431,-1.38 -0.176,0.87 -1.133,1.508 -2.148,1.528 0.136,-0.623 0.426,-0.942 0.37,-1.624 l -0.149,-0.302 c -0.345,0.819 -0.905,1.199 -1.768,1.557 -0.193,0.047 -0.475,0.165 -0.55,0.09 0.131,-0.055 0.249,-0.712 0.513,-0.977 0.271,-0.344 0.506,-0.465 0.774,-0.809 l -0.146,-0.073 c -0.566,-0.026 -1.132,-0.048 -1.694,-0.075 0.085,0.702 0.009,1.129 -0.443,1.475 -0.326,-0.134 -0.584,-0.63 -1.58,-0.551 -0.292,-0.292 -0.027,-0.268 -0.062,-0.735 0.197,-0.344 0.339,-0.359 0.537,-0.705 l -0.074,-0.074 c -0.564,0.363 -2.811,2.355 -3.683,0.886 -0.206,-0.228 -0.2,-0.333 -0.148,-0.664 0.56,-0.535 1.501,-0.469 2.136,-0.958 l -0.074,-0.145 c -0.823,0.023 -1.803,0.541 -2.209,0.292 -0.364,-0.19 -0.46,-0.541 -0.737,-0.809 -0.012,-0.423 0.028,-0.716 0.148,-0.958 l 0.22,-0.073 c 2.859,0.918 6.348,2.23 10.169,1.254 0.861,-0.346 1.717,-0.688 2.576,-1.034 l 0.073,0.074 c 0.049,0.319 0.1,0.641 0.15,0.959 l 0.219,-0.074 c 1.027,-1.344 1.369,-1.522 0.937,-3.61 l 0.4,0.36 c 0.638,0.658 1.091,0.925 0.615,2.16 1.339,-0.25 1.808,-1.647 1.605,-2.902 0.095,0.072 0.34,0.187 0.423,0.381 0.125,0.22 0.182,0.507 0.304,0.729 l 0.327,-0.489 c 0.234,-0.94 0.683,-0.493 1.138,-1.785 0.093,-0.282 0.014,-0.792 0.079,-1.056 0.045,-0.177 0.175,-0.235 0.216,-0.403 0.093,-0.393 0.149,-0.901 0.117,-1.23 0.143,-0.182 0.27,-0.302 0.388,-0.614 0.15,-0.39 0.274,-1.021 0.28,-1.54 1.934,0.194 4.337,0.53 6.507,0.491 1.489,-0.042 2.997,-0.244 4.493,-0.368 10.032,-1.84 12.65,-1.524 18.751,-0.295 2.471,0.499 7.0240004,0.421 6.6670004,-2.135 -0.341,-2.444 -5.8230004,-2.384 -8.5080004,-1.768 -4.854,1.112 -9.848,1.774 -14.919,2.725 -2.3,0.43 -5.616,0.971 -7.809,0.072 -2.236,-0.916 -3.717,-3.332 -1.547,-5.376 2.599,-2.462 10.138,-1.428 12.003,-4.273"
     fill="#835221"
     id="path169" />
  <path
     d="m -24.993463,-40.340165 c 0.227,10e-4 0.491,0.069 0.681,0.216 -0.69,2.473 1.801,3.564 2.783,4.707 0.087,0.162 0.171,1.137 -0.544,1.249 0.049,1.101 -0.531,1.888 -0.749,2.067 -0.689,-0.453 -1.074,-0.925 -1.581,-1.323 l -0.148,0.146 c 0.18,0.765 -0.646,1.812 -1.343,1.95 -0.185,-0.667 -0.243,-1.336 -0.572,-1.822 -0.308,-0.179 -0.171,0.068 -0.222,0.092 -0.08,1.14 -0.583,1.756 -1.285,2.265 -0.051,-0.023 -0.341,0.117 -0.262,-0.057 -0.208,-0.922 -0.8,-1.461 -1.474,-1.915 l -0.146,0.076 c 0.039,1.305 -0.514,1.85 -1.329,2.283 l -0.217,-0.149 c -0.724,-0.676 -0.346,-0.795 -0.518,-1.396 -0.318,-0.027 -0.532,0.075 -0.956,-0.076 -0.171,0.028 -0.05,0.1 -0.074,0.149 0.218,0.478 0.228,0.918 0.074,1.474 l -0.296,0.221 c -0.457,-0.445 -1.035,-0.342 -1.515,-0.263 -0.498,-0.755 0.013,-1.316 -0.178,-1.58 -0.607,0.49 -1.551,1.887 -2.852,1.347 -0.172,-0.123 -0.262,0.049 -0.536,-0.388 0.019,-0.609 0.185,-0.628 0.441,-0.958 0.54,-0.245 1.083,-0.492 1.622,-0.737 v -0.075 c -0.285,0.012 -1.111,0.101 -1.854,0.563 -0.869,-0.037 -2.125,-0.735 -1.167,-1.518 1.453,-0.82 7.724,1.14 11.074,-1.435 0.169,-0.134 0.126,-0.282 0.126,-0.334 -1.914,-1.24 -2.483,-2.934 -0.738,-4.788 0.073,-0.003 1.702,-0.34 3.755,0.009"
     fill="#835221"
     id="path171" />
  <path
     d="m -53.288463,-46.049165 c 0.21,0.099 0.422,0.199 0.593,0.316 -0.665,1.437 -1.152,2.96 0.661,4.273 0.354,0.257 0.797,0.435 1.157,0.492 0.222,0.425 1.366,0.692 1.646,0.319 0.395,-0.075 0.785,-0.146 1.178,-0.22 1.266,-0.55 1.828,-1.709 1.843,-3.096 0.829,-0.031 1.045,-0.401 1.472,-0.812 l 0.148,0.223 c 0.345,0.625 0.007,1.62 -0.294,2.061 -0.222,-0.218 -0.441,-0.441 -0.664,-0.66 h -0.074 c 0.195,0.69 0.642,1.349 0.368,2.134 l -0.148,-0.073 c -0.122,-0.375 -0.267,-0.555 -0.664,-0.664 v 0.074 c 0.459,0.77 0.958,2.205 0,2.946 h -0.072 c -0.016,-0.749 -0.307,-1.29 -0.737,-1.623 l -0.148,0.15 c 0.203,0.468 0.77,1.686 0.414,2.293 -0.588,-0.443 -1.265,-1.104 -1.857,-1.547 l 0.263,0.587 c 0.394,0.595 0.762,1.378 -0.114,2.671 -0.487,-1.447 -2.407,-2.505 -2.773,-3.338 -0.081,1.439 1.773,2.455 0.311,4.493 l -0.149,-0.074 c -0.379,-1.267 -1.442,-1.919 -2.061,-2.948 -0.439,-0.724 -0.645,-1.244 -0.393,-2.414 l -0.275,0.128 c -0.146,0.248 -0.334,0.642 -0.48,0.887 -0.217,-0.135 -0.204,-0.282 -0.253,-0.441 -0.213,-0.902 0.394,-1.248 0.61,-2.037 l 0.052,-0.25 c -0.027,0 -0.038,-0.229 -0.221,0.218 -0.174,0.334 -0.203,0.465 -0.521,0.643 l 0.004,-0.418 c 0.167,-0.324 0.284,-0.63 0.305,-1.14 l -0.129,0.044 -0.11,0.23 c -0.074,0.171 -0.139,0.25 -0.212,0.422 -0.098,0.224 -0.199,0.252 -0.224,0.194 -0.375,-0.875 0.614,-1.927 0.89,-2.478 0.067,-0.194 -0.005,-0.149 -0.075,-0.072 -0.343,0.368 -0.67,0.792 -1.013,1.16 l -0.151,-0.068 c 0,-0.223 0,-0.492 0.057,-0.649 0.324,-0.984 0.542,-1.508 1.333,-2.217 0.083,-0.041 -0.01,-0.186 -0.155,-0.141 -0.369,0.124 -0.924,0.437 -1.293,0.56 0,-0.123 0.076,-0.458 0.149,-0.631 0.221,-0.322 0.411,-0.649 0.706,-0.888 l 0.249,0.018 0.312,-0.542 c -0.038,-0.271 0.173,-0.371 0.166,-0.664 -0.51,-1.011 0.355,-2.311 -0.061,-3.636 0.682,0.257 1.358,0.934 1.423,1.006 0.021,-0.625 0.301,-1.536 0.555,-1.916 0.144,0.125 0.317,0.309 0.451,0.576 0.174,0.272 0.344,0.541 0.519,0.812 0.117,-0.255 0.188,-0.706 0.307,-0.961 0.202,-0.432 0.486,-0.852 0.687,-1.285 0.198,0.514 0.456,1.251 0.648,1.769 0.283,-0.1 0.083,-0.207 0.223,-0.429 0.123,-0.59 0.32,-0.861 0.465,-1.253 0.267,0.454 0.479,1.381 0.614,2.086 h 0.074 l 0.149,-0.074 c 0.196,-0.452 0.383,-0.737 0.578,-1.004 0.699,0.722 0.441,1.955 0.614,1.988 0.271,-0.01 0.601,-0.625 0.823,-0.822 0.392,0.431 0.169,1.439 0.405,1.671 l 0.231,-0.138 c 0.495,-0.436 0.93,-0.739 1.586,-0.442 -0.136,1.276 -0.261,3.394 -0.923,3.683 -0.121,0.122 -0.489,-0.196 -0.663,-0.22 0.732,1.308 0.219,2.836 -1.251,2.874 -0.223,-0.125 -0.442,-0.248 -0.662,-0.37 -0.126,-0.047 -0.198,-0.023 -0.148,0.15 0.954,1.609 -0.554,3.321 -1.99,3.39 l -0.147,-0.074 c 0.022,-0.149 0.048,-0.296 0.076,-0.444 1.236,-0.069 2.144,-1.542 1.619,-2.873 h -0.079 c -0.218,0.608 -0.391,0.904 -1.251,0.884 -0.278,-0.045 -0.517,-0.262 -0.663,-0.515 0.071,-1.032 0.771,-0.906 1.324,-1.403 v -1.695 c 0.908,0.646 2.152,0.197 2.622,-0.49 0.316,-0.883 0.024,-0.771 -0.052,-0.579 -0.399,0.965 -2.091,1.316 -2.422,0.554 v -0.364 l 0.075,-0.146 c 0.414,-0.161 1.166,-0.285 1.62,-0.223 0.461,0.062 0.737,-0.008 0.885,0.369 0.169,-0.396 0.761,-0.38 0.768,-1.043 -0.306,0.624 -1.166,0.429 -1.904,0.445 -0.664,0.018 -1.412,0.095 -1.481,-0.045 -0.049,-0.223 -0.09,-0.583 -0.14,-0.805 l -0.164,0.277 c -0.056,1.091 -0.073,2.093 -0.172,3.151 -0.52,-0.233 -1.101,-0.43 -1.849,-0.286 v -0.072 c 0.345,-1.105 0.689,-2.211 1.032,-3.316 -0.014,-0.149 -0.087,-0.172 -0.146,-0.074 -0.125,0.338 -0.176,0.578 -0.441,0.661 h -0.075 c -0.469,-0.023 -0.758,-0.573 -1.154,-0.77 -0.405,-0.1 -0.689,-0.113 -1.107,-0.164 -0.195,-0.123 -0.366,-0.588 -0.54,-0.858 -0.09,-0.147 -0.18,-0.054 -0.061,0.551 0.183,0.464 0.638,0.713 0.638,0.713 0,0 0.017,0.673 0.233,1.044 0.378,0.642 1.101,0.667 1.695,1.105 -0.146,0.422 -0.501,1.034 -0.371,1.472 0.324,0.683 0.938,1.021 0.811,1.99 -0.286,0.135 -0.426,0.203 -0.884,0.219 -0.546,-0.195 -0.948,-0.375 -1.179,-0.884 -0.273,-0.443 -0.076,-1.043 0.148,-1.4 l -0.148,-0.146 c -0.293,0.051 -0.589,0.098 -0.885,0.146 -0.521,-0.107 -0.946,-0.64 -1.093,-1.379 l -0.239,-0.158 c 0,0 -0.188,0.454 0.075,0.832 0.27,0.376 0.64,0.856 0.745,0.907"
     fill="#ffd300"
     id="path173" />
  <path
     d="m -54.011463,-38.784165 c 0.391,0.622 0.955,1.377 2.181,3.02 l 0.147,0.37 c -1.188,0.222 -2.059,-0.034 -2.998,-0.391 -0.357,0.467 -0.894,0.722 -1.549,0.885 v -1.99 h -0.074 c -0.486,0.288 -1.076,0.711 -1.88,0.476 0.333,-0.67 0.423,-1.536 0.261,-1.507 h -0.073 c -0.73,0.162 -1.246,0.476 -2.008,0.357 -0.208,-0.039 -0.104,-0.14 -0.054,-0.208 0.172,-0.443 0.344,-0.886 0.516,-1.327 -0.757,0.124 -1.417,0.244 -2.147,-0.075 0.171,-0.171 0.427,-0.344 0.6,-0.516 0.14,-0.186 0.245,-0.392 0.368,-0.588 l -0.148,-0.146 c -0.636,0.182 -1.319,-0.157 -1.864,-0.359 0.181,-0.229 0.305,-0.39 0.61,-0.602 0.278,-0.119 0.529,-0.307 0.443,-0.442 -0.074,-0.049 -0.065,-0.172 -0.201,-0.198 -0.742,-0.09 -1.512,-0.136 -2.01,-0.59 l 0.219,-0.243 c 0.628,-0.523 0.746,-0.473 1.695,-0.441 0,-0.025 0.127,0.004 0.01,-0.181 -0.424,-0.67 -0.204,-2.094 -0.272,-1.798 -0.176,0.937 -1.618,1.06 -1.578,0.726 0.026,-1.625 -0.602,-1.091 -0.72,-1.484 -0.088,-0.287 0.144,-0.586 0.571,-0.838 0.995,-0.597 1.577,0.555 1.401,-0.034 -0.1,-0.124 -0.112,-0.289 -0.297,-0.37 -0.776,-0.149 -1.439,-0.502 -1.623,-0.883 -0.144,-0.363 -0.097,-0.896 0.181,-1.325 0.091,-0.109 0.188,-0.164 0.336,-0.22 0.828,-0.12 1.603,1.459 1.696,1.104 -0.424,-1.252 -0.597,-2.664 0.542,-3.128 0.235,-0.062 0.688,-0.085 1.004,0.253 0.523,0.64 -0.071,2.352 0,3.613 0.077,1.397 0.847,3.084 1.474,4.125 0.52,0.774 1.129,1.538 1.915,2.282 0.701,0.546 1.783,1.245 2.512,1.395 0.09,0.222 0.27,0.62 0.358,0.89 0.133,0.135 0.235,0.231 0.456,0.388"
     fill="#ffd300"
     id="path175" />
  <path
     d="m -28.454463,-55.015165 c 0.802,0.503 0.06,2.114 -0.15,2.652 0.928,-0.256 1.592,-0.828 2.801,-1.029 1.709,-0.29 3.278,0.642 5.011,0.219 1.629,-0.396 3.182,-1.972 5.082,-1.03 l -0.07,0.146 c -1.868,0.331 -2.93,2.123 -4.573,2.799 -1.337,0.554 -3.172,0.095 -4.544,0.167 l 0.125,0.128 c 1.966,0.833 1.761,1.772 2.794,2.551 l -0.363,0.178 c -0.887,0.447 -2.306,0.056 -3.094,-0.296 -0.908,-0.563 -1.815,-1.129 -2.724,-1.695 -2.443,-1.389 -9.948,-1.144 -10.907,1.401 -0.647,1.579 1.254,2.4 3.719,2.188 1.918,-0.167 3.98,-0.607 4.757,-0.568 v -0.075 l -0.15,-0.219 a 18.137,18.137 0 0 0 -0.441,-0.221 l 0.073,-0.146 c 0.884,-0.17 1.289,0.171 2.063,0.367 0.183,-0.528 0.342,-1.014 0.736,-1.327 0.783,0.167 1.897,1 2.431,0.59 0.955,0.5 3.341,1.336 4.642,-0.223 -0.447,-0.167 -1.312,-0.88 -1.4,-1.411 0.871,0.18 1.778,0.979 2.799,1.042 l 0.147,-0.221 c 0.026,-0.294 -0.076,-0.631 -0.049,-0.927 0.029,-0.161 0.168,-0.229 0.418,-0.032 0.761,0.48 2.024,1.088 3.168,0.884 0.062,-0.622 -0.585,-0.951 -0.531,-1.655 0.485,0.255 2.575,1.321 2.889,1.067 -0.026,-0.369 -0.244,-0.849 -0.268,-1.216 l 0.487,0.405 c 0.393,0.343 0.784,0.688 1.18,1.031 h 0.147 c 0.262,-0.648 0.408,-1.373 0.755,-1.909 0.202,-0.169 0.153,0.188 0.202,0.216 0.365,0.994 1.085,1.833 1.9150004,2.209 0.519,-0.603 -0.03,-1.491 1.229,-2.53 l -0.197,0.69 c -0.02,1.375 0.048,2.107 0.886,2.797 0.768,-0.151 0.729,-0.794 1.18,-1.253 0.778,-0.794 2.535,-0.285 3.436,-1.605 -0.749,2.298 -2.181,1.964 -2.765,2.896 -0.521,0.827 -0.044,1.38 -0.3,2.615 -0.134,0.614 -0.546,0.942 -0.812,1.401 h 0.075 c 0.881,-0.405 1.342,-1.234 2.135,-1.621 1.073,-0.527 2.937,0.256 4.48599998,-0.43 -1.33299998,2.39 -2.68299998,1.542 -4.36999998,2.031 -0.755,0.218 -1.066,0.666 -1.664,0.978 -0.874,0.452 -2.062,0.612 -3.167,0.81 -2.4760004,0.441 -6.0440004,-0.372 -7.7910004,-0.431 l 0.054,0.357 c 1.327,1.617 2.859,2.574 5.452,2.947 3.4180004,0.492 7.4890004,-3.422 9.8710004,-0.223 l -0.147,0.149 c -0.173,-0.05 -0.344,-0.098 -0.517,-0.149 l -0.145,0.149 c 0.554,1.046 1.81499998,0.951 1.91499998,2.576 l -0.075,0.15 c -0.295,-0.099 -0.58699998,-0.199 -0.88399998,-0.294 l -0.074,0.071 c 0.311,0.587 0.93499998,1.25 0.95699998,1.844 -0.269,-0.049 -0.53999998,-0.1 -0.81199998,-0.147 -0.026,0.269 -0.048,0.539 -0.073,0.81 l 0.4,0.064 c 0.10200001,0.065 0.37999998,0.083 0.57499998,0.579 -0.85699998,0.311 -0.82399998,0.736 -1.04699998,1.418 -0.616,-0.042 -0.667,-0.25 -0.957,-0.588 l -0.147,0.072 c -0.179,0.905 -0.41,1.547 -0.959,2.065 -0.583,-0.157 -0.747,-0.506 -1.512,-0.163 -0.144,-0.085 -0.109,-0.28 -0.109,-0.353 0.087,-0.522 0.293,-0.745 0.488,-1.136 l 0.105,-0.191 c 0.083,-0.107 0.102,-0.253 -0.076,-0.147 -0.169,0.147 -0.343,0.295 -0.517,0.441 -0.238,0.768 -0.408,1.423 -1.397,1.474 -0.62,-0.337 -0.659,-0.985 -1.178,-1.399 l 0.07,-0.146 c 0.935,-0.37 1.871,-0.736 2.803,-1.105 0.567,-1.826 0.035,-2.91 -1.217,-3.378 -2.718,-1.008 -10.1610004,1.087 -13.5920004,0.211 -1.409,-0.359 -3.292,-1.551 -3.833,-2.799 -0.159,-0.375 -0.216,-1.046 0.014,-1.571 0.074,-0.165 -0.16,-0.139 -0.234,-0.122 -0.093,0.219 -0.195,0.441 -0.293,0.66 l -2.136,-0.441 c -3.348,-0.11 -5.647,1.146 -7.222,1.842 -3.162,1.401 -5.171,3.829 -11.507,2.959 -0.24,-0.113 -0.306,-0.035 -0.355,-0.011 0.072,1.229 0.832,1.398 0.883,2.732 -0.46,0.787 -1.142,1.11 -1.839,1.466 -0.177,0.096 -0.261,-0.233 -0.354,-0.519 l -0.158,0.224 c 0.103,1.022 -0.546,1.43 -1.252,1.842 -0.171,0.113 -0.204,0.09 -0.271,-0.384 -0.246,-0.393 -0.37,-0.475 -0.614,-0.87 -0.109,-0.169 -0.208,-0.172 -0.148,0.074 -0.069,0.786 -0.462,1.126 -1.031,1.402 -0.236,0.167 -0.353,0.176 -0.293,-0.073 -0.034,-0.649 -0.348,-1.107 -0.887,-1.254 -0.093,0.941 -0.699,1.229 -1.396,1.548 -0.246,0.131 -0.268,0.066 -0.223,-0.22 0.119,-0.485 0.05,-1.233 -0.431,-1.38 -0.176,0.87 -1.133,1.508 -2.148,1.528 0.136,-0.623 0.426,-0.942 0.37,-1.624 l -0.149,-0.302 c -0.345,0.819 -0.905,1.199 -1.768,1.557 -0.193,0.047 -0.475,0.165 -0.55,0.09 0.131,-0.055 0.249,-0.712 0.513,-0.977 0.271,-0.344 0.506,-0.465 0.774,-0.809 l -0.146,-0.073 c -0.566,-0.026 -1.132,-0.048 -1.694,-0.075 0.085,0.702 0.009,1.129 -0.443,1.475 -0.326,-0.134 -0.584,-0.63 -1.58,-0.551 -0.292,-0.292 -0.027,-0.268 -0.062,-0.735 0.197,-0.344 0.339,-0.359 0.537,-0.705 l -0.074,-0.074 c -0.564,0.363 -2.811,2.355 -3.683,0.886 -0.206,-0.228 -0.2,-0.333 -0.148,-0.664 0.56,-0.535 1.501,-0.469 2.136,-0.958 l -0.074,-0.145 c -0.823,0.023 -1.803,0.541 -2.209,0.292 -0.364,-0.19 -0.46,-0.541 -0.737,-0.809 -0.012,-0.423 0.028,-0.716 0.148,-0.958 l 0.22,-0.073 c 2.859,0.918 6.348,2.23 10.169,1.254 0.861,-0.346 1.717,-0.688 2.576,-1.034 l 0.073,0.074 c 0.049,0.319 0.1,0.641 0.15,0.959 l 0.219,-0.074 c 1.027,-1.344 1.369,-1.522 0.937,-3.61 l 0.4,0.36 c 0.638,0.658 1.091,0.925 0.615,2.16 1.339,-0.25 1.808,-1.647 1.605,-2.902 0.095,0.072 0.34,0.187 0.423,0.381 0.125,0.22 0.182,0.507 0.304,0.729 l 0.327,-0.489 c 0.234,-0.94 0.683,-0.493 1.138,-1.785 0.093,-0.282 0.014,-0.792 0.079,-1.056 0.045,-0.177 0.175,-0.235 0.216,-0.403 0.093,-0.393 0.149,-0.901 0.117,-1.23 0.143,-0.182 0.27,-0.302 0.388,-0.614 0.15,-0.39 0.274,-1.021 0.28,-1.54 1.934,0.194 4.337,0.53 6.507,0.491 1.489,-0.042 2.997,-0.244 4.493,-0.368 10.032,-1.84 12.65,-1.524 18.751,-0.295 2.471,0.499 7.0240004,0.421 6.6670004,-2.135 -0.341,-2.444 -5.8230004,-2.384 -8.5080004,-1.768 -4.854,1.112 -9.848,1.774 -14.919,2.725 -2.3,0.43 -5.616,0.971 -7.809,0.072 -2.236,-0.916 -3.717,-3.332 -1.547,-5.376 2.599,-2.462 10.138,-1.428 12.003,-4.273"
     fill="#ffd300"
     id="path177" />
  <path
     d="m -24.993463,-40.340165 c 0.227,10e-4 0.491,0.069 0.681,0.216 -0.69,2.473 1.801,3.564 2.783,4.707 0.087,0.162 0.171,1.137 -0.544,1.249 0.049,1.101 -0.531,1.888 -0.749,2.067 -0.689,-0.453 -1.074,-0.925 -1.581,-1.323 l -0.148,0.146 c 0.18,0.765 -0.646,1.812 -1.343,1.95 -0.185,-0.667 -0.243,-1.336 -0.572,-1.822 -0.308,-0.179 -0.171,0.068 -0.222,0.092 -0.08,1.14 -0.583,1.756 -1.285,2.265 -0.051,-0.023 -0.341,0.117 -0.262,-0.057 -0.208,-0.922 -0.8,-1.461 -1.474,-1.915 l -0.146,0.076 c 0.039,1.305 -0.514,1.85 -1.329,2.283 l -0.217,-0.149 c -0.724,-0.676 -0.346,-0.795 -0.518,-1.396 -0.318,-0.027 -0.532,0.075 -0.956,-0.076 -0.171,0.028 -0.05,0.1 -0.074,0.149 0.218,0.478 0.228,0.918 0.074,1.474 l -0.296,0.221 c -0.457,-0.445 -1.035,-0.342 -1.515,-0.263 -0.498,-0.755 0.013,-1.316 -0.178,-1.58 -0.607,0.49 -1.551,1.887 -2.852,1.347 -0.172,-0.123 -0.262,0.049 -0.536,-0.388 0.019,-0.609 0.185,-0.628 0.441,-0.958 0.54,-0.245 1.083,-0.492 1.622,-0.737 v -0.075 c -0.285,0.012 -1.111,0.101 -1.854,0.563 -0.869,-0.037 -2.125,-0.735 -1.167,-1.518 1.453,-0.82 7.724,1.14 11.074,-1.435 0.169,-0.134 0.126,-0.282 0.126,-0.334 -1.914,-1.24 -2.483,-2.934 -0.738,-4.788 0.073,-0.003 1.702,-0.34 3.755,0.009"
     fill="#ffd300"
     id="path179" />
  <path
     d="m -47.463463,-48.370165 c 0,0 -0.173,0.54 0.245,0.709 0.419,0.173 0.712,0.015 0.849,-0.318 0.135,-0.332 0.084,-0.727 -0.357,-0.687 -0.441,0.036 -0.588,0.063 -0.737,0.296 m -2.786,-0.626 c 0,0 -0.16,0.762 -0.786,0.465 -0.629,-0.296 -0.333,-0.896 -0.248,-1.127 0.087,-0.233 1.034,0.476 1.034,0.662"
     fill="#231f20"
     id="path181" />
  <path
     d="m -5.2804626,-39.600165 c 0,0 0.646,-0.211 0.866,-0.06 0.221,0.149 0.496,0.404 0.496,0.621 0,0.213 0.167,-0.15 0.198,-0.342 0.03,-0.19 -0.384,-0.781 -0.889,-0.685 -0.499,0.094 -0.821,0.305 -0.671,0.466"
     fill="#966a3d"
     id="path183" />
  <path
     d="m -54.716463,-39.121165 c 0,0 -0.537,-0.386 -0.938,-0.769 -0.403,-0.38 -0.346,-0.228 -0.635,-0.343 -0.286,-0.116 0.115,0.325 0.135,0.726 0.021,0.405 -0.308,1.131 -0.784,1.363 -0.271,0.097 -0.958,-0.92 -1.248,-0.749 -0.287,0.173 1.456,1.938 3.086,2.548 1.631,0.616 0.979,-2.338 0.384,-2.776"
     fill="#ce8a2d"
     id="path185" />
  <path
     d="m -54.809463,-39.297165 c 0,0 0.59,0.136 0.977,0.558 0.384,0.421 1.131,2.494 1.131,2.494 0,0 -0.326,1.168 -3.046,-0.405 -0.382,-0.341 0.69,-0.173 0.898,-0.533 0.213,-0.365 0.614,-1.019 0.058,-1.824 -0.211,-0.229 -0.018,-0.29 -0.018,-0.29"
     fill="#926227"
     id="path187" />
  <path
     d="m -53.890463,-38.757165 c 0,0 0.288,1.092 0.575,1.689 0.287,0.592 -0.575,0.669 -0.958,0.669 -0.382,0 0.038,0.422 0.44,0.595 0.402,0.171 1.514,0.459 1.88,0.019 0.361,-0.44 -1.937,-2.972 -1.937,-2.972"
     fill="#754c1f"
     id="path189" />
  <path
     d="m -59.969463,-50.612165 c 0,0 0.646,0.044 0.57,0.338 -0.076,0.296 -0.379,2.035 -0.242,2.423 0.136,0.393 1.171,-1.624 1.234,-2.14 0.064,-0.516 -0.298,-1.253 -1.003,-1.211 -0.707,0.041 -0.918,0.537 -0.559,0.59 m -0.539,1.362 c 0,0 -0.39,0.602 -0.495,-0.085 -0.104,-0.683 0.147,-1.91 -0.18,-1.875 -0.326,0.029 -0.6,-0.073 -0.61,0.651 -0.011,0.729 0.063,1.889 -0.39,1.815 -0.454,-0.073 -0.59,-1.025 -0.497,-1.603 0.095,-0.579 0.167,-1.582 1.318,-1.561 1.149,0.022 1.034,1.643 0.854,2.658 m -2.001,0.717 c 0,0 -0.201,1.034 -0.653,0.23 -0.455,-0.8 -0.674,-1.009 -0.708,-0.536 -0.032,0.475 0.04,0.822 0.04,0.97 0,0.146 -0.748,0.201 -0.811,-0.242 -0.064,-0.445 -0.023,-1.17 0.242,-1.499 0.263,-0.327 1.435,-0.368 1.89,1.077 m 0.03,2.265 c 0,0 -0.632,-0.736 -1.296,-0.263 -0.664,0.477 0.104,0.549 0.274,1.021 0.17,0.476 0.476,0.438 0.465,0.107 -0.012,-0.326 -0.635,-0.567 -0.445,-0.768 0.192,-0.202 1.055,0.558 1.002,-0.097 m 0.476,3.196 c 0,0 -0.792,-0.287 -1.18,-0.075 -0.39,0.212 -0.462,0.453 -0.157,0.507 0.307,0.051 0.506,-0.213 0.914,-0.14 0.412,0.077 0.759,-0.04 0.423,-0.292 m 0.674,1.434 c 0,0 -0.684,0.242 -1.042,0.524 -0.36,0.287 -0.085,0.424 0.474,0.591 0.561,0.169 0.097,-0.24 0.475,-0.598 0.38,-0.361 0.26,-0.61 0.093,-0.517 m 1.085,1.79 c -0.25,-0.086 -1.064,0.401 -1.263,0.634 -0.203,0.23 0.263,0.115 0.76,-0.085 0.493,-0.2 0.895,-0.41 0.503,-0.549 m 1.296,1.395 c 0,0 -0.376,-0.129 -0.632,0.283 -0.253,0.41 -0.367,0.538 -0.201,0.631 0.17,0.098 0.455,-0.029 0.548,-0.305 0.07,-0.191 0.528,-0.455 0.285,-0.609 m 1.603,0.966 c 0,0 -0.359,0.032 -0.611,0.506 -0.252,0.473 -0.063,0.59 0.222,0.473 0.285,-0.112 0.748,-1.051 0.389,-0.979 m 1.497,1.383 c 0,0 0.075,0.148 -0.263,0.392 -0.338,0.239 0.142,0.171 0.495,-0.162 0.18,-0.166 -0.085,-0.464 -0.232,-0.23 m 1.538,-10.892 c 0,0 -0.687,0.396 -0.892,0.887 -0.208,0.486 0.578,-0.141 0.808,-0.298 0.227,-0.163 0.389,-0.742 0.084,-0.589 m -0.099,1.714 c 0,0 -0.526,0.693 -0.579,1.235 -0.051,0.543 0.125,0.246 0.457,-0.289 0.329,-0.533 0.318,-0.486 0.418,-0.693 0.1,-0.206 -0.075,-0.542 -0.296,-0.253 m -0.023,2.668 c 0,0 0.131,-0.663 0.388,-0.897 0.259,-0.238 0.315,0.196 0.146,0.623 -0.165,0.428 -0.268,0.893 -0.448,1.042 -0.187,0.154 -0.117,-0.56 -0.086,-0.768 m 0.708,0.657 c 0,0 0.275,-0.252 0.329,-0.015 0.051,0.236 -0.29,0.792 -0.383,1.182 -0.091,0.386 -0.412,0.814 -0.524,0.237 -0.115,-0.581 0.099,-0.551 0.237,-0.812 0.134,-0.256 0.165,-0.447 0.341,-0.592 m 0.244,1.767 c 0,0 0.27,-0.464 0.557,-0.26 0.29,0.208 0.045,0.687 0.532,1.626 0.488,0.938 1.319,2.134 1.578,2.444 0.258,0.314 0.336,0.291 0.214,0.78 -0.121,0.485 -0.335,0.534 -0.609,0.106 -0.277,-0.426 -1.624,-2.041 -1.922,-2.452 -0.297,-0.416 -0.739,-1.793 -0.35,-2.244 m 3.179,1.251 c 0,0 1.18,0.969 1.536,1.571 0.356,0.602 0.503,0.884 0.689,0.64 0.182,-0.246 -0.272,-0.875 -0.887,-1.462 -0.612,-0.591 -1.522,-1.303 -1.338,-0.749 m 2.324,-0.666 c 0,0 0.76,0.565 0.943,0.91 0.185,0.345 0.334,-0.051 0.1,-0.345 -0.233,-0.291 -1.204,-1.028 -1.043,-0.565 m 2.392,-1.311 c 0,0 -0.292,-0.396 -0.625,-0.458 -0.333,-0.06 -0.063,0.198 0.11,0.468 0.171,0.27 0.221,0.614 0.196,0.944 -0.025,0.333 0.282,0.591 0.455,0.062 0.173,-0.524 -0.136,-1.016 -0.136,-1.016 m 0.11,-1.806 c 0,0 -0.228,-0.37 -0.552,0.084 -0.062,0.087 0.356,0.591 0.429,1.032 0.076,0.442 0.442,0.185 0.467,-0.27 0.026,-0.453 -0.344,-0.846 -0.344,-0.846 m 0.345,-1.498 c 0,0 0.099,0.333 -0.012,0.7 -0.113,0.37 0.367,0.674 0.417,0.148 0.05,-0.531 -0.013,-0.885 -0.405,-0.848 m -0.406,-2.947 c 0,0 0.405,0.857 0.111,1.398 -0.297,0.538 0.206,0.345 0.354,0.025 0.481,-1.019 -0.65,-1.668 -0.465,-1.423 m -5.785,1.001 c 0,0 -0.507,0.208 -0.468,0.827 0.037,0.622 0.489,1.108 1.072,1.093 0.583,-0.02 0.47,-0.321 0.133,-0.377 -0.338,-0.055 -0.754,-0.396 -0.696,-0.903 0.055,-0.509 0.186,-0.736 -0.041,-0.64 m -1.165,-0.47 c 0,0 -1.183,0 -1.238,-0.941 -0.057,-0.939 0.262,-0.882 0.411,-1.015 0.152,-0.132 0.396,0.113 0.17,0.396 -0.225,0.28 0.059,1.107 0.45,1.163 0.396,0.06 0.676,0.302 0.207,0.397 m -1.277,-2.614 c 0,0 0.544,0.715 0.603,0.227 0.056,-0.491 -0.396,-0.752 -0.208,-1.41 0.188,-0.657 0.056,-1.07 0.318,-0.791 0.264,0.281 0.601,0.112 0.454,-0.263 -0.15,-0.375 -1.091,-1.277 -1.224,-0.769 -0.129,0.507 -0.319,2.612 0.057,3.006 m 1.579,-2.426 c 0,0 0.414,0.622 0.564,0.113 0.149,-0.507 0.318,-0.544 0.487,-0.357 0.168,0.189 -0.278,-1.296 -0.638,-1.202 -0.356,0.093 -0.413,1.446 -0.413,1.446 m 1.766,-0.299 c 0,0 0.337,-0.81 0.454,-0.602 0.113,0.206 0.282,0.148 0.187,-0.356 -0.093,-0.508 -0.093,-0.999 -0.337,-0.676 -0.246,0.317 -0.621,1.671 -0.304,1.634 m 1.563,-0.283 c 0,0 0.301,-0.225 0.413,-0.076 0.112,0.15 0.299,0.263 0.299,-0.187 0,-0.451 -0.281,-1.204 -0.583,-0.603 -0.3,0.604 -0.242,0.621 -0.129,0.866 m 1.256,0.322 c 0,0 0.416,0.055 0.565,-0.057 0.15,-0.112 0.055,0.226 0.151,0.357 0.095,0.132 0.376,-0.583 0.131,-1.187 -0.242,-0.599 -0.865,0.489 -0.847,0.887 m 1.355,0.995 c 0,0 0.152,0.188 0.339,0.337 0.188,0.151 0.47,0.657 0.527,0.058 0.056,-0.604 -0.489,-1.186 -0.603,-0.923 -0.112,0.265 -0.263,0.528 -0.263,0.528 m 1.28,0.995 c 0,0 0.641,-0.6 1.016,-0.468 0.375,0.131 0.901,-0.019 0.658,-0.32 -0.245,-0.3 -1.243,-0.283 -1.431,-0.039 -0.188,0.243 -0.375,0.697 -0.243,0.827 m -4.515,0.696 c 0,0 0.416,-0.712 0.586,-0.187 0.166,0.524 -0.249,0.977 -0.436,1.673 -0.188,0.694 -0.507,0.622 -0.167,0.713 0.338,0.097 0.562,0.318 0.054,0.283 -0.506,-0.039 -1.031,0.393 -0.785,-0.151 0.24,-0.544 0.355,-1.919 0.748,-2.331 m 26.63,10.812 c 0,0 -1.353,-2.489 -0.409,-3.097 0.337,-0.216 0.118,1.115 1.018,2.347 0.892,1.234 2.684,2.274 4.982,2.251 2.298,-0.025 2.634,0.191 1.039,0.458 -1.598,0.266 -4.914,0.968 -6.63,-1.959 m 6.281,-3.242 c 0,0 -0.983,-0.958 -1.744,-1.08 -0.762,-0.123 -0.588,0.317 0.027,0.639 0.613,0.32 2.675,2.652 5.083,3.144 2.406,0.49 6.3810004,-0.492 7.7840004,-0.91 1.397,-0.417 1.473,0 1.719,0.443 0.244,0.44 0.467,-0.024 0.17,-0.912 -0.296,-0.882 -1.275,-0.759 -3.928,0.124 -2.6520004,0.885 -4.0980004,0.885 -5.9690004,0.173 -1.864,-0.712 -1.817,-1.078 -3.142,-1.621 m 13.7540004,1.278 c 0,0 0.562,-0.271 0.982,0.541 0.146,0.245 0.045,-0.023 -0.567,0 -0.611,0.024 -0.71,-0.444 -0.415,-0.541 m 0.491,2.236 c 0,0 0.81,0.441 1.079,0.737 0.27099998,0.292 0.48999998,-0.123 -0.1,-0.64 -0.588,-0.514 -1.101,-0.441 -0.979,-0.097 m 0.538,1.941 c 0,0 0.64,0.245 0.93499998,0.711 0.294,0.467 0.664,0.541 0.344,-0.048 -0.161,-0.298 -0.60699998,-0.774 -0.94999998,-0.987 -0.329,-0.21 -0.607,0.22 -0.329,0.324 m 0.247,1.422 c 0,0 -0.589,0.196 -0.172,0.566 0.417,0.367 0.83299998,0.269 0.614,0.662 -0.221,0.396 0.51799998,-0.072 0.63899998,-0.147 0.125,-0.071 -0.198,-0.49 -0.466,-0.737 -0.27099998,-0.246 -0.34499998,-0.492 -0.61499998,-0.344 m -3.291,0.074 c 0,0 0.343,-0.906 0.493,-0.074 0.146,0.836 0.022,1.399 -0.886,2.063 -0.909,0.666 -1.621,0.81 -2.158,0.736 -0.542,-0.072 -0.938,-0.222 0,-0.417 0.927,-0.194 1.564,-0.344 1.961,-0.835 0.392,-0.491 0.689,-0.711 0.59,-1.473"
     fill="#ffe280"
     id="path191" />
  <path
     d="m -6.8684626,-33.180165 c 0,0 -0.785,0.148 -1.229,0.024 -0.444,-0.124 -0.76,0.022 -0.785,0.368 -0.029,0.343 -0.294,0.295 -0.369,-0.124 -0.073,-0.417 0.048,-1.033 0.419,-1.082 0.369,-0.045 1.325,0.247 1.964,0.814 m 1.967,0.748 c 0,0 0.214,-0.322 0.501,-0.465 0.286,-0.144 0.368,0.036 0.177,0.429 -0.192,0.395 -0.646,0.705 -0.489,1.049 0.152,0.348 0.263,0.274 -0.133,0.479 -0.396,0.201 -0.765,0.155 -0.536,-0.357 0.228,-0.514 0.48,-1.135 0.48,-1.135 m -38.2420004,-10.661 c 0,0 2.366,0.9 7,0.317 4.635,-0.587 7.949,-1.341 13.07,-1.364 5.122,-0.026 10.098,1.364 12.07,1.243 1.9780004,-0.121 0.375,-0.806 -1.979,-1.063 -2.359,-0.262 -10.021,-1.843 -16.764,-0.479 -6.74,1.362 -10.942,1.215 -12.601,1.029 -1.654,-0.185 -0.796,0.317 -0.796,0.317 m 4.021,-4.853 c 0,0 -0.151,1.542 2.476,1.934 2.629,0.393 4.472,-0.152 4.984,-0.305 0.515,-0.148 0.422,-0.512 -1.026,-0.512 -1.449,0 -3.05,0.543 -4.381,-0.028 -1.33,-0.576 -2.053,-1.089 -2.053,-1.089 m -1.719,-0.689 c 0,0 0.486,-1.683 2.832,-2.479 2.347,-0.795 7.351,-1.241 8.718,-1.902 1.374,-0.665 1.019,0.133 1.019,0.133 0,0 0.223,0.53 1.196,0.397 0.974,-0.132 2.169,-0.486 4.868,-0.087 2.701,0.398 2.701,-0.356 4.072,-0.667 1.375,-0.31 3.231,-1.015 1.905,-1.06 -1.328,-0.047 -3.411,1.104 -5.932,0.838 -2.524,-0.265 -4.604,-0.131 -5.797,0.488 -1.198,0.619 0.262,-0.311 0.085,-1.327 -0.175,-1.02 -0.398,0.662 -4.029,1.239 -3.626,0.577 -9.072,1.33 -8.937,4.427 m 10.056,0.805 c 0,0 0.398,0.64 0.188,0.877 -0.214,0.24 0.292,0.187 0.292,-0.585 -0.001,-0.771 -0.345,-0.451 -0.48,-0.292 m 2.235,0.212 c 0,0 0.424,-0.371 0.903,-0.852 0.48,-0.478 -0.265,-0.772 -0.505,-0.426 -0.239,0.346 0.159,0.694 -0.265,0.958 -0.426,0.269 -0.133,0.32 -0.133,0.32 m 6.411,-2.206 0.212,0.849 c 0,0 -1.035,-0.167 -1.035,-1.142 -0.002,-0.451 0.823,0.293 0.823,0.293 m 2.977,1.037 c 0,0 0.211,-0.826 0.319,-1.038 0.106,-0.212 -0.876,-0.666 -0.903,-0.399 -0.027,0.267 0.344,1.491 0.584,1.437 m 3.006,-0.479 c 0,0 0.424,-0.611 0.532,-1.011 0.106,-0.399 -1.41,-0.849 -1.118,-0.345 0.293,0.503 0.266,1.25 0.586,1.356 m 2.073,-0.771 c 0,0 0.798,1.118 0.718,0.451 -0.082,-0.667 0.157,-1.144 -0.318,-1.409 -0.479,-0.266 -0.4,0.958 -0.4,0.958 m 2.872,-1.411 c 0,0 -0.69,0.533 -0.584,1.357 0.105,0.823 0.558,0.849 0.61,0 0.055,-0.851 -0.026,-1.357 -0.026,-1.357 m 2.4230004,0.507 c 0,0 -0.479,1.144 -0.508,1.729 -0.027,0.583 0.56,0.903 0.719,-0.055 0.159,-0.958 0.371,-1.542 0.507,-2.045 0.132,-0.511 -0.718,0.371 -0.718,0.371 m 1.859,2.659 c 0,0 -0.214,-0.876 1.223,-1.49 0.744,-0.315 1.995,-0.45 1.995,-0.45 0,0 0.452,0.371 -1.701,1.039 -0.826,0.291 -1.303,1.407 -1.357,2.046 -0.053,0.637 -0.4,-0.482 -0.16,-1.145 m 1.488,4.228 c 0,0 0.478,-0.69 2.422,-0.69 1.939,0 2.20699998,-0.508 2.60499998,-0.958 0.4,-0.452 -0.081,-0.107 -0.82499998,0.186 -0.743,0.292 -1.598,-0.054 -2.952,0.346 -1.354,0.399 -1.25,1.116 -1.25,1.116 m -23.5160004,3.83 c 0,0 -1.084,1.08 -0.893,2.324 0.106,0.712 0.784,1.7 1.138,1.829 0.35,0.127 0.63,-0.094 0.39,-0.501 -0.241,-0.408 -1.263,-0.462 -1.093,-2.226 0.061,-0.681 0.018,-0.82 0.458,-1.426 m 4.806,1.983 c 0,0 2.301,2.113 2.598,2.428 0.293,0.313 0.421,0.818 0.293,1.15 -0.13,0.333 -1.855,0.314 -1.39,-0.389 0.462,-0.705 -1.557,-2.336 -1.501,-3.189 m -14.265,4.26 c 0,0 -0.631,0.397 0.103,0.647 0.734,0.252 4.719,0.61 6.921,0.045 2.201,-0.567 2.621,-0.798 3.25,-1.804 -0.566,0.188 -2.58,1.3 -8.179,1.048 -0.958,-0.042 -1.718,-0.062 -2.095,0.064 m 1.613,1.511 c 0,0 0.902,-0.21 0.882,0.125 -0.022,0.339 -0.923,0.567 -1.554,1.111 -0.629,0.547 -0.985,0.232 -0.903,-0.209 0.086,-0.442 0.716,-0.942 1.575,-1.027 m 2.316,0.683 c 0,0 -0.036,0.186 -0.064,0.592 -0.028,0.407 0.072,0.751 0.072,0.751 0,0 -0.434,0.203 -0.495,-0.688 -0.027,-0.428 0.334,-0.655 0.487,-0.655 m 5.222,-0.59 c 0,0 0.218,-0.221 0.646,0.167 0.421,0.385 0.567,1.4 0.328,1.768 -0.2,-1.199 -0.974,-1.935 -0.974,-1.935 m 2.801,-0.589 c 0,0 0.052,-0.461 0.273,-0.021 0.223,0.443 0.554,1.18 0.407,1.771 -0.131,0.201 -0.315,0.11 -0.479,-0.775 -0.166,-0.883 -0.201,-0.975 -0.201,-0.975 m -4.816,1.217 c 0,0 0.485,0.052 0.397,0.812 -0.085,0.76 -0.275,0.76 -0.552,0.416 -0.278,-0.345 -0.156,-1.47 0.155,-1.228 m 6.996,-1.757 c 0,0 1.113,1.146 1.341,1.425 0.224,0.281 0.614,-0.107 0.367,-0.54 -0.252,-0.429 -0.92,-0.874 -1.708,-0.885 m -39.816,-0.367 c 0,0 0,-0.656 0.657,-0.485 0.654,0.173 4.713,1.368 6.771,1.368 2.056,0 4.317,-0.674 4.214,-1.106 -0.104,-0.433 -0.744,-0.036 -1.762,0.05 -1.02,0.087 -4.543,0.328 -8.016,-0.742 -0.908,-0.281 -2.125,-0.57 -2.056,0.139 0.071,0.705 0.106,0.948 0.192,0.776"
     fill="#ffe280"
     id="path193" />
  <path
     d="m -61.939463,-33.373165 c 0,0 0.916,-0.26 1.034,0.313 0.122,0.569 -1.657,0.447 -1.948,0.88 -0.295,0.433 0.222,0.689 0.084,0.794 -0.137,0.102 -1.036,-1.124 -0.466,-1.469 0.569,-0.346 0.654,-0.377 1.296,-0.518 m 5.475,1.519 c 0,0 -0.154,0.884 -0.344,1.193 -0.191,0.313 -0.846,0.33 -0.846,0.33 0,0 0.448,-1.711 1.19,-1.523 m 1.226,0.329 c 0,0 -0.032,-0.641 0.172,-0.332 0.208,0.313 0.793,1.626 -0.69,1.798 0.189,-0.843 0.518,-1.466 0.518,-1.466 m 9.462,-4.022 c 0,0 0.556,0.364 0.784,0.635 0.225,0.269 0.908,0.867 0.504,1.393 -0.404,0.526 -1.124,0.901 -1.686,0.78 -0.562,-0.119 0.221,-0.32 0.527,-0.645 0.632,-0.668 -0.518,-2.412 -0.129,-2.163 m -16.547,-0.289 c 0,0 -0.034,-0.812 0.347,-0.323 0.382,0.49 0.609,0.859 0.896,1.05 0.286,0.192 -0.274,-0.417 -0.418,-0.893 -0.144,-0.479 -1,-1.169 -1.17,-0.788 -0.167,0.382 -0.003,1.431 0.345,0.954 m 9.227,4.584 c 0,0 0.087,-0.543 0.339,-0.17 0.254,0.374 0.213,0.693 0.128,1.021 -0.085,0.331 -0.424,0.466 -0.424,0.466 z m 2.276,-0.01 c 0,0 -0.083,-0.648 0.16,-0.363 0.246,0.288 0.36,0.723 0.224,1.468 -0.278,-0.829 -0.384,-1.105 -0.384,-1.105 m 2.267,-0.332 c 0,0 0.563,0.042 0.745,0.662 0.182,0.616 -0.264,0.253 -0.521,-0.173 -0.258,-0.425 -0.459,-0.585 -0.224,-0.489"
     fill="#ffe280"
     id="path195" />
  <path
     d="m -52.473463,-45.435165 c 0.155,-0.483 0.219,0.252 0.188,0.512 -0.052,0.443 -0.265,1.163 -0.115,1.772 0.275,1.101 1.249,1.142 1.385,1.527 0.057,0.116 -0.063,0.164 -0.206,0.093 -1.829,-0.607 -2.047,-2.197 -1.252,-3.904"
     fill="#ffd300"
     id="path197" />
  <path
     d="m -50.964463,-49.328165 c 0,0 -0.333,-0.049 -0.28,0.219 0.048,0.272 0.184,0.357 0.28,0.221 0.1,-0.132 0.161,-0.366 0,-0.44 m 3.77,0.933 c 0,0 -0.271,0.111 -0.169,0.417 0.097,0.308 0.491,0.22 0.505,0.011 0.009,-0.208 -0.065,-0.502 -0.336,-0.428"
     fill="#ffffff"
     id="path199" />
  <path
     d="m -37.076463,-35.416165 c 0.076,-0.159 0.356,-0.208 0.663,0 0.292,0.373 0.844,0.498 0.955,0.983 l -0.365,0.122 c -0.46,-0.023 -1.533,0.011 -1.842,-0.219 0.197,-0.297 0.393,-0.591 0.589,-0.886"
     fill="#ffd300"
     id="path201" />
  <path
     d="m -52.473463,-45.435165 c 0.155,-0.483 0.219,0.252 0.188,0.512 -0.052,0.443 -0.265,1.163 -0.113,1.772 0.272,1.101 1.246,1.142 1.383,1.527 0.057,0.116 -0.063,0.164 -0.206,0.093 -1.829,-0.607 -2.047,-2.197 -1.252,-3.904 m 15.397,10.019 c 0.076,-0.159 0.356,-0.208 0.663,0 0.29,0.373 0.843,0.498 0.955,0.983 l -0.365,0.122 c -0.46,-0.022 -1.533,0.011 -1.842,-0.219 l 0.589,-0.886 m 5.01,-12.082 c -1.638,0.143 -6.497,1.392 -6.693,-0.778 -0.038,-0.161 0.125,-0.369 0.149,-0.391 0.684,-1.393 3.15,-1.491 4.928,-1.781 0.612,-0.022 1.226,-0.048 1.84,-0.071 1.006,0.25 3.383,0.278 3.977,1.177 -0.909,0.106 -1.137,0.517 -1.397,1.252 -0.855,-0.11 -2.141,-0.487 -2.726,0.223 -0.003,0.219 0.012,0.147 -0.078,0.369 m 30.5020004,15.177 c -0.617,-0.047 -0.667,-0.252 -0.958,-0.591 l -0.149,0.074 c -0.178,0.904 -0.407,1.546 -0.956,2.064 -0.583,-0.158 -0.748,-0.506 -1.513,-0.166 -0.144,-0.083 -0.107,-0.275 -0.107,-0.349 0.086,-0.527 0.288,-0.749 0.486,-1.138 l 0.102,-0.191 c 0.083,-0.108 0.106,-0.251 -0.076,-0.147 l -0.516,0.443 c -0.238,0.763 -0.41,1.421 -1.398,1.472 -0.62,-0.339 -0.661,-0.985 -1.179,-1.397 l 0.075,-0.15 c 0.933,-0.368 1.865,-0.735 2.798,-1.104 0.568,-1.826 0.041,-2.913 -1.215,-3.38 -2.717,-1.01 -10.1620004,1.086 -13.5920004,0.209 -1.409,-0.359 -3.291,-1.549 -3.832,-2.798 -0.161,-0.374 -0.214,-1.046 0.013,-1.571 0.071,-0.166 -0.163,-0.139 -0.23,-0.123 -0.101,0.22 -0.199,0.44 -0.297,0.664 -0.712,-0.149 -1.425,-0.295 -2.136,-0.444 -3.347,-0.109 -5.644,1.144 -7.221,1.844 -3.163,1.397 -5.171,3.83 -11.505,2.958 -0.24,-0.113 -0.306,-0.037 -0.354,-0.013 0.066,1.231 0.83,1.398 0.879,2.734 -0.458,0.786 -1.137,1.11 -1.836,1.466 -0.18,0.095 -0.265,-0.232 -0.355,-0.523 l -0.157,0.229 c 0.103,1.021 -0.55,1.424 -1.256,1.841 -0.168,0.114 -0.2,0.087 -0.267,-0.384 -0.245,-0.395 -0.369,-0.475 -0.615,-0.869 -0.108,-0.17 -0.208,-0.173 -0.147,0.074 -0.068,0.784 -0.466,1.125 -1.032,1.399 -0.235,0.166 -0.353,0.176 -0.295,-0.074 -0.031,-0.647 -0.347,-1.107 -0.887,-1.251 -0.092,0.939 -0.699,1.228 -1.397,1.545 -0.243,0.129 -0.263,0.065 -0.22,-0.221 0.116,-0.481 0.048,-1.233 -0.43,-1.38 -0.175,0.87 -1.135,1.51 -2.147,1.529 0.132,-0.622 0.423,-0.939 0.366,-1.622 l -0.148,-0.302 c -0.346,0.818 -0.907,1.194 -1.768,1.555 -0.194,0.046 -0.475,0.164 -0.547,0.088 0.134,-0.054 0.248,-0.708 0.51,-0.978 0.27,-0.341 0.506,-0.46 0.774,-0.808 l -0.149,-0.073 c -0.562,-0.024 -1.126,-0.049 -1.692,-0.072 0.086,0.7 0.011,1.125 -0.441,1.473 -0.328,-0.135 -0.585,-0.629 -1.58,-0.552 -0.295,-0.293 -0.028,-0.27 -0.062,-0.734 0.198,-0.345 0.34,-0.361 0.537,-0.705 l -0.074,-0.075 c -0.567,0.359 -2.806,2.356 -3.684,0.887 -0.206,-0.229 -0.198,-0.335 -0.148,-0.665 0.558,-0.537 1.501,-0.47 2.136,-0.958 l -0.073,-0.146 c -0.824,0.023 -1.803,0.542 -2.21,0.293 -0.364,-0.191 -0.461,-0.54 -0.738,-0.81 -0.012,-0.425 0.029,-0.716 0.148,-0.957 l 0.22,-0.073 c 2.862,0.919 6.347,2.226 10.169,1.25 0.86,-0.342 1.72,-0.687 2.578,-1.029 l 0.073,0.072 c 0.052,0.321 0.1,0.641 0.149,0.958 l 0.22,-0.073 c 1.028,-1.343 1.369,-1.522 0.935,-3.609 l 0.401,0.357 c 0.635,0.661 1.09,0.925 0.613,2.16 1.336,-0.25 1.812,-1.643 1.606,-2.903 0.098,0.073 0.341,0.187 0.424,0.385 0.122,0.221 0.179,0.507 0.301,0.726 l 0.329,-0.489 c 0.232,-0.936 0.682,-0.492 1.139,-1.786 0.097,-0.278 0.014,-0.791 0.08,-1.052 0.043,-0.181 0.174,-0.238 0.214,-0.401 0.091,-0.396 0.15,-0.9 0.119,-1.231 0.142,-0.183 0.268,-0.304 0.386,-0.613 0.151,-0.392 0.275,-1.021 0.28,-1.54 1.937,0.194 4.337,0.525 6.51,0.491 1.488,-0.041 2.994,-0.246 4.493,-0.368 10.033,-1.84 12.65,-1.523 18.751,-0.296 2.476,0.5 7.0250004,0.42 6.6670004,-2.137 -0.342,-2.445 -5.8250004,-2.385 -8.5100004,-1.769 -4.849,1.114 -9.847,1.773 -14.917,2.727 -2.298,0.431 -5.615,0.971 -7.809,0.074 -2.238,-0.917 -3.718,-3.332 -1.549,-5.378 2.607,-2.458 10.148,-1.423 12.011,-4.267 0.802,0.503 0.06,2.113 -0.148,2.653 0.926,-0.257 1.592,-0.827 2.798,-1.032 1.708,-0.288 3.28,0.645 5.009,0.222 1.632,-0.398 3.182,-1.972 5.086,-1.031 l -0.072,0.146 c -1.87,0.333 -2.934,2.124 -4.575,2.803 -1.339,0.553 -3.173,0.094 -4.544,0.166 l 0.124,0.128 c 1.966,0.831 1.761,1.772 2.796,2.549 l -0.363,0.178 c -0.889,0.448 -2.31,0.057 -3.095,-0.297 -0.91,-0.564 -1.818,-1.127 -2.727,-1.694 -2.445,-1.392 -9.947,-1.146 -10.904,1.398 -0.647,1.579 1.252,2.401 3.718,2.189 1.918,-0.168 3.977,-0.608 4.754,-0.566 v -0.075 l -0.145,-0.219 c -0.147,-0.074 -0.295,-0.147 -0.443,-0.222 l 0.075,-0.147 c 0.885,-0.17 1.287,0.174 2.06,0.369 0.185,-0.529 0.343,-1.013 0.738,-1.329 0.783,0.166 1.897,1.002 2.43,0.592 0.955,0.498 3.341,1.336 4.644,-0.223 -0.448,-0.167 -1.312,-0.882 -1.399,-1.409 0.868,0.179 1.781,0.979 2.798,1.04 l 0.149,-0.218 c 0.026,-0.298 -0.079,-0.632 -0.053,-0.926 0.03,-0.166 0.168,-0.232 0.421,-0.034 0.761,0.48 2.023,1.087 3.167,0.885 0.063,-0.622 -0.583,-0.954 -0.53,-1.654 0.483,0.254 2.575,1.315 2.891,1.062 -0.03,-0.367 -0.248,-0.846 -0.272,-1.212 l 0.487,0.405 c 0.393,0.344 0.787,0.686 1.181,1.031 h 0.148 c 0.257,-0.65 0.408,-1.375 0.753,-1.906 0.2,-0.17 0.151,0.187 0.2,0.21 0.368,0.994 1.087,1.838 1.9170004,2.211 0.515,-0.604 -0.029,-1.489 1.225,-2.53 l -0.193,0.689 c -0.021,1.379 0.043,2.107 0.885,2.799 0.771,-0.153 0.729,-0.792 1.179,-1.254 0.779,-0.794 2.536,-0.283 3.434,-1.605 -0.747,2.3 -2.181,1.964 -2.763,2.896 -0.52,0.829 -0.044,1.383 -0.305,2.617 -0.127,0.615 -0.543,0.939 -0.808,1.399 h 0.072 c 0.881,-0.403 1.345,-1.234 2.136,-1.623 1.072,-0.522 2.939,0.259 4.48499998,-0.428 -1.33299998,2.389 -2.68199998,1.542 -4.36999998,2.031 -0.755,0.219 -1.062,0.665 -1.661,0.977 -0.873,0.454 -2.063,0.613 -3.167,0.811 -2.4780004,0.444 -6.0460004,-0.371 -7.7950004,-0.431 l 0.057,0.359 c 1.326,1.617 2.857,2.574 5.452,2.946 3.4180004,0.493 7.4910004,-3.421 9.8710004,-0.224 l -0.147,0.15 c -0.168,-0.049 -0.342,-0.1 -0.516,-0.15 l -0.15,0.15 c 0.556,1.045 1.81599998,0.947 1.91799998,2.577 l -0.074,0.146 c -0.294,-0.098 -0.58699998,-0.194 -0.88199998,-0.296 l -0.076,0.076 c 0.311,0.585 0.93499998,1.249 0.95799998,1.842 -0.27,-0.049 -0.53999998,-0.099 -0.81199998,-0.147 l -0.072,0.809 0.4,0.063 c 0.10100001,0.067 0.37999998,0.085 0.57499998,0.582 -0.85499998,0.312 -0.82399998,0.736 -1.04799998,1.42 m -7.008,-0.025 c -0.33,-0.102 -0.283,-0.119 -0.496,-0.303 -0.266,-0.622 -0.076,-1.159 0.188,-1.263 0.814,-0.019 1.566,0.349 2.009,0.714 l -0.292,0.14 c -0.539,0.17 -0.957,0.787 -1.409,0.712 m -12.9570004,-3.07 c 0.087,0.161 0.171,1.137 -0.544,1.249 0.049,1.102 -0.531,1.887 -0.749,2.067 -0.69,-0.452 -1.074,-0.927 -1.578,-1.327 l -0.151,0.147 c 0.179,0.766 -0.646,1.812 -1.343,1.954 -0.185,-0.669 -0.243,-1.342 -0.57,-1.826 -0.31,-0.177 -0.173,0.066 -0.224,0.093 -0.08,1.142 -0.583,1.757 -1.286,2.266 -0.05,-0.024 -0.34,0.118 -0.262,-0.055 -0.207,-0.924 -0.799,-1.465 -1.473,-1.916 l -0.146,0.074 c 0.039,1.307 -0.515,1.852 -1.329,2.284 l -0.219,-0.147 c -0.722,-0.679 -0.343,-0.795 -0.516,-1.398 -0.318,-0.027 -0.532,0.077 -0.956,-0.074 -0.17,0.028 -0.049,0.095 -0.074,0.148 0.218,0.477 0.227,0.917 0.074,1.472 l -0.295,0.219 c -0.458,-0.444 -1.041,-0.341 -1.517,-0.263 -0.498,-0.751 0.014,-1.313 -0.178,-1.576 -0.607,0.489 -1.551,1.884 -2.852,1.346 -0.172,-0.123 -0.262,0.048 -0.536,-0.39 0.019,-0.609 0.185,-0.626 0.441,-0.956 0.54,-0.247 1.083,-0.492 1.622,-0.738 v -0.074 c -0.285,0.013 -1.111,0.101 -1.854,0.563 -0.869,-0.04 -2.125,-0.735 -1.167,-1.521 1.453,-0.817 7.724,1.141 11.073,-1.431 0.169,-0.135 0.126,-0.284 0.126,-0.336 -1.914,-1.24 -2.485,-2.934 -0.738,-4.792 0.073,0 1.704,-0.334 3.758,0.015 0.225,0.001 0.488,0.072 0.683,0.217 -0.693,2.469 1.798,3.562 2.78,4.706 m -41.187,-1.694 c 1.158,0.196 2.021,1.535 2.581,2.356 v 0.074 h -0.369 c -1.168,-0.35 -2.222,-0.354 -2.651,-1.472 0.128,-0.45 0.222,-0.654 0.439,-0.958 m 8.034,1.323 c -0.356,0.467 -0.893,0.72 -1.548,0.887 v -1.989 h -0.074 c -0.486,0.285 -1.076,0.708 -1.88,0.473 0.333,-0.667 0.423,-1.536 0.261,-1.505 h -0.075 c -0.729,0.162 -1.246,0.474 -2.007,0.359 -0.207,-0.039 -0.101,-0.141 -0.054,-0.213 l 0.515,-1.322 c -0.757,0.121 -1.417,0.243 -2.146,-0.077 0.17,-0.171 0.426,-0.342 0.599,-0.514 0.145,-0.186 0.245,-0.394 0.37,-0.59 l -0.147,-0.146 c -0.639,0.183 -1.323,-0.155 -1.866,-0.361 0.181,-0.225 0.305,-0.388 0.61,-0.6 0.278,-0.118 0.529,-0.307 0.443,-0.444 -0.074,-0.048 -0.066,-0.171 -0.201,-0.197 -0.739,-0.09 -1.512,-0.134 -2.009,-0.59 l 0.218,-0.242 c 0.629,-0.523 0.747,-0.473 1.696,-0.446 0,-0.02 0.126,0.006 0.009,-0.178 -0.425,-0.67 -0.202,-2.093 -0.273,-1.799 -0.176,0.937 -1.618,1.061 -1.579,0.729 0.026,-1.625 -0.601,-1.094 -0.717,-1.485 -0.09,-0.289 0.144,-0.585 0.569,-0.841 0.997,-0.594 1.579,0.557 1.403,-0.03 -0.099,-0.123 -0.112,-0.289 -0.297,-0.371 -0.775,-0.152 -1.439,-0.505 -1.622,-0.882 -0.144,-0.365 -0.098,-0.896 0.18,-1.327 0.093,-0.108 0.189,-0.165 0.336,-0.223 0.829,-0.122 1.604,1.462 1.696,1.107 -0.424,-1.251 -0.596,-2.662 0.543,-3.13 0.234,-0.062 0.689,-0.082 1.004,0.255 0.523,0.64 -0.072,2.354 0,3.611 0.076,1.399 0.847,3.085 1.474,4.125 0.52,0.775 1.129,1.537 1.915,2.284 0.701,0.545 1.783,1.243 2.511,1.396 0.093,0.221 0.271,0.619 0.36,0.888 0.133,0.139 0.232,0.233 0.455,0.392 0.391,0.62 0.953,1.376 2.181,3.021 l 0.146,0.367 c -1.188,0.221 -2.061,-0.035 -2.999,-0.392 m -5.379,-15.028 c 0.001,-0.205 0.375,-0.246 0.535,-0.243 0.523,0.028 0.55,0.188 0.864,0.392 0.591,0.733 -0.661,1.456 -1.162,3.698 -0.052,0.164 -0.101,0.312 -0.124,0.312 l -0.114,-0.253 c -0.34,-1.356 -0.041,-2.503 10e-4,-3.906 m 5.226,8.814 c -0.374,-0.875 0.612,-1.927 0.889,-2.479 0.067,-0.193 -0.002,-0.149 -0.074,-0.072 -0.344,0.368 -0.667,0.791 -1.015,1.16 l -0.152,-0.068 c 0,-0.222 0,-0.493 0.058,-0.652 0.324,-0.982 0.542,-1.506 1.333,-2.214 0.082,-0.041 -0.011,-0.186 -0.154,-0.141 -0.371,0.123 -0.925,0.438 -1.295,0.56 0,-0.122 0.075,-0.458 0.148,-0.631 0.221,-0.322 0.411,-0.648 0.706,-0.888 l 0.221,0.003 c 0,0.145 0.032,0.312 0.14,0.469 0.264,0.375 0.634,0.855 0.739,0.906 0.21,0.1 0.422,0.2 0.592,0.317 -0.665,1.438 -1.152,2.96 0.661,4.273 0.355,0.258 0.797,0.437 1.157,0.49 0.221,0.427 1.365,0.697 1.645,0.321 0.394,-0.074 0.785,-0.147 1.179,-0.22 1.264,-0.548 1.828,-1.709 1.843,-3.095 0.83,-0.032 1.045,-0.401 1.473,-0.812 l 0.148,0.222 c 0.345,0.625 0.007,1.623 -0.293,2.061 -0.222,-0.218 -0.441,-0.441 -0.664,-0.661 h -0.074 c 0.195,0.69 0.643,1.35 0.369,2.135 l -0.149,-0.074 c -0.121,-0.375 -0.267,-0.556 -0.663,-0.664 v 0.074 c 0.458,0.769 0.957,2.204 0,2.948 h -0.072 c -0.015,-0.75 -0.307,-1.291 -0.738,-1.624 l -0.149,0.15 c 0.205,0.468 0.77,1.686 0.417,2.292 -0.59,-0.443 -1.268,-1.104 -1.859,-1.547 l 0.262,0.584 c 0.395,0.598 0.763,1.382 -0.113,2.674 -0.484,-1.447 -2.405,-2.505 -2.773,-3.337 -0.081,1.439 1.773,2.455 0.311,4.492 l -0.149,-0.075 c -0.376,-1.267 -1.442,-1.918 -2.061,-2.947 -0.44,-0.726 -0.645,-1.246 -0.389,-2.416 -0.135,-0.01 -0.225,0.107 -0.274,0.129 -0.15,0.248 -0.337,0.64 -0.484,0.888 -0.217,-0.135 -0.203,-0.283 -0.253,-0.442 -0.213,-0.901 0.394,-1.247 0.61,-2.037 l 0.052,-0.249 c -0.027,0 -0.038,-0.229 -0.221,0.217 -0.174,0.335 -0.203,0.465 -0.521,0.643 l 0.004,-0.418 c 0.167,-0.323 0.284,-0.629 0.305,-1.139 l -0.129,0.044 -0.11,0.23 c -0.074,0.171 -0.137,0.25 -0.212,0.423 -0.095,0.226 -0.192,0.254 -0.222,0.197 m 4.944,-6.75 c -0.15,0.22 -0.298,0.442 -0.445,0.661 -0.17,-0.022 -0.343,-0.047 -0.516,-0.072 -0.623,-0.25 -1.119,-0.961 -0.921,-1.61 l 0.441,0.062 c 0.701,0.285 1.154,0.763 1.154,0.763 0.308,-0.065 0.346,0.06 0.287,0.196 m 1.914,0.957 v -0.368 l 0.074,-0.146 c 0.415,-0.161 1.166,-0.285 1.621,-0.222 0.338,0.049 0.578,0.022 0.739,0.156 l -0.013,0.027 c -0.402,0.963 -2.094,1.314 -2.421,0.553 m -5.687,-0.819 c -0.511,-1.013 0.354,-2.313 -0.061,-3.638 0.684,0.257 1.358,0.935 1.424,1.005 0.021,-0.624 0.3,-1.534 0.554,-1.915 0.145,0.125 0.318,0.309 0.451,0.577 0.175,0.271 0.344,0.541 0.519,0.812 0.118,-0.257 0.188,-0.708 0.306,-0.964 0.202,-0.431 0.488,-0.851 0.687,-1.284 0.198,0.513 0.456,1.25 0.652,1.769 0.28,-0.099 0.079,-0.208 0.22,-0.429 0.123,-0.59 0.318,-0.861 0.466,-1.254 0.266,0.455 0.479,1.38 0.615,2.086 h 0.073 l 0.148,-0.073 c 0.196,-0.452 0.381,-0.738 0.578,-1.006 0.698,0.723 0.441,1.956 0.612,1.988 0.271,-0.011 0.602,-0.625 0.823,-0.821 0.393,0.431 0.169,1.438 0.406,1.671 l 0.231,-0.138 c 0.495,-0.436 0.93,-0.739 1.586,-0.441 -0.135,1.273 -0.259,3.391 -0.922,3.682 -0.121,0.123 -0.49,-0.196 -0.664,-0.22 0.732,1.307 0.219,2.836 -1.251,2.873 -0.222,-0.123 -0.443,-0.245 -0.663,-0.367 -0.123,-0.048 -0.199,-0.027 -0.148,0.147 0.953,1.608 -0.554,3.322 -1.991,3.39 l -0.147,-0.073 0.076,-0.443 c 1.237,-0.068 2.145,-1.542 1.621,-2.874 h -0.075 c -0.218,0.609 -0.391,0.905 -1.254,0.886 -0.267,-0.045 -0.524,-0.315 -0.662,-0.517 0.07,-1.031 0.77,-0.905 1.324,-1.401 v -1.694 c 0.907,0.646 2.151,0.195 2.62,-0.491 0.065,-0.181 0.101,-0.319 0.123,-0.423 0.19,-0.362 0.744,-0.371 0.753,-1.014 -0.308,0.624 -1.168,0.43 -1.906,0.447 -0.667,0.016 -1.413,0.094 -1.482,-0.047 -0.049,-0.223 -0.09,-0.583 -0.14,-0.805 l -0.158,0.279 c -0.057,1.091 -0.076,2.093 -0.174,3.151 -0.519,-0.234 -1.101,-0.43 -1.847,-0.286 v -0.074 c 0.343,-1.105 0.688,-2.212 1.031,-3.315 -0.012,-0.148 -0.086,-0.172 -0.146,-0.073 -0.124,0.336 -0.176,0.576 -0.44,0.66 h -0.075 c -0.471,-0.024 -0.759,-0.574 -1.155,-0.773 -0.405,-0.099 -0.688,-0.111 -1.107,-0.161 -0.195,-0.123 -0.364,-0.588 -0.539,-0.859 -0.092,-0.146 -0.181,-0.052 -0.06,0.552 0.181,0.464 0.638,0.714 0.638,0.714 0,0 0.017,0.673 0.232,1.043 0.378,0.643 1.102,0.668 1.695,1.106 -0.145,0.423 -0.501,1.035 -0.37,1.474 0.325,0.683 0.938,1.021 0.812,1.989 -0.285,0.135 -0.426,0.204 -0.885,0.222 -0.547,-0.196 -0.947,-0.377 -1.179,-0.886 -0.274,-0.442 -0.076,-1.042 0.149,-1.4 l -0.149,-0.145 c -0.293,0.048 -0.59,0.099 -0.886,0.145 -0.521,-0.107 -0.945,-0.639 -1.092,-1.378 l -0.082,-0.071 0.115,-0.256 c -0.035,-0.268 0.177,-0.368 0.17,-0.659 m 53.47000038,15.229 c 0,0 -0.104,-0.642 -0.409,-1.099 0.524,0.271 0.359,-1.213 0.178,-1.572 1.044,-0.36 -0.124,-2.355 -0.90599998,-2.957 0.228,-0.179 0.65899998,0.125 0.50499998,-0.159 -0.48599998,-0.618 -0.84599998,-1.29 -1.32299998,-1.605 -0.353,-0.228 -1.157,-0.091 -1.157,-0.091 0,0 -0.698,-0.607 -1.306,-0.542 -1.359,0.146 -3.539,1.029 -5.4230004,1.424 -2.657,0.557 -5.768,-1.118 -6.297,-2.206 2.483,0.296 6.3860004,1.171 8.9480004,0.292 1.183,-0.405 2.091,-1.46 3.242,-1.767 0.542,-0.026 1.078,-0.05 1.623,-0.076 2.24699998,-0.5 2.92899998,-1.849 3.537,-4.052 -0.069,-0.44 -0.16700002,-0.232 -0.22100002,-0.073 -0.916,2.508 -3.64599998,0.879 -5.90799998,2.126 -0.453,0.511 -0.331,-0.061 -0.367,-0.22 -0.992,-3.408 3.763,-1.932 2.811,-5.886 -0.024,0 -0.097,-0.06 -0.122,0.172 -0.336,1.71 -1.998,1.029 -3.339,1.72 -1.089,0.561 -1.092,1.376 -1.312,1.433 -0.675,-1.285 -0.491,-2.451 -0.015,-3.471 0.169,-0.393 -0.228,-0.286 -0.747,0.046 -0.741,0.503 -1.355,1.117 -1.229,2.409 -0.063,0 -0.253,-0.027 -0.526,-0.245 -0.9420004,-0.973 -0.9260004,-1.604 -1.1040004,-2.139 l -0.222,0.149 c -0.542,0.231 -1.031,0.933 -1.19,1.535 -0.782,-0.276 -0.85,-1.088 -1.906,-1.167 v 0.148 c -0.15,0.251 -0.14,0.484 -0.072,0.807 0.06,0.16 -0.113,0.123 -0.297,0 -0.583,-0.266 -1.64,-0.742 -2.208,-0.515 0.023,0.442 -0.099,0.788 0.306,1.398 -1.251,-0.049 -2.125,-0.916 -3.328,-1.029 l -0.072,0.207 c -0.076,0.369 -0.076,0.675 -0.15,1.043 -0.624,-0.01 -2.034,-0.789 -2.563,-1.136 3.667,0.479 5.88,-4.13 8.308,-3.134 v -0.072 c -0.497,-0.834 -1.33,-1.456 -2.799,-1.326 -1.04,0.091 -2.019,0.938 -3.02,1.252 -2.002,0.628 -3.849,-0.563 -5.969,-0.146 -0.577,0.114 -0.84,0.442 -1.472,0.367 0.087,-0.745 -0.185,-1.787 -0.665,-2.208 l -0.147,0.07 c -0.926,2.117 -6.271,2.198 -9.958,3.354 -2.158,0.677 -4.248,2.375 -3.23,5.044 1.06,2.787 5.607,3.16 9.283,2.432 5.557,-1.096 11.574,-1.608 17.093,-3.02 2.75,-0.703 5.9520004,-0.171 7.2220004,1.328 0.006,2.69 -4.4610004,2.415 -6.7800004,1.841 -2.861,-0.705 -8.516,-1.61 -11.641,-0.735 -4.304,1.198 -12.592,2.199 -17.461,0.884 -0.171,-0.624 -0.366,-1.373 -0.221,-2.064 0.886,-0.368 1.458,-3.311 1.104,-4.348 -0.742,-0.177 -1.077,0.032 -1.768,0.147 -0.245,-0.439 -0.491,-0.884 -0.736,-1.326 h -0.075 c -0.111,0.32 -0.1,0.339 -0.44,0.442 -0.127,-0.696 -0.456,-1.437 -0.887,-1.843 l -0.146,0.073 c -0.077,0.172 -0.149,0.346 -0.222,0.518 h -0.294 c -0.082,-0.279 -0.339,-1.305 -0.443,-1.401 l -0.218,-0.074 c -0.271,0.321 -0.541,0.639 -0.812,0.957 -0.266,-0.312 -0.312,-0.636 -0.733,-0.81 -0.346,0.465 -0.691,0.935 -1.035,1.4 l -0.295,-0.074 -0.588,-0.883 -0.147,0.072 c -0.196,0.492 -0.394,0.982 -0.589,1.473 -0.546,-0.088 -0.963,-0.363 -1.547,-0.219 0.084,1.646 -0.044,3.022 -0.147,4.568 -1.241,0.479 -1.507,1.366 -1.392,2.669 0.01,0.114 0.533,-0.306 0.539,-0.052 0.005,0.276 -0.508,1.225 -0.485,1.359 0,0.918 0.278,0.835 0.355,1.226 0.057,0.278 -0.033,0.487 0.027,0.691 0.167,0.571 0.336,0.801 0.366,1.326 -1.558,-0.128 -5.143,-3.706 -4.787,-5.602 0.235,-1.271 1.085,-2.302 1.398,-3.388 0.536,-1.859 -0.819,-3.605 -2.211,-3.461 0.147,0.647 0.519,0.866 0.371,1.694 h -0.074 l -0.147,-0.074 c -0.393,-1.168 -1.14,-2.253 -2.798,-2.209 0.43,0.573 0.793,0.967 0.81,1.99 -0.394,0.459 -0.655,0.902 -0.664,1.768 -0.034,0.314 -0.126,0.152 -0.22,0.104 -0.706,-0.578 -1.233,-0.993 -2.477,-0.717 -0.499,0.183 -1.017,0.791 -0.617,0.688 0.804,0.088 1.079,0.336 1.473,0.81 -0.155,0.564 0.045,1.138 0.302,1.496 0.201,0.286 0.488,0.404 0.287,0.493 -0.4,0.301 -0.637,0.727 -0.736,1.326 h -1.476 v 0.073 c 0.518,1.241 1.329,1.569 2.234,1.584 0.442,0.006 1.036,0.274 1.363,-0.14 0.174,-0.041 0.242,0.46 0.292,0.561 -0.817,0.039 -1.672,0.626 -1.826,1.313 0.613,0.219 1.127,0.427 1.739,0.646 0.279,0.016 0.309,0.134 0.103,0.238 -0.294,0.222 -0.586,0.439 -0.884,0.664 l 0.148,0.22 c 0.64,0.207 1.073,0.499 1.841,0.663 0,0.098 0.031,0.122 -0.101,0.267 -0.245,0.169 -0.391,0.372 -0.635,0.542 0.432,0.492 1.12,0.524 1.916,0.663 0.06,-0.007 0.089,0.174 0,0.37 -0.246,0.176 -0.441,0.545 -0.515,0.885 0.87,0.021 1.615,0.085 2.355,-0.073 0,0.099 0.09,0.197 0,0.396 -0.163,0.33 -0.306,0.449 -0.515,0.707 l 0.076,0.15 c 0.771,0.029 1.477,0.044 2.135,-0.075 0,0.271 0.089,0.57 0,0.81 -0.195,0.442 -0.382,0.943 -0.382,0.943 0,0 1.022,0.251 2.403,-0.958 0.244,0.216 0.662,0.396 1.073,0.457 -0.094,0.281 0,0.154 -0.219,0.295 -0.562,0.329 -1.941,0.4 -2.58,0.369 -0.887,-0.049 -1.726,-0.016 -2.611,-0.064 -1.085,-0.333 -1.814,-3.456 -4.441,-3.538 -0.387,0.017 -1.316,0.359 -1.421,1.314 l 0.219,-0.008 c 0.483,-0.232 0.691,-0.128 1.104,0.084 0.049,0.294 0.099,0.587 0.147,0.884 -1.713,-0.147 -3.132,-0.201 -3.314,1.545 0.788,-0.416 1.305,-0.53 1.728,-0.37 0.1,0.577 0.426,0.81 0.776,1.258 l 0.094,0.217 c -1.306,0.416 -1.383,2.025 -0.831,2.727 0.075,0.101 0.243,-0.132 0.274,-0.304 0.215,-1.021 0.633,-0.788 0.863,-1.138 0.573,0.479 1.007,0.763 1.883,0.484 0.543,-0.173 0.856,-0.534 1.254,-0.601 0.051,0.135 0.057,0.646 0.465,1.014 0.103,0.701 -0.233,1.459 -0.109,1.376 0.43,-0.292 1.232,-0.602 1.567,-1.07 0.671,-0.083 1.112,-0.849 0.991,-1.562 h 0.715 c 0.028,0.074 -0.187,0.152 -0.314,0.391 -0.221,0.54 -0.441,0.942 -0.663,1.482 l 0.075,0.075 c 1.025,0.009 1.55,-0.326 2.374,-0.879 -0.07,0.382 -0.461,0.822 -0.68,1.023 -0.152,0.197 -0.014,0.206 0.584,0.206 1.258,-0.017 1.641,-0.391 2.139,-0.939 h 0.223 v 0.148 l -0.073,1.029 c 1.011,-0.204 1.91,-0.438 2.313,-1.506 0.43,0.649 0.16,1.087 0.411,1.288 l 0.074,0.072 c 0.778,-0.241 1.266,-0.739 1.694,-1.326 l 0.22,0.147 c 0.049,0.295 0.098,0.587 0.148,0.881 0.398,-0.074 1.622,-0.485 2.066,-1.632 0.968,-0.239 2.064,-1.309 2.311,-1.649 0.381,-0.854 -0.438,-1.581 -0.724,-2.583 0.613,0.099 1.558,0.316 2.136,0.363 1.272,0 2.363,-0.15 3.734,-0.575 0,0.025 0.727,-0.27 0.938,-0.331 2.667,-1.038 3.681,-1.836 5.234,-2.581 0.906,-0.34 1.813,-0.687 2.723,-1.028 l 0.176,0.014 c -0.285,1.277 -1.021,1.841 0.19,3.522 0.327,0.443 1.061,0.842 1.046,1.106 -1.313,1.007 -4.753,1.247 -6.276,0.987 -0.588,-0.542 -1.049,-1.002 -1.639,-1.542 -0.254,-0.101 -0.487,0.014 -0.576,-0.098 -0.488,-0.441 -1.745,0.131 -1.885,0.23 -0.239,0.122 -0.335,0.35 -0.468,0.567 0.441,0.066 1.23,0.129 1.443,0.441 0.052,0.16 -0.031,0.281 -0.187,0.289 -0.576,0.031 -1.272,0.05 -1.724,0.354 -1.001,0.673 -1.476,1.764 -1.077,2.16 0.465,-0.443 0.641,-0.681 1.624,-0.667 0.204,0.407 0.636,0.395 0.956,0.667 -1.309,1.394 -0.814,2.297 -0.34,3.038 l 0.193,-0.018 c 0.28,-0.375 0.393,-1.028 0.812,-1.254 0.927,-0.501 1.127,0.155 2.357,-0.958 0.11,-0.165 0.207,-0.309 0.294,0 0.132,0.964 0.631,0.605 0.442,2.357 -0.029,0.11 -0.085,0.179 0.157,0.072 0.241,-0.11 0.799,-0.268 0.799,-0.29 0.605,-0.227 1.369,-1.196 1.402,-1.991 0.008,-0.51 0.161,-0.265 0.292,0 0.293,0.442 0.562,0.771 0.958,1.105 l 0.517,-0.443 c 0.484,-0.503 0.827,-0.835 1.032,-1.692 0.093,-0.155 -0.021,-0.379 0.369,0.074 0.356,0.417 0.56,1.021 0.661,1.692 0.046,0.248 0.147,0.122 0.443,0 0.529,-0.421 1.155,-0.943 1.471,-1.692 0.046,0 0.07,-0.309 0.151,0 0.098,0.393 0.032,0.76 0.132,1.154 1.073,-0.236 1.667,-1.041 2.033,-1.702 0.113,-0.251 0.252,-0.238 0.412,-0.12 0.176,0.315 0.645,0.612 0.913,0.885 0.05,0.177 0.114,0.22 0.221,0.074 0.189,-0.38 1.14,-1.453 1.088,-2.315 0.812,-0.542 0.696,-1.331 0.503,-1.737 -0.524,-1.112 -2.766,-1.816 -2.727,-3.17 -0.121,-0.88 0.583,0.642 0.956,0.96 0.842,0.717 2.477,1.464 3.611,1.769 3.011,0.804 10.6080004,-1.566 13.3500004,-0.273 0.73,0.346 0.978,1.082 0.868,2.042 -0.073,0.17 -0.146,0.343 -0.218,0.515 -1.271,0.927 -1.834,-0.296 -3.633,-0.335 -1.021,-0.276 -1.3930004,0.831 -1.6690004,1.661 -0.071,0.466 0.103,0.521 0.219,0.445 0.268,-0.221 0.5900004,-0.719 1.0270004,-0.731 0.094,0.29 0.385,0.575 0.75,0.745 -0.448,0.569 -0.59,1.564 -0.086,2.344 0.15,0.089 0.216,-0.016 0.222,-0.149 0.239,-1.038 1.149,-1.2 1.149,-1.2 0,0 0.319,0.495 0.767,0.538 0.532,0.05 0.729,-0.36 1.177,-0.295 0.137,0.965 0.688,1.453 1.397,1.856 0.275,0.17 0.551,-0.012 0.665,0.054 -0.108,-0.452 -0.358,-0.872 -0.147,-1.398 0.147,-0.446 0.302,-0.181 0.588,-0.441 0.195,-0.514 0.393,-1.03 0.588,-1.544 0.913,0.376 1.43399998,0.273 1.69399998,1.325 0.125,-0.099 0.496,-0.579 0.593,-1.098 0.26,-0.984 -0.173,-1.361 -0.173,-1.361"
     fill="#3d1e0b"
     id="path203" />
  <path
     d="m -50.705463,-39.469165 c 0,0 1.324,-0.093 1.51,-1.623 0.184,-1.527 -0.11,-2.08 0.092,-2.411 0.108,-0.18 -0.036,-0.313 -0.179,-0.447 l -0.337,-0.253 c -0.13,-0.019 -0.39,0.118 -0.655,0.191 -0.259,0.071 -0.523,0.078 -0.595,0.16 -0.147,0.163 -0.331,0.994 -0.258,1.583 0.075,0.587 0.405,1.677 0.424,2.118 0.018,0.444 -0.186,0.682 -0.002,0.682"
     fill="#3d1e0b"
     id="path205" />
  <path
     d="m -34.482463,-30.243165 c 0,0 0.363,0.971 0.255,1.158 -0.111,0.188 0.729,-0.266 0.829,-0.96 -0.322,-0.484 -1.084,-0.198 -1.084,-0.198 m -4.295,0.849 c 0,0 0.322,-0.672 0.809,-0.872 0.483,-0.2 -0.521,-0.145 -0.607,-0.97 0.01,-0.354 -0.643,0.86 -0.202,1.842 m 1.438,-6.331 c 0,0 -0.752,-0.308 -1.726,0.325 0.827,0.205 1.18,0.59 1.18,0.59 0,0 0.339,-0.843 0.546,-0.915 m -2.344,1.972 c 0,0 -1.03,0.428 -1.149,1.342 0.58,-0.486 0.783,-0.546 1.092,-0.442 -0.208,-0.472 0.057,-0.9 0.057,-0.9 m -20.324,4.018 c 0,0 0.726,-0.201 0.992,-0.824 -0.351,-0.639 -1.083,-0.483 -1.083,-0.483 0,0 0.333,0.581 0.091,1.307 m -4.015,-2.91 c 0,0 -1.096,0.583 -0.862,1.857 0.365,-0.727 1,-1.001 1,-1.001 0,0 -0.264,-0.487 -0.138,-0.856 m -2.276,-1.897 c 0,0 0.875,-0.453 1.422,-0.085 0.063,-0.589 0.262,-0.791 0.262,-0.791 0,0 -1.378,0.013 -1.684,0.876 m 1.938,-2.402 c 0,0 0.739,-0.19 1.095,0.202 0.052,-0.415 0.421,-0.698 0.421,-0.698 0,0 -0.958,-0.4 -1.516,0.496 m 0.457,-13.134 c 0,0 -0.942,-0.59 -1.849,-0.028 0.551,0.103 1.153,0.695 1.153,0.695 0,0 0.03,-0.522 0.696,-0.667 m 1.973,-1.934 c 0,0 0.572,-0.249 0.849,0.02 -0.146,-0.792 -0.515,-1.381 -1.402,-1.534 0.583,0.724 0.553,1.514 0.553,1.514 m 2.231,0.659 c 0,0 0.837,0.009 1.038,0.198 -0.047,-0.569 -0.315,-1.333 -1.268,-1.684 0.419,0.598 0.342,1.274 0.23,1.486 m 49.27,19.123 c 0,0 0.4630004,-0.599 0.9170004,-0.792 0.014,-0.573 0.182,-0.8 0.182,-0.8 0,0 -0.8840004,0.084 -1.0990004,1.592 m 1.7650004,1.99 c 0,0 0.419,-0.892 1.093,-0.917 -0.234,-0.54 -0.478,-0.94 -0.569,-0.897 -0.092,0.04 -0.882,0.831 -0.524,1.814 m 4.979,1.161 c 0,0 -0.656,-0.619 -0.17,-1.461 -0.447,-0.474 -1.091,-0.235 -1.131,-0.105 -0.043,0.13 0.393,1.233 1.301,1.566 m 2.485,-3.236 c 0,0 0.59099998,0.42 0.68399998,0.83 0.329,-0.881 0.103,-2.013 -0.118,-1.935 -0.224,0.083 -0.71099998,0.489 -0.56599998,1.105 m -63.4080004,-13.425 c 0,0 -0.66,0.495 -1.198,0.33 0.95,0.907 1.67,0.948 1.67,0.948 0,0 0.187,-0.721 -0.472,-1.278 m 14.107,2.09 c 0,0 -0.462,0.239 -0.351,1.236 0.111,0.995 0.517,1.988 0.536,2.375 0.017,0.386 0.424,-0.222 0.68,-0.738 0.256,-0.515 -0.092,-2.394 0.147,-2.781 0.24,-0.387 -0.166,-0.587 -0.368,-0.184 -0.203,0.406 -0.277,0.884 -0.203,1.786 0.073,0.903 -0.24,0.368 -0.315,-0.332 -0.073,-0.699 0.149,-1.013 0.206,-1.271 0.053,-0.256 -0.205,-0.184 -0.332,-0.091"
     fill="#009cd5"
     id="path207" />
  <path
     d="m -23.529463,-35.862165 c 0,0 0.604,-0.066 0.679,0.441 0.076,0.512 -0.047,0.481 -0.341,0.625 -0.29,0.14 -0.311,0.396 0.125,0.312 0.432,-0.086 0.641,-0.208 0.623,-0.661 -0.021,-0.452 -0.029,-0.916 -0.643,-1.009 -0.612,-0.094 -0.656,0.292 -0.443,0.292 m -28.511,-7.921 c 0,0 0.621,0.645 0.937,0.583 0.31,-0.062 -0.021,0.854 -0.021,0.854 0,0 -0.815,-0.437 -0.916,-1.437 m 3.185,1.479 c 0,0 0.75,0.062 1.125,-0.687 0.375,-0.75 -0.564,0.478 -0.917,0.063 -0.355,-0.418 -0.208,0.522 -0.208,0.624"
     fill="#966a3d"
     id="path209" />
  <path
     fill="#ffd430"
     d="m -51.169463,-24.149165 -0.087,29.7870007 -3.898,4.084 0.008,-30.4810007 z"
     id="path211" />
  <path
     d="m -55.091463,9.6618357 h -0.371 l 0.007,-30.3730007 0.126,-0.278 3.853,-3.374 0.398,-0.058 a 0.372,0.372 0 0 1 0.215,0.337 l -0.086,29.6810007 -0.099,0.246 -3.775,4.068 c -0.105,0.1129993 -0.264,0.1449993 -0.404,0.094 -0.145,-0.055 -0.235,-0.1899999 -0.235,-0.3439999 h 0.371 l -0.272,-0.253 3.677,-3.963 0.086,-28.7150001 -3.114,2.727 -0.007,30.2040001 h -0.37 l -0.272,-0.253 z"
     fill="#785342"
     id="path213" />
  <path
     d="m -14.726463,4.8208357 0.111,-29.3570007 3.814,2.875 0.038,31.2440007 -44.39,0.138 3.897,-4.08 c 0,0 1.644,1.116 4.196,0.925 3.99,-0.31 8.595,-4.408 13.915,-0.31 2.558,-1.64 5.321,-2.561 7.778,-1.843 2.456,0.716 5.116,1.942 7.165,1.737 2.043,-0.202 3.476,-1.329 3.476,-1.329"
     fill="#e29625"
     id="path215" />
  <path
     d="m -14.777463,4.7728357 -0.368,-0.002 0.111,-29.2460007 c 0,-0.14 0.08,-0.267 0.205,-0.329 l 0.386,0.037 3.8,2.865 0.147,0.295 0.038,31.1290007 c 0,0.205 -0.161,0.371 -0.366,0.371 l -44.264,0.1369993 c -0.15,0 -0.283,-0.082999 -0.342,-0.2229993 -0.058,-0.135 -0.029,-0.295 0.072,-0.399 l 3.884,-4.069 c 0.126,-0.132 0.328,-0.152 0.474,-0.049 l 0.05,0.031 c 0.258,0.159 1.5,0.843 3.33,0.843 0.184,0 0.375,-0.008 0.569,-0.021 1.262,-0.096 2.645,-0.608 4.126,-1.113 1.486,-0.504 3.07,-0.992 4.77,-0.996 1.669,-0.005 3.436,0.488 5.236,1.879 l -0.222,0.29 -0.2,-0.308 c 1.99,-1.272 4.117,-2.14 6.186,-2.142 0.633,0 1.259,0.084 1.872,0.26 2.292,0.671 4.725,1.751 6.562,1.741 0.151,0 0.297,-0.01 0.438,-0.021 0.963,-0.094 1.791,-0.407 2.372,-0.699 0.293,-0.146 0.523,-0.285 0.679,-0.387 l 0.174,-0.121 0.055,-0.039 0.226,0.286 -0.368,-0.002 0.368,0.002 0.228,0.294 c -0.032,0.021 -1.505,1.182 -3.663,1.397 -0.168,0.021 -0.337,0.026 -0.511,0.026 -2.099,-0.007 -4.536,-1.126 -6.77,-1.767 -0.542,-0.16 -1.095,-0.23 -1.667,-0.23 -1.858,-0.004 -3.872,0.794 -5.787,2.02 l -0.424,-0.021 c -1.692,-1.293 -3.265,-1.724 -4.789,-1.726 -1.551,0 -3.062,0.463 -4.53,0.962 -1.471,0.495 -2.896,1.037 -4.307,1.146 -0.215,0.018 -0.426,0.026 -0.627,0.026 -2.306,0 -3.756,-0.982 -3.792,-1.002 l 0.208,-0.311 0.268,0.256 -3.285,3.442 43.028,-0.138 -0.038,-30.5760007 -3.062,-2.312 -0.109,28.5100007 -0.143,0.292 z"
     fill="#785342"
     id="path217" />
  <path
     d="m -12.887463,-23.254165 -0.21,0.305 -1.946,-1.325 0.207,-0.308 0.242,0.28 c -0.037,0.03 -1.192,1.027 -3.146,1.03 l -0.234,-0.005 c -1.097,-0.054 -2.57,-0.675 -4.184,-1.285 -1.602,-0.617 -3.317,-1.223 -4.71,-1.29 a 9.6022,9.6022 0 0 0 -0.408,-0.011 c -1.813,10e-4 -3.125,0.596 -4.009,1.247 -0.443,0.324 -0.776,0.666 -1,0.946 -0.222,0.273 -0.337,0.526 -0.335,0.538 l -0.208,0.969 -0.475,-0.868 -0.009,-0.013 c -0.121,-0.194 -1.293,-2.06 -4.244,-2.183 l -0.14,-0.002 c -0.958,-0.004 -2.468,0.397 -3.966,0.856 -1.505,0.459 -3.008,0.968 -4.083,1.168 -0.295,0.055 -0.6,0.079 -0.905,0.079 -2.063,-0.007 -4.211,-1.036 -4.236,-1.044 l 0.156,-0.333 0.235,0.286 -1.897,1.564 h -3.686 v 33.402 h 18.81 l -0.069,0.43 -0.007,0.062 -0.01,0.222 c 0,0.418 0.093,1.212 0.67,1.925 0.577,0.711 1.653,1.396998 3.781,1.560998 l 0.233,0.007 c 0.486,0.003 1.504,-0.083 2.344,-0.559998 0.839,-0.484 1.541,-1.286 1.556,-2.953 l -0.01,-0.286 -0.019,-0.387 h 19.3550004 v -33.622 l -3.5610004,-0.035 -0.092,-0.062 0.21,-0.305 0.004,-0.37 4.1810004,0.043 v 35.087 H -28.408463 v -0.369 l 0.369,-0.019 0.007,0.321 c 0.012,1.896 -0.897,3.034 -1.932,3.599998 -1.024,0.572 -2.146,0.648 -2.705,0.65 l -0.29,-0.012 c -2.258,-0.162 -3.576,-0.93 -4.297,-1.828998 -0.722,-0.896 -0.833,-1.87 -0.833,-2.389 0,-0.237 0.023,-0.387 0.026,-0.401 l 0.365,0.06 v 0.369 h -19.116 v -34.877 h 4.157 l 1.873,-1.548 0.212,0.1 c 0,0 0.124,0.058 0.349,0.149 0.667,0.277 2.21,0.827 3.574,0.824 0.269,0 0.525,-0.021 0.77,-0.065 0.979,-0.18 2.487,-0.686 4.002,-1.148 1.519,-0.46 3.042,-0.884 4.18,-0.888 l 0.169,0.002 c 3.508,0.145 4.847,2.526 4.868,2.58 l -0.323,0.177 -0.359,-0.077 c 0.059,-0.248 0.213,-0.5 0.477,-0.843 0.786,-0.994 2.617,-2.472 5.584,-2.472 0.146,0 0.294,0.004 0.444,0.011 1.568,0.079 3.326,0.721 4.941,1.336 1.607,0.619 3.101,1.211 3.95,1.236 l 0.206,0.005 c 0.845,0 1.518,-0.219 1.977,-0.435 0.231,-0.107 0.407,-0.217 0.522,-0.294 l 0.127,-0.093 0.033,-0.028 0.214,-0.187 2.187,1.485 -0.207,0.309 0.004,-0.37 z"
     fill="#3d1e0b"
     id="path219" />
  <path
     fill="#785342"
     d="m -14.394463,4.6228357 3.866,4.687 -0.57,0.471 -3.867,-4.688"
     id="path221" />
  <path
     d="m -32.855463,6.0148357 c 0,0 -3.084,2.728 -3.205,3.175 -0.118,0.44 0.445,0.712 0.445,0.712 0,0 -2.163,2.5749993 1.511,4.0589993 3.678,1.483998 5.407,-2.763 3.797,-5.0389993 -2.074,-2.938 -2.548,-2.907 -2.548,-2.907"
     fill="#603826"
     id="path223" />
  <path
     d="m -31.098463,9.6808357 0.264,0.4019993 c 0.113,0.204 0.333,0.926 0.333,1.195 0,1.096 -0.938,1.911 -2.191,1.911 -1.254,0 -2.193,-0.937 -2.193,-2.03 0,-0.398 0.191,-1.2459993 0.442,-1.3679993 0,0 -0.577,-1.51 1.417,-1.767 1.171,-0.149 2.171,1.202 1.928,1.657"
     fill="#835221"
     id="path225" />
  <path
     d="m -50.042463,-46.174165 c 0.744,-0.027 1.1,0 1.425,0.319 0.107,0.156 0.085,0.323 -0.099,0.416 -0.405,-0.043 -0.498,0.296 -0.812,0.484 l -0.201,-0.264 c -0.147,-0.27 -0.312,-0.465 -0.46,-0.736 -0.056,-0.198 -0.081,-0.207 0.147,-0.219"
     fill="#ffd300"
     id="path227" />
  <path
     d="m -50.092463,-46.086165 c 0,0 0.404,0.385 0.511,0.641 0.105,0.254 0.105,-0.397 0.328,-0.245 0.219,0.152 0.802,0.372 0.649,-0.104 -0.153,-0.479 -1.488,-0.419 -1.488,-0.292"
     fill="#ffe280"
     id="path229" />
  <path
     d="m -51.848463,-20.357165 -0.125,-0.53 c 0,0 -0.036,-0.653 -0.126,-0.839 -0.368,-0.107 -1.37,1.021 -1.514,1.242 -0.145,0.22 -0.127,0.234 -0.127,0.234 l -0.129,0.839 c -0.429,8.652 0.237,18.7900006 -0.71,27.2550007 l -0.128,0.123 -0.108,-0.021 -0.018,-0.981 c 0.067,-6.4870001 -0.08,-12.975 0.072,-19.4660007 l 0.054,-4.811 c 0,0 0.182,-3.302 0.219,-3.446 0.036,-0.148 1.146,-1.133 1.146,-1.133 l 1.712,-1.274 c 0.074,0.018 0.127,3.08 -0.017,3.08 -0.145,0 -0.201,-0.272 -0.201,-0.272"
     fill="#ffe28a"
     id="path231" />
  <path
     d="m -43.248463,-13.655165 c -0.488,-0.346 -0.955,-0.773 -1.221,-1.04 v -0.913 c 0,0 0.794,0 1.199,-0.104 0.41,-0.098 0.672,-0.426 0.146,-0.426 -0.528,0 -1.324,-0.017 -1.324,-0.017 v -1.57 c 0,-0.504 -0.205,-0.605 -0.385,-0.605 -0.185,0 -0.449,0.103 -0.449,0.751 v 1.424 h -1.972 c 0,0 -0.608,1.097 -0.71,1.278 -0.103,0.182 0.386,-0.12 0.733,-0.262 0.343,-0.146 1.686,-0.388 1.949,-0.388 0,0 0.11,0.951 -0.609,1.545 -0.712,0.591 -1.181,1.198 -3.272,1.707 -0.208,0.05 0.12,0.489 0.832,0.59 0.711,0.1 1.614,-0.306 2.786,-1.871 0.244,-0.326 0.308,-0.184 0.308,0.164 0,0.344 0.102,2.316 -0.082,2.745 -0.186,0.426 0.123,0.588 0.364,0.14 0.245,-0.446 0.386,-1.361 0.386,-3.455 0,-0.224 0.468,0.324 1.039,0.55 0.566,0.225 0.771,0.1 0.282,-0.243 m 4.038,0.104 c 0.433,-0.526 0.729,-1.035 0.729,-1.035 0,0 2.499,0.015 2.714,-0.076 0.177,-0.16 0.436,-0.85 0.346,-0.94 -0.089,-0.088 -0.484,0.403 -0.714,0.403 h -1.999 c 0,0 1,-1.922 1.143,-2.17 0.177,-0.054 0.283,-0.16 0.268,-0.339 -0.017,-0.177 -0.644,-0.517 -0.768,-0.43 l -0.573,0.324 h -1.607 c 0.056,-0.25 -0.353,-0.715 -0.479,-0.715 -0.125,0 -0.069,0.053 -0.304,0.731 -0.233,0.678 -1.286,1.534 -1.286,1.534 0,0 -0.089,0.141 0.144,0.146 0.822,0.014 1.642,-1.072 1.642,-1.072 h 1.694 c 0.214,0 0.303,0.071 0.214,0.285 -0.088,0.215 -0.967,1.734 -0.967,1.734 -0.458,0.015 -1.839,0.009 -2.297,-0.019 -0.425,-0.027 -0.533,-0.18 -0.657,0.106 -0.125,0.289 -0.233,0.677 -0.233,0.677 0.16,0.252 0.713,-0.16 0.948,-0.16 l 1.477,0.013 c 0.32,0 0.353,0.013 0.353,0.013 -0.298,0.499 -1.561,2.228 -3.214,3.014 -0.786,0.376 -1.74,-0.292 -1.74,-0.113 -0.054,0.468 0.59,0.882 1.483,1.03 0.769,0.124 1.87,-0.958 2.299,-1.406 0.428,-0.444 0.547,-0.223 0.604,-0.015 0.448,1.569 0.589,1.89 0.875,1.89 h 1.911 c 0.25,0 0.374,-0.249 0.606,-1.375 0.232,-1.123 0.396,-1.621 0.108,-1.764 -0.288,-0.144 -2.464,-0.077 -2.464,-0.077 -0.284,0 -0.371,-0.066 -0.256,-0.194 m 0.113,0.876 c 0.109,-0.124 1.285,-0.055 1.464,-0.036 0.177,0.014 0.408,0.159 0.32,0.624 -0.09,0.464 -0.214,1.034 -0.357,1.106 -0.142,0.07 -0.96,0.088 -1.07,0.035 -0.106,-0.052 -0.75,-1.281 -0.357,-1.729 m -7.886,7.3210007 c 0,0 -0.216,0.632 -0.349,1.11 -0.13,0.478 -0.588,1.15 -0.781,1.456 -0.196,0.306 -0.024,0.653 0.412,0.392 0.436,-0.263 1.044,-1.024 1.044,-1.328 0.324,0 1.436,-0.086 1.436,-0.086 l -0.043,1.457 c 0,0 -1.218,1.089 -2.698,1.43799994 -0.381,0.09 -0.674,0.41299996 -0.107,0.76199996 0.26,0.107 1.108,0.043 2.111,-0.78199996 l 0.568,-0.37199994 c 0.087,0 0.021,1.2849999 0.021,1.6519999 0,0.368 0.391,0.285 0.521,-0.305 0.131,-0.586 0.327,-2.0209999 0.327,-2.0209999 0,0 1.197,-1.045 0.894,-1.416 l -0.741,0.523 c 0,0 0.065,-0.872 0.065,-1.067 0.372,-0.064 1.358,-0.196 1.371,-0.438 0.021,-0.391 -1.437,-0.255 -1.437,-0.255 0,0 0.065,-0.982 0.043,-1.439 -0.012,-0.229 -0.433,-0.424 -0.565,-0.416 0,0 -0.393,0.065 -0.393,0.394 v 1.48 h -1.218 c 0,0 0.063,-0.24 0.043,-0.457 -0.025,-0.217 -0.372,-0.521 -0.524,-0.282 m 5.256,-0.803 c 0,0 0.089,1.609 -1.37,2.959 -0.13,0.119 -0.17,0.494 0.437,0.175 0.663,-0.358 1.042,-1.001 1.042,-1.001 h 0.938 c 0.109,0 -0.755,3.22999994 -3.113,3.6999999 0,0 -0.304,0.131 0.108,0.306 0.411,0.173 1.69,-0.254 2.365,-1.0809999 0.673,-0.827 1.291,-2.208 1.509,-2.95 0.588,-0.04 1.228,-0.04 1.228,-0.04 0,0 -0.988,3.26799994 -3.168,4.7449999 -0.137,0.093 0.173,0.197 0.873,-0.044 0.694,-0.242 1.959,-1.41499996 3.114,-4.7889999 l 1.26,-0.131 c 0.13,0.066 0.024,0.352 -0.129,0.807 -0.154,0.456 -1.091,2.72299994 -1.678,3.1349999 -0.253,0.178 -1.064,-0.264 -1.064,-0.152 0,0.109 0.588,0.852 1,0.852 0.413,0 0.938,-0.395 1.458,-1.4819999 0.522,-1.089 1.282,-2.809 1.371,-3.35 0.089,-0.547 -0.369,-0.853 -0.957,-0.677 -0.584,0.172 -2.331,0.455 -4.549,0.41 -0.216,-0.003 -0.064,-0.39 0,-0.739 0.066,-0.347 0.089,-1.044 -0.369,-1.044 -0.457,-0.002 -0.306,0.391 -0.306,0.391 m 16.81,-11.9920007 c -0.285,-0.033 -2.684,0.332 -3.471,0.4 -0.789,0.073 -1.56,-0.224 -1.688,0.188 -0.123,0.413 0.324,0.717 0.717,0.773 0,0 0.449,1.252 0.02,5.101 -0.031,0.266 -0.075,0.564 0.14,0.555 0.378,-0.017 0.63,-0.555 1.076,-0.572 0.451,-0.018 2.724,-0.2 2.991,-0.2 0.266,0 0.215,0.092 0.25,-1.019 0.035,-1.111 -0.016,-3.671 0.127,-4.387 0.142,-0.712 0.126,-0.804 -0.162,-0.839 m -3.508,2.901 c 0,0 1.559,-0.344 2.756,-0.323 0.109,0.002 0.162,0.217 0.145,0.647 -0.014,0.429 0.053,0.589 -0.285,0.622 -0.342,0.036 -2.273,0.25 -2.492,0.286 -0.214,0.039 -0.176,-0.195 -0.157,-0.625 0.016,-0.428 -0.02,-0.483 0.033,-0.607 m 2.901,1.915 c -0.016,0.288 0.053,0.751 -0.199,0.751 -0.25,0 -2.218,0.108 -2.578,0.217 -0.358,0.107 -0.017,-0.125 -0.07,-1.019 0,0 1.058,-0.216 2.078,-0.251 1.02,-0.038 0.786,0.015 0.769,0.302 m 0.017,-3.295 c 0,0.271 -0.018,0.376 -0.25,0.376 -0.234,0 -2.076,0.217 -2.239,0.268 -0.16,0.056 -0.464,0.109 -0.464,-0.124 0,-0.233 -0.126,-0.772 -0.126,-0.772 0.145,-0.051 0.145,-0.231 0.431,-0.267 0.282,-0.034 1.791,-0.233 2.292,-0.233 0.499,0 0.356,0.198 0.356,0.752"
     fill="#231f20"
     id="path233" />
  <path
     d="m -18.053463,-10.302165 c -0.104,-0.408 -0.509,-2.355 -0.509,-3.222 0,-0.869 0.151,-4.145 0.383,-4.737 0.227,-0.585 0.255,-0.739 -0.437,-0.739 -0.69,0 -4.274,0.511 -4.655,0.511 -0.383,0 -0.505,0.47 -0.241,0.633 0,0 -0.031,0.25 0.188,0.315 0.155,0.152 1.535,3.223 -0.28,5.423 -0.199,0.242 -1.36,1.638 -3.198,1.407 -0.233,-0.031 -0.536,-0.052 -0.281,0.383 0.257,0.433001 1.202,0.9190007 2.558,0.332001 1.357,-0.583001 2.557,-2.839001 2.611,-3.275001 0.358,0 2.61,-0.023 2.61,-0.023 0,0 -0.153,2.429 0.819,3.248 0.221,0.189001 0.532,0.152001 0.432,-0.256 m -1.279,-3.761 c -0.437,0.027 -2.43,0.027 -2.43,0.027 0,0 0.049,-1.125 0.024,-1.612 0,0 2.25,-0.154 2.43,-0.281 0.18,-0.128 -0.024,1.481 -0.024,1.866 m 0.308,-3.658 c -0.078,0.51 0,0.972 -0.257,1.049 -0.257,0.074 -2.227,0.332 -2.662,0.332 -0.065,-0.344 -0.175,-0.702 -0.299,-0.971 -0.162,-0.349 -0.326,-0.564 -0.209,-0.564 0,0 1.583,-0.076 2.404,-0.127 0.817,-0.05 1.103,-0.231 1.023,0.281 m -9.872,11.5360007 c 0,0 0.634,0.188 1.482,-0.085 0.928,-0.305 0.992,-0.043 0.948,0.257 -0.042,0.301 -0.967,0.519 -1.378,0.519 -1.285,-0.001 -1.501,-0.691 -1.052,-0.691 m -0.749,2.275 c 0,0 0.966,0.022 1.848,-0.148 0.879,-0.171 1.87,-0.536 1.781,-0.045 -0.086,0.496 -1.052,3.7829999 -2.921,4.1889999 -0.253,0.059 -1.717,0.301 -1.975,-1.0939999 -0.062,-0.343 0.216,-0.021 0.583,0.12999994 0.364,0.146 1.29,0.30199996 2.083,-0.57999994 0.794,-0.883 1.202,-1.396 1.354,-2.042 0.022,-0.148 -0.016,-0.203 -1.333,0.021 -1.009,0.171 -1.569,0.966 -2.019,0.107 -0.153,-0.56 0.599,-0.538 0.599,-0.538 m 5.479,-2.919 c 0,0 5.437,-0.106 5.864,-0.106 0.432,0 -0.106,0.471 -0.387,0.514 -0.279,0.046 -4.403,0.152 -4.94,0.177 -0.537,0.017 -0.646,0.428 -0.902,0.232 -0.259,-0.195 0.255,-0.774 0.365,-0.817"
     fill="#231f20"
     id="path235" />
  <path
     d="m -21.699463,-7.7511643 c 0,0 0.28,-0.217 0.54,-0.112 0.257,0.112 0.021,0.475 -0.087,0.843 -0.107,0.363 -0.172,1.457 -0.172,1.457 l -0.236,0.279 c 0,0 -0.398,-0.043 -0.406,-0.319 -0.025,-0.624 0.084,-2.042 0.361,-2.148"
     fill="#231f20"
     id="path237" />
  <path
     d="m -18.498463,-5.1111643 c -0.02,-0.234 -0.749,-0.453 -2.535,-0.472 -1.781,-0.021 -4.038,0.667 -4.038,0.667 -0.236,0.276 0.042,0.814 0.192,1.327 0.122,0.416 0.394,0.939 0.625,0.971 0.567,0.073 2.575,-0.088 3.697,-0.177 1.116,-0.083 1.394,-0.149 1.629,-0.427 0.239,-0.277 0.454,-1.652 0.43,-1.889 m -4.338,1.76 c -0.087,0.282 -0.77,0.196 -1.098,0.153 -0.13,-0.02 -0.556,-1.249 -0.338,-1.331 0,0 1.179,-0.366 1.288,-0.153 0.107,0.217 0.233,1.056 0.148,1.331 m 1.74,0 c -0.152,0.088 -0.836,0.131 -1.03,0.131 -0.192,0 -0.192,-0.066 -0.192,-0.367 0,-0.301 -0.109,-1.242 0.169,-1.328 l 1.098,-0.065 c 0.104,0.024 0.042,0.497 0.042,0.901 0,0.409 0.063,0.643 -0.087,0.728 m 1.482,-0.193 c -0.214,0.063 -0.911,0.174 -0.911,0.088 l 0.052,-1.498 c 0,0 0.529,-0.01 0.808,-0.01 0.28,0 0.326,-0.014 0.326,0.182 10e-4,0.194 -0.06,1.174 -0.275,1.238 m -6.855,3.1609999 c 0,0 1.681,-1.2709999 1.917,-1.4619999 0.235,-0.192 0.579,0.086 0.793,0.173 0.216,0.09 3.03,1.5459999 4.447,1.4589999 0.959,-0.056 1.874,-0.8029999 1.87,-0.7949999 0,0 0.13,0.2809999 -0.066,0.6029999 -0.193,0.324 -1.033,1.271 -2.37,1.067 -0.937,-0.141 -3.534,-1.60399996 -4.178,-1.9269999 -0.165,-0.084 -0.26,-0.087 -0.43,0.062 -0.172,0.15 -1.158,1.0129999 -1.395,1.20299989094 -0.24,0.19300000906 -0.303,0.13100000906 -0.498,0 -0.195,-0.12599999094 -0.244,-0.26699999094 -0.09,-0.38299999094"
     fill="#231f20"
     id="path239" />
  <path
     d="m 52.687907,53.433467 c 0,0 0.271,-0.122 0.549,-0.097 0.281,0.029 0.429,0.178 0.604,-0.025 0.172,-0.203 0.026,-0.4 -0.323,-0.508 -0.348,-0.107 -0.857,-0.068 -1.151,0.305 -0.176,0.227 0.156,0.423 0.321,0.325 m 2.307,-0.551 c 0,0 0.802,0.483 1.07,0.495 0.266,0.016 0.389,-0.098 0.161,-0.417 -0.228,-0.318 -0.604,-0.534 -1.073,-0.521 -0.299,0.008 -0.254,0.381 -0.158,0.443"
     fill="#231f20"
     id="path241" />
</svg>
