<svg id="图层_1" data-name="图层 1" xmlns="http://www.w3.org/2000/svg" viewBox="0 0 448 512"><title>画板 1</title><path d="M231.84,254.72h12c18.71,0,29.89-10.92,29.89-28.6,0-9.88-4.42-20.27-12-26.51-6-5.46-16.63-8.84-26.51-8.84-4.94,0-8.06,1.3-9.62,3.38-1.3,1.82-1.3,2.6-1.3,9.88v43.15C224.3,253.94,224.82,254.46,231.84,254.72Z"/><path d="M448,115.6A83.6,83.6,0,0,0,364.4,32H83.6A83.6,83.6,0,0,0,0,115.6V396.4A83.6,83.6,0,0,0,83.6,480H364.4A83.6,83.6,0,0,0,448,396.4ZM73.53,331.4c-12,0-28.07-3.9-33.53-8.06-2.08-1.82-2.34-2.08-3.9-9.88,0-.52-1-4.16-2.6-9.61-1.82-5.72-2.86-11.7-2.86-13.78,0-1.82,1-3.12,2.34-3.12,1,0,1.56.78,2.08,2.08,3.38,9.88,7.28,16.38,13,22.09,7.54,7.54,19.75,12.22,31.45,12.22,19.24,0,34.83-13.26,34.83-29.63,0-8.06-3.9-15.6-10.65-21.06-3.9-2.86-7.54-4.68-26.52-10.66-18.2-6.23-26-10.39-33.27-17.93C37.4,237.3,34,229,34,218.84c0-22.61,19-38.73,46.53-38.73,9.88,0,12.22.78,26,6.5a7.88,7.88,0,0,0,2.07.52c1.3,0,1.56-.26,4.16-2.34a2,2,0,0,1,1-.52c1.82,0,2.6,1.56,2.6,5.2.26,3.12.52,3.9,3.38,21.57.26,2.08.52,3.9.52,4.68,0,1.82-1,3.12-2.08,3.12-1.56,0-2.08-.78-3.38-4.94-4.94-15.33-22.61-26.51-41.59-26.51C57.41,187.39,46,197.53,46,211.56a23.88,23.88,0,0,0,6.24,16.38c6,6.5,7.27,7.28,33.53,15.86s39,22.61,39,42.11C124.74,312.42,103.43,331.4,73.53,331.4Zm52-8.06c-2.08-1.56-2.34-2.08-3.9-9.36a65.51,65.51,0,0,0,5.46-10.39,45.57,45.57,0,0,0,6.24,7.79c7.54,7.54,19.76,12.22,31.45,12.22,19.24,0,34.84-13.26,34.84-29.63A26.73,26.73,0,0,0,189,272.91c-3.9-2.86-7.8-4.42-26.52-10.66-18.19-6.23-26-10.39-33.27-17.93a33.36,33.36,0,0,1-9.88-20.8,8,8,0,0,0,6-8.06,17.74,17.74,0,0,0-.26-3.12l-1.56-10.65c7-13,22.36-21.06,42.11-21.06,9.62,0,12.22.52,25.74,6.5a11.7,11.7,0,0,0,2.08.52c1.3,0,1.56-.26,4.16-2.34a1.35,1.35,0,0,1,1-.52c1.82,0,2.6,1.56,2.6,5.2.26,3.12.52,3.9,3.38,21.57.26,2.34.52,3.9.52,4.68,0,1.82-1,3.12-2.08,3.12-1.3,0-2.08-.78-3.38-4.94-5.2-15.33-22.62-26.51-41.59-26.51-15.86,0-27.3,9.88-27.3,24.17A23.88,23.88,0,0,0,137,228.46c5.72,6.5,7,7,33.53,15.86,26.26,8.84,39.25,22.61,39.77,41.59,0,26.51-21.57,45.49-51.21,45.49C147.1,331.4,131,327.5,125.52,323.34Zm185.87,9.1c-13,0-22.36-6.24-33-22.62l-26.25-40.29a11.8,11.8,0,0,0-1.3-2.34c-2.34-3.64-3.64-4.42-8.32-4.42H230.8c-5.46-.26-6,.26-6.24,3.9v38.48C224,320,229,325.42,244.06,327q3.9.39,3.9,2.34c0,1.3-1.56,2.08-3.38,2.08-1.3,0-3.64-.26-6.5-.52-2.6-.52-13.78-.78-23.92-.78a112.48,112.48,0,0,0-14.29.78c-2.08.26-4.68.52-5.46.52-2.08,0-2.86-.52-2.86-2.08,0-1.3.52-1.56,2.6-2.08,8.58-2.6,12-4.94,13.26-14.3a48.41,48.41,0,0,0,7.79-26.77,40.16,40.16,0,0,0-7-23.4V222a8.27,8.27,0,0,0,2.33-6,17.74,17.74,0,0,0-.26-3.12l-1.81-11.43c-1.56-8.58-1.56-9.62-1.82-11.7a13.11,13.11,0,0,0-.78-4.94h2.08c5.45,0,5.45,0,17.15-.78,5.46-.26,10.92-.52,15.86-.52,16.64,0,27.29,2.6,35.61,8.84s13,16.37,13,27.81c0,15.86-9.36,28.34-26.52,37.17l29.64,43.16c13.26,20.27,20.79,26.51,32,26.25a1.74,1.74,0,0,1,1.82,1.56C326.46,330.36,319.18,332.44,311.39,332.44Zm94.1-6.76v2.08c0,4.68-.78,6.24-3.38,6.24-1.56,0-1.56,0-4.94-3.9L307.49,227.16c-1.3-1.3-1.56-1.56-2.6-1.56-1.56,0-2.08,1-2.08,4.68v76.17c-1.82-2.6-3.64-5.46-6-8.84l-2.6-3.9V226.12a42.67,42.67,0,0,0,.52-6c0-13-5.72-24.95-15.08-32-1.3-.78-2.6-1.82-3.9-2.6,3.12.26,7.8.26,8.32.26h1.82a21.24,21.24,0,0,1,3.64-.26c2.34,0,3.64.78,5.72,3.12L393,300c1.56,1.82,2.34,2.6,2.86,2.6,1,.26,1.3-.52,1.3-3.9V247.7c.52-49.65-1.3-54.33-21.58-57.19-2.34-.52-3.12-1.3-3.12-2.86,0-1.3,1-2.08,3.12-2.08l4.68.26c3.9.26,14.3.78,20.54.78a45.91,45.91,0,0,0,9.62-.78c2.34-.26,3.9-.52,5.19-.52,1.82,0,3.12,1,3.12,2.34,0,1-.52,1.56-2.08,1.82-9.87,2.6-10.91,5.2-10.65,30.93l-.26,6.76v69.15C405.75,309.82,405.75,319.44,405.49,325.68Z"/></svg>