<?xml version="1.0" encoding="UTF-8" standalone="no"?>
<svg
   version="1.1"
   height="872.39429"
   width="875.7688"
   viewBox="0 0 875.7688 872.39429"
   id="svg26"
   sodipodi:docname="SYSU_Logo.svg"
   inkscape:version="1.1 (c68e22c387, 2021-05-23)"
   xmlns:inkscape="http://www.inkscape.org/namespaces/inkscape"
   xmlns:sodipodi="http://sodipodi.sourceforge.net/DTD/sodipodi-0.dtd"
   xmlns="http://www.w3.org/2000/svg"
   xmlns:svg="http://www.w3.org/2000/svg">
  <defs
     id="defs30" />
  <sodipodi:namedview
     id="namedview28"
     pagecolor="#ffffff"
     bordercolor="#666666"
     borderopacity="1.0"
     inkscape:pageshadow="2"
     inkscape:pageopacity="0.0"
     inkscape:pagecheckerboard="0"
     showgrid="false"
     inkscape:zoom="0.79296875"
     inkscape:cx="429.39901"
     inkscape:cy="436.96552"
     inkscape:window-width="1920"
     inkscape:window-height="1001"
     inkscape:window-x="-9"
     inkscape:window-y="-9"
     inkscape:window-maximized="1"
     inkscape:current-layer="svg26" />
  <path
     d="m 853.13829,436.90667 c 0,140.43429 -74.89829,273.06667 -195.04762,346.40457 C 536.38096,858.20953 378.78248,864.45105 252.39162,798.91505 127.56115,734.93943 41.740187,610.10896 30.817527,471.23505 18.334477,330.80076 82.310097,191.92686 196.21791,107.66629 311.6861,23.405714 467.72419,4.6811437 598.79619,59.294477 726.74743,112.34743 823.49105,229.376 846.89676,366.68953 c 4.68115,23.40571 6.24153,46.81143 6.24153,70.21714 z"
     fill="#ffffff"
     id="path2" />
  <path
     d="M 1.1702852,436.90667 C -0.3900948,198.16838 193.09714,1.5603807 436.51657,-3.2999999e-7 575.39048,-3.2999999e-7 709.58324,67.096377 792.28343,179.44381 876.544,294.912 898.38934,447.82934 851.57791,582.0221 790.72305,752.10362 626.88305,869.13219 445.87886,872.25296 197.77829,878.49448 -0.3900948,677.20534 1.1702852,436.90667 c -1.56038,-238.73829 -1.56038,240.29867 0,0 z m 28.0868518,0 c 0,224.69486 182.564583,407.25943 405.699053,408.81981 C 661.21143,847.28686 842.21562,666.28267 845.33638,446.26896 850.01753,213.77219 664.33219,29.647237 442.7581,28.086857 211.82172,28.086857 29.257137,212.21181 29.257137,436.90667 Z"
     fill="#085521"
     id="path4" />
  <path
     d="M 41.740187,436.90667 C 41.740187,216.89296 218.06324,45.251047 430.27505,40.569907 653.40953,37.449147 834.41372,218.45334 832.85334,438.46705 831.29296,655.36 658.09067,828.56229 444.31848,833.24343 219.62362,836.36419 41.740187,656.92038 41.740187,436.90667 Z m 783.311243,0 C 825.05143,223.13448 653.40953,49.932187 438.07696,49.932187 221.184,48.371807 51.102477,223.13448 49.542097,430.66515 46.421337,649.11848 222.74438,822.32076 434.95619,823.88115 648.72838,825.44153 825.05143,653.79962 825.05143,436.90667 Z"
     fill="#085521"
     id="path6" />
  <path
     d="m 658.09067,450.9501 c 0,59.29447 -37.44914,109.22666 -95.18324,126.39086 l -23.40571,4.68114 c -3.12076,0 -6.24153,1.56038 -6.24153,4.68114 -10.92266,26.52648 -28.08686,45.25105 -53.05295,59.29448 -54.61333,24.96609 -118.58895,-1.56038 -138.8739,-59.29448 -1.56038,-3.12076 -3.12077,-4.68114 -6.24153,-4.68114 -53.05295,-6.24153 -90.50209,-34.32838 -110.78705,-82.70019 -24.96609,-62.41524 4.68115,-135.75314 65.536,-165.40038 14.04343,-7.80191 29.64724,-10.92267 45.25105,-12.48305 3.12076,0 4.68114,-1.56038 4.68115,-4.68114 14.04342,-37.44915 40.5699,-60.85486 81.1398,-67.09638 45.25105,-7.80191 92.06248,20.28495 107.66629,63.97562 0,1.56038 0,1.56038 1.56038,3.12076 1.56038,3.12076 3.12076,4.68114 7.80191,6.24152 32.768,3.12076 59.29447,15.60381 82.70019,40.5699 18.72457,20.28496 31.20761,43.69067 34.32838,71.77753 1.56038,4.68114 1.56038,10.92267 3.12076,15.60381 0,59.29447 -1.56038,-4.68114 0,0 z m -424.42362,0 c 0,4.68114 0,9.36228 1.56038,12.48305 1.56038,6.24152 1.56038,12.48304 4.68114,17.16419 7.80191,26.52647 23.40572,49.93219 46.81143,63.97562 12.48305,7.8019 24.9661,12.48304 39.00953,15.6038 10.92266,1.56039 28.08685,-3.12076 31.20761,9.36229 12.48305,51.49257 68.65677,79.57943 115.4682,57.7341 26.52647,-12.48305 40.5699,-32.768 46.81142,-59.29448 0,-4.68114 42.13029,-9.36229 49.9322,-12.48305 17.16419,-6.24152 32.768,-17.16419 43.69066,-31.20762 28.08686,-34.32838 34.32838,-71.77752 20.28495,-113.90781 -9.36228,-23.40571 -24.96609,-42.13028 -46.81143,-56.17371 -9.36228,-6.24153 -20.28495,-10.92267 -31.20761,-14.04343 -6.24153,-1.56038 -34.32839,-1.56038 -34.32839,-7.8019 -6.24152,-34.32839 -34.32838,-60.85486 -68.65676,-67.09639 -45.25104,-7.8019 -87.38133,21.84534 -95.18324,67.09639 0,6.24152 -31.20761,6.24152 -37.44914,9.36228 -49.93219,14.04343 -84.26057,60.85486 -85.82095,109.22667 0,4.68114 1.56038,-48.37181 0,0 z m 321.43848,249.66095 c 24.96609,-12.48305 49.93219,-24.96609 71.77752,-42.13029 l -1.56038,1.56039 c -3.12076,3.12076 -3.12076,6.24152 1.56038,7.8019 12.48305,6.24153 23.40571,12.48305 35.88876,18.72457 h 1.56038 c 0,-3.12076 -1.56038,-6.24152 -1.56038,-9.36228 -3.12076,-9.36229 -4.68114,-17.16419 -7.8019,-26.52648 0,-1.56038 -1.56038,-3.12076 -1.56038,-4.68114 -1.56039,-3.12076 -4.68115,-4.68114 -7.80191,-3.12076 -1.56038,0 -1.56038,1.56038 -3.12076,1.56038 0,0 0,-1.56038 1.56038,-1.56038 10.92267,-7.80191 17.16419,-17.1642 24.9661,-28.08686 6.24152,-7.80191 10.92266,-12.48305 14.04342,-20.28495 1.56038,-3.12077 3.12077,-3.12077 6.24153,-1.56039 3.12076,3.12077 7.8019,4.68115 10.92267,7.80191 0,0 1.56038,1.56038 1.56038,3.12076 -1.56038,0 -3.12077,-1.56038 -6.24153,-1.56038 -6.24152,-1.56038 -10.92267,0 -14.04343,3.12076 -3.12076,3.12076 -6.24152,7.80191 -9.36228,10.92267 0,0 0,3.12076 1.56038,3.12076 6.24152,4.68114 12.48305,9.36229 17.16419,12.48305 3.12076,1.56038 4.68114,1.56038 4.68114,-1.56038 3.12076,-4.68114 1.56038,-9.36229 -1.56038,-12.48305 l -4.68114,-4.68114 1.56038,-1.56038 c 9.36229,6.24152 17.16419,12.48304 26.52647,18.72457 v 1.56038 c -1.56038,0 -3.12076,0 -3.12076,-1.56038 -7.8019,-3.12076 -12.48304,-3.12076 -14.04342,1.56038 -1.56039,1.56038 -1.56039,3.12076 0,4.68114 6.24152,4.68114 10.92266,7.80191 15.6038,10.92267 6.24153,3.12076 10.92267,-4.68114 12.48305,-9.36229 4.68114,-7.8019 4.68114,-14.04343 0,-21.84533 -1.56038,-1.56038 -1.56038,-3.12076 -1.56038,-4.68114 0,0 1.56038,0 1.56038,1.56038 4.68114,4.68114 7.80191,7.8019 12.48305,10.92266 0,1.56038 1.56038,3.12077 0,4.68115 -10.92267,14.04343 -21.84533,29.64724 -32.768,43.69066 h -1.56038 v -1.56038 c 3.12076,-4.68114 3.12076,-7.8019 -1.56038,-10.92266 -12.48305,-10.92267 -26.52648,-18.72458 -39.00953,-29.64724 -10.92266,-6.24153 -9.36228,10.92267 -7.8019,15.60381 l 14.04343,51.49257 c 0,1.56038 1.56038,4.68114 1.56038,6.24152 l -1.56038,1.56038 c -4.68114,-1.56038 -7.80191,-4.68114 -12.48305,-6.24152 -15.60381,-7.80191 -32.768,-15.60381 -48.37181,-24.96609 -4.68114,-1.56039 -7.8019,-1.56039 -12.48305,0 -4.68114,0 0,10.92266 1.56038,12.48304 7.80191,12.48305 12.48305,23.40572 20.28496,35.88876 4.68114,9.36229 4.68114,9.36229 12.48304,6.24153 v 1.56038 C 622.20191,736.49981 614.4,741.18096 603.47734,745.8621 l 1.56038,-1.56038 C 614.4,738.06019 587.87353,697.49029 581.632,689.68838 c -3.12076,-6.24152 -10.92266,0 -14.04343,3.12077 -3.12076,3.12076 -1.56038,9.36228 -1.56038,12.48304 6.24153,15.60381 12.48305,32.768 17.16419,48.37181 v 3.12076 l -1.56038,1.56039 C 561.34705,745.8621 542.62248,734.93943 520.77714,722.45638 v 4.68115 c 4.68115,12.48305 9.36229,23.40571 12.48305,35.88876 3.12076,7.8019 4.68114,9.36229 12.48305,9.36229 v 1.56038 c -7.8019,3.12076 -12.48305,4.68114 -20.28495,7.8019 7.8019,-7.8019 7.8019,-7.8019 3.12076,-17.16419 -4.68114,-12.48305 -9.36229,-24.96609 -12.48305,-37.44914 -1.56038,-3.12076 -4.68114,-6.24153 -7.8019,-6.24153 -14.04343,-4.68114 -6.24153,21.84534 -6.24153,26.52648 1.56039,6.24152 1.56039,12.48305 3.12077,18.72457 1.56038,14.04343 -7.80191,21.84533 -17.1642,24.9661 -15.6038,4.68114 -28.08685,-1.56039 -32.768,-17.16419 -1.56038,-10.92267 -3.12076,-21.84534 -4.68114,-34.32838 -1.56038,-9.36229 -1.56038,-9.36229 -9.36228,-12.48305 10.92266,-1.56038 20.28495,-3.12076 32.768,-4.68115 v 1.56038 c -7.80191,3.12077 -7.80191,3.12077 -7.80191,10.92267 1.56038,12.48305 1.56038,46.81143 17.16419,49.93219 24.9661,3.12076 18.72457,-26.52647 15.60381,-40.5699 0,-3.12076 -1.56038,-7.80191 -1.56038,-10.92267 -1.56038,-6.24152 -1.56038,-12.48305 -12.48305,-12.48305 v -1.56038 h 4.68115 c 10.92266,-1.56038 20.28495,-4.68114 29.64723,-7.8019 3.12077,-1.56038 4.68115,-1.56038 7.80191,0 12.48305,7.8019 24.96609,14.04343 35.88876,21.84533 1.56038,1.56038 3.12076,1.56038 4.68114,3.12076 v -4.68114 c -3.12076,-7.80191 -4.68114,-14.04343 -7.8019,-20.28495 4.68114,-7.80191 3.12076,-14.04343 -4.68114,-10.92267 24.96609,-12.48305 7.8019,-3.12076 0,0 z m 81.13981,-457.19162 c 0,-1.56038 -1.56038,-1.56038 0,0 -7.80191,-3.12076 -12.48305,-6.24152 -18.72458,-6.24152 -3.12076,-1.56038 -15.6038,-10.92267 -6.24152,-10.92267 7.80191,0 15.60381,1.56038 21.84533,6.24152 9.36229,4.68115 17.1642,10.92267 24.9661,14.04343 l 1.56038,1.56039 h 4.68114 c 0,-1.56039 -1.56038,-3.12077 -1.56038,-3.12077 -7.8019,-4.68114 -14.04343,-10.92266 -21.84533,-14.04343 -3.12076,-1.56038 -7.80191,-1.56038 -10.92267,-3.12076 -1.56038,0 -3.12076,-1.56038 -4.68114,-1.56038 -3.12076,-1.56038 -7.80191,-4.68114 -10.92267,-6.24152 -7.8019,-4.68114 -21.84533,6.24152 -28.08686,10.92266 -3.12076,1.56038 -6.24152,1.56038 -7.8019,-1.56038 -1.56038,-1.56038 -1.56038,-7.8019 1.56038,-9.36228 4.68114,-4.68114 9.36229,-6.24153 12.48305,-12.48305 1.56038,-1.56038 12.48305,-7.80191 12.48305,-1.56038 3.12076,4.68114 7.8019,6.24152 10.92266,1.56038 6.24153,-7.80191 10.92267,-14.04343 14.04343,-21.84533 4.68114,-4.68115 9.36229,-9.36229 9.36229,1.56038 0,9.36228 -9.36229,15.60381 -14.04343,23.40571 v 4.68115 c 1.56038,0 3.12076,0 4.68114,-1.56039 7.80191,-10.92266 14.04343,-20.28495 21.84533,-31.20761 3.12077,-3.12077 4.68115,-4.68115 7.80191,0 3.12076,3.12076 9.36229,3.12076 10.92267,9.36228 3.12076,7.80191 15.60381,-6.24152 15.60381,-3.12076 4.68114,7.8019 1.56038,9.36228 -1.56039,15.60381 h -1.56038 c -4.68114,1.56038 -9.36228,1.56038 -7.8019,7.8019 0,1.56038 -1.56038,3.12076 0,4.68115 1.56038,3.12076 3.12076,4.68114 6.24152,7.8019 l 1.56038,-1.56038 c 0,-3.12076 -1.56038,-10.92267 -3.12076,-12.48305 1.56038,1.56038 4.68114,1.56038 6.24153,3.12076 1.56038,0 4.68114,1.56039 6.24152,3.12077 3.12076,1.56038 6.24152,4.68114 4.68114,7.8019 0,4.68114 0,7.80191 -4.68114,10.92267 l -18.72457,9.36228 c -1.56038,0 -1.56038,1.56038 -3.12076,1.56038 l 1.56038,1.56039 c 9.36228,3.12076 14.04343,26.52647 4.68114,23.40571 -3.12076,0 -6.24152,-1.56038 -7.8019,-3.12076 -4.68115,-3.12076 -9.36229,-10.92267 -15.60381,-7.80191 -3.12077,3.12076 -14.04343,-1.56038 -18.72457,1.56038 0,1.56038 1.56038,3.12076 1.56038,3.12076 4.68114,3.12077 20.28495,7.80191 17.16419,14.04343 0,7.80191 -9.36229,12.48305 -12.48305,4.68115 -3.12076,-3.12076 -4.68114,-6.24153 -7.80191,-7.80191 -4.68114,-4.68114 -6.24152,-4.68114 -9.36228,1.56038 -4.68114,7.80191 -12.48305,12.48305 -18.72457,14.04343 -4.68115,0 -9.36229,3.12076 -12.48305,-1.56038 -3.12076,-4.68114 -3.12076,-15.60381 -4.68114,-20.28495 0,-1.56038 -1.56039,-3.12076 -1.56039,-4.68115 3.12077,1.56039 3.12077,1.56039 4.68115,1.56039 7.8019,3.12076 12.48305,12.48304 20.28495,4.68114 3.12076,-4.68114 4.68114,-6.24153 -1.56038,-9.36229 -4.68114,-3.12076 -9.36229,-6.24152 -12.48305,-7.8019 -12.48305,-6.24153 -9.36228,-24.9661 3.12076,-12.48305 4.68115,3.12076 9.36229,6.24153 14.04343,10.92267 4.68114,4.68114 6.24153,-4.68114 12.48305,-4.68114 3.12076,-1.56039 6.24152,-1.56039 9.36229,-4.68115 0,-1.56038 -3.12077,3.12076 0,0 z m 17.16419,-42.13028 c 4.68114,0 12.48304,-9.36229 7.8019,-9.36229 h -3.12076 c -1.56038,1.56038 -4.68114,3.12076 -6.24153,6.24152 0,0 0,1.56038 1.56039,3.12077 -1.56039,0 0,0 0,0 z m -9.36229,15.60381 c 1.56038,0 3.12076,-1.56038 4.68114,-1.56038 1.56038,-1.56039 3.12076,-3.12077 1.56038,-6.24153 -3.12076,-3.12076 -7.8019,1.56038 -10.92266,3.12076 l -1.56038,1.56038 c 0,1.56039 1.56038,1.56039 1.56038,1.56039 1.56038,1.56038 3.12076,1.56038 4.68114,1.56038 z m 34.32838,4.68114 c -3.12076,-1.56038 -4.68114,-3.12076 -6.24152,-4.68114 v 1.56038 l 4.68114,4.68114 c 0,1.56038 0,0 1.56038,-1.56038 -1.56038,-1.56038 -1.56038,1.56038 0,0 z m -441.58781,18.72457 c -3.12076,4.68114 -7.8019,10.92267 -6.24152,17.16419 1.56038,6.24153 -4.68114,9.36229 -10.92267,9.36229 -4.68114,-1.56039 -9.36228,-3.12077 -12.48305,-3.12077 -3.12076,-1.56038 -4.68114,-1.56038 -7.8019,-4.68114 -3.12076,-4.68114 -6.24153,-9.36228 -7.80191,-12.48305 -1.56038,-1.56038 -3.12076,-3.12076 -3.12076,-6.24152 -1.56038,-4.68114 0,-10.92267 4.68114,-10.92267 3.12077,-1.56038 4.68115,-3.12076 4.68115,-6.24152 1.56038,-4.68114 3.12076,-10.92267 4.68114,-14.04343 0,-3.12076 0,-4.68114 -1.56038,-6.24152 -7.80191,-4.68114 -28.08686,-21.84534 -7.80191,-28.08686 7.80191,-1.56038 12.48305,6.24152 17.1642,10.92267 4.68114,4.68114 12.48304,-9.36229 12.48304,-12.48305 3.12076,-7.80191 14.04343,-12.48305 21.84534,-7.80191 3.12076,1.56038 3.12076,6.24153 3.12076,10.92267 -1.56038,3.12076 -1.56038,7.80191 0,10.92267 0,7.8019 14.04343,6.24152 10.92266,17.16419 0,1.56038 -1.56038,3.12076 -3.12076,4.68114 -3.12076,4.68114 -4.68114,9.36229 -7.8019,12.48305 0,1.56038 1.56038,4.68114 1.56038,6.24152 10.92267,12.48305 23.40571,24.9661 34.32838,35.88876 l 9.36229,14.04343 c 3.12076,3.12076 -3.12077,9.36229 -7.80191,6.24153 -17.16419,-10.92267 -32.768,-26.52648 -46.81143,-40.56991 1.56038,0 0,-1.56038 -1.56038,-3.12076 -3.12076,6.24152 1.56038,1.56038 0,0 z m 0,-40.56991 c -1.56038,-4.68114 -1.56038,-7.8019 -4.68114,-10.92266 -1.56038,-3.12076 -3.12076,-3.12076 -6.24153,0 -6.24152,4.68114 -6.24152,7.8019 -1.56038,12.48305 3.12077,3.12076 7.80191,9.36228 10.92267,1.56038 1.56038,-1.56038 1.56038,-1.56038 1.56038,-3.12077 z m -12.48305,31.20762 c -1.56038,-3.12076 -7.8019,-10.92266 -10.92266,-10.92266 l -1.56038,1.56038 c -1.56038,1.56038 -1.56038,4.68114 -3.12076,6.24152 -3.12077,4.68114 -3.12077,4.68114 1.56038,7.80191 9.36228,0 6.24152,1.56038 14.04342,-4.68115 -1.56038,-3.12076 -1.56038,1.56038 0,0 z m 179.44381,558.61638 c -10.92266,-20.28495 -23.40571,-40.5699 -34.32838,-60.85485 l -1.56038,1.56038 c -3.12076,12.48305 -4.68114,24.96609 -7.8019,37.44914 -1.56038,7.80191 0,9.36229 6.24152,12.48305 v 1.56038 c -7.8019,-1.56038 -14.04343,-3.12076 -21.84533,-4.68114 0,-1.56038 0,-1.56038 1.56038,-1.56038 9.36228,-1.56038 9.36228,-1.56038 10.92266,-10.92267 3.12077,-14.04343 6.24153,-28.08686 7.80191,-42.13029 0,-3.12076 -3.12076,-9.36228 -6.24152,-10.92266 -1.56039,0 -3.12077,1.56038 -3.12077,1.56038 -1.56038,3.12076 -1.56038,7.8019 -4.68114,12.48305 h -1.56038 c 0,-10.92267 -4.68114,-23.40572 -18.72457,-23.40572 -1.56038,-1.56038 -3.12076,0 -4.68114,1.56038 -3.12077,7.80191 -6.24153,12.48305 -7.80191,20.28495 -1.56038,1.56039 0,3.12077 1.56038,4.68115 4.68114,1.56038 9.36229,0 10.92267,-4.68115 1.56038,-1.56038 3.12076,-4.68114 4.68114,-6.24152 h 1.56038 c -4.68114,10.92267 -9.36228,20.28495 -10.92266,31.20762 h -1.56039 c 0,-6.24152 1.56039,-15.60381 -6.24152,-17.16419 -4.68114,-4.68114 -10.92266,15.60381 -12.48305,18.72457 -1.56038,4.68114 0,6.24153 3.12077,7.80191 7.8019,3.12076 14.04342,6.24152 21.84533,3.12076 3.12076,-1.56038 7.8019,-4.68114 9.36229,-9.36229 l 1.56038,1.56038 v 1.56038 c -3.12077,4.68115 -6.24153,10.92267 -9.36229,14.04343 0,1.56038 -3.12076,1.56038 -3.12076,1.56038 -15.60381,-6.24152 -32.768,-12.48304 -49.93219,-18.72457 l -1.56038,-1.56038 h 1.56038 c 9.36228,1.56038 9.36228,-3.12076 12.48304,-10.92266 4.68115,-12.48305 10.92267,-24.9661 15.60382,-39.00953 1.56038,-6.24152 -7.80191,-12.48305 -7.80191,-7.8019 -1.56038,3.12076 -4.68114,7.8019 -6.24152,10.92266 0,1.56038 0,1.56038 -1.56039,3.12077 l -1.56038,-1.56039 v -3.12076 c 3.12077,-10.92267 -3.12076,-21.84533 -12.48304,-24.96609 -6.24153,-1.56038 -12.48305,3.12076 -10.92267,10.92266 3.12076,9.36229 10.92267,15.60381 12.48305,24.9661 9.36228,15.60381 -9.36229,32.768 -24.9661,26.52648 -10.92266,-3.12077 -14.04343,-14.04343 -26.52647,-14.04343 4.68114,-7.80191 9.36228,-14.04343 12.48304,-20.28496 h 1.56039 v 3.12077 c -3.12077,12.48304 1.56038,21.84533 10.92266,26.52647 4.68114,3.12076 9.36229,1.56038 12.48305,-1.56038 3.12076,-3.12076 4.68114,-7.8019 1.56038,-10.92267 -3.12076,-6.24152 -7.80191,-12.48304 -10.92267,-18.72457 -3.12076,-4.68114 -4.68114,-10.92266 -3.12076,-14.04343 3.12076,-12.48304 15.60381,-18.72457 28.08686,-12.48304 4.68114,3.12076 14.04343,15.60381 18.72457,12.48304 1.56038,1.56038 3.12076,3.12077 6.24152,3.12077 21.84534,9.36228 43.69067,18.72457 67.09639,23.40571 3.12076,0 4.68114,1.56038 6.24152,4.68114 7.8019,12.48305 12.48305,26.52648 20.28495,39.00953 0,1.56038 1.56038,1.56038 1.56038,3.12076 h 1.56038 c 0,-1.56038 1.56038,-4.68114 1.56038,-6.24153 1.56039,-7.8019 3.12077,-14.04342 4.68115,-21.84533 1.56038,-6.24152 0,-7.8019 -6.24153,-10.92267 0,0 -1.56038,0 -1.56038,-1.56038 6.24153,1.56038 12.48305,3.12077 18.72457,3.12077 v 1.56038 l -1.56038,1.56038 c -4.68114,0 -7.8019,3.12076 -7.8019,6.24152 -1.56038,10.92267 -3.12076,18.72457 -6.24153,29.64724 4.68115,6.24152 3.12077,14.04343 0,24.96609 3.12077,-1.56038 1.56039,-1.56038 0,0 1.56039,0 1.56039,0 0,0 -6.24152,-10.92266 1.56039,0 0,0 z M 562.90743,209.09105 c -12.48305,0 -24.96609,3.12076 -35.88876,-3.12076 -6.24153,-3.12076 -7.80191,-14.04343 -10.92267,-20.28495 -3.12076,-9.36229 -6.24152,-17.16419 -9.36228,-26.52648 0,-1.56038 -1.56038,-3.12076 -1.56038,-6.24152 l -4.68115,4.68114 c -7.8019,6.24152 -12.48305,12.48305 -20.28495,18.72457 -6.24152,4.68114 -9.36228,4.68114 -14.04343,0 -3.12076,-3.12076 -12.48305,-7.8019 -12.48305,-12.48305 h 4.68115 c 14.04343,4.68115 31.20762,-6.24152 34.32838,-15.60381 1.56038,-4.68114 1.56038,-4.68114 -3.12076,-6.24152 -4.68115,0 -9.36229,-1.56038 -12.48305,-3.12076 -4.68114,-1.56038 -6.24153,-4.68114 -7.80191,-7.80191 0,-3.12076 -1.56038,-6.24152 0,-9.36228 0,-6.24153 4.68115,-9.36229 9.36229,-7.80191 7.8019,1.56038 21.84533,12.48305 24.9661,1.56038 1.56038,-4.68114 1.56038,-10.92266 3.12076,-14.04343 0,-1.560383 1.56038,-3.120763 3.12076,-4.681143 9.36228,-4.68114 17.16419,0 18.72457,9.362293 0,1.56038 -1.56038,4.68114 -1.56038,7.8019 -3.12076,7.80191 6.24152,14.04343 12.48305,7.80191 3.12076,-1.56038 6.24152,0 7.8019,3.12076 1.56038,1.56038 1.56038,3.12076 1.56038,3.12076 1.56038,4.68114 1.56038,6.24153 -3.12076,7.80191 -6.24152,1.56038 -20.28495,0 -24.9661,4.68114 -1.56038,0 -3.12076,3.12076 -3.12076,4.68114 4.68115,23.40572 14.04343,42.13029 34.32838,57.7341 6.24153,0 9.36229,1.56038 10.92267,6.24152 0,-1.56038 0,-1.56038 0,0 -1.56038,0 0,-1.56038 0,0 z M 335.09181,109.22667 c 3.12076,1.56038 7.80191,3.12076 10.92267,4.68114 1.56038,0 1.56038,1.56038 3.12076,3.12077 3.12076,9.36228 6.24153,18.72457 10.92267,28.08685 1.56038,4.68114 4.68114,9.36229 6.24152,12.48305 1.56038,3.12076 3.12076,4.68114 6.24153,1.56038 l 1.56038,-1.56038 c 9.36228,-6.24153 9.36228,-7.80191 6.24152,-17.16419 0,-4.68114 -3.12076,-9.36229 3.12076,-10.92267 6.24153,-1.56038 14.04343,3.12076 14.04343,9.36229 6.24152,15.60381 4.68114,24.96609 1.56038,40.5699 -3.12076,6.24153 -10.92267,-7.8019 -10.92267,-10.92266 -4.68114,-7.80191 -14.04342,3.12076 -15.6038,9.36228 0,1.56038 -3.12077,3.12076 -4.68115,3.12076 -9.36228,4.68115 -17.16419,9.36229 -21.84533,18.72457 -1.56038,6.24153 -7.80191,7.80191 -12.48305,4.68115 -1.56038,-1.56038 -3.12076,-1.56038 -4.68114,-3.12076 -6.24153,-3.12077 -7.80191,-24.9661 -10.92267,-32.768 -1.56038,-3.12077 -3.12076,-4.68115 0,-7.80191 10.92267,-4.68114 15.60381,7.80191 18.72457,14.04343 4.68114,6.24152 15.60381,-1.56038 14.04343,-7.80191 -3.12076,-14.04342 -12.48305,-24.96609 -17.16419,-39.00952 -1.56038,-3.12076 -3.12076,-6.24152 -6.24152,-9.36228 -3.12076,-3.12077 0,-9.36229 7.8019,-9.36229 3.12076,1.56038 -7.8019,0 0,0 z M 161.88953,480.59734 c 0,6.24152 1.56038,12.48304 1.56038,18.72457 h -1.56038 l -1.56039,-1.56038 C 157.20838,491.52 155.648,489.95962 147.8461,491.52 c -17.16419,1.56038 -34.32838,1.56038 -51.492573,3.12076 h -3.12077 v -1.56038 c 17.164203,-15.6038 35.888773,-31.20762 51.492583,-46.81142 v -1.56038 c -10.92267,0 -51.492583,-4.68115 -51.492583,10.92266 v -21.84533 c 0,0 0,1.56038 1.56038,1.56038 4.68115,15.60381 43.690673,6.24152 56.173723,4.68114 3.12076,0 4.68114,-3.12076 6.24152,-4.68114 0,0 0,-3.12076 -1.56038,-3.12076 -1.56038,-1.56038 -3.12076,-1.56038 -6.24152,-3.12077 -10.92267,-1.56038 -18.72457,-3.12076 -29.64724,-4.68114 -3.12076,0 -7.8019,-1.56038 -10.92267,-1.56038 -15.603803,-4.68114 -17.164193,-20.28495 -12.483043,-35.88876 6.241523,-20.28495 32.768003,-12.48305 48.371813,-10.92267 7.8019,0 15.6038,4.68114 20.28495,-3.12076 0,0 0,-1.56038 1.56038,-1.56038 l -4.68114,32.768 h -1.56039 v 1.56038 c 0,-7.8019 -1.56038,-9.36229 -7.8019,-9.36229 l -37.44914,-4.68114 c -9.36229,-1.56038 -14.04343,3.12076 -15.603813,10.92267 -1.56038,10.92267 3.120763,18.72457 12.483053,21.84533 l 28.08685,4.68114 c 7.80191,0 17.16419,4.68115 20.28495,-4.68114 0,0 0,-1.56038 1.56039,-1.56038 0,9.36229 3.12076,31.20762 -4.68115,37.44914 -12.48304,10.92267 -23.40571,20.28496 -34.32838,32.768 9.36229,0 37.44914,3.12077 39.00953,-12.48304 z m 599.18628,104.54552 c -4.68114,10.92267 -9.36228,20.28495 -12.48305,31.20762 -1.56038,0 -1.56038,-1.56038 -1.56038,-1.56038 3.12076,-17.16419 -35.88876,-23.40572 -48.37181,-28.08686 -6.24152,-3.12076 -6.24152,-3.12076 -10.92266,3.12076 h -1.56038 c 1.56038,-3.12076 3.12076,-7.8019 4.68114,-10.92266 4.68114,-10.92267 7.8019,-20.28496 12.48305,-29.64724 3.12076,-7.80191 10.92266,-12.48305 20.28495,-10.92267 4.68114,1.56038 7.8019,3.12076 10.92267,7.80191 1.56038,3.12076 1.56038,14.04342 6.24152,10.92266 9.36228,-3.12076 17.16419,-4.68114 26.52648,-6.24152 3.12076,0 4.68114,-3.12076 7.8019,-4.68114 -1.56038,4.68114 -1.56038,6.24152 -1.56038,7.8019 -1.56038,3.12076 -3.12076,4.68114 -3.12076,7.80191 -1.56038,4.68114 -4.68114,6.24152 -7.80191,7.8019 -9.36228,1.56038 -17.16419,4.68114 -28.08685,6.24153 -1.56038,0 -3.12077,3.12076 -4.68115,3.12076 1.56038,1.56038 3.12076,3.12076 4.68115,3.12076 4.68114,1.56038 10.92266,4.68114 14.04342,6.24152 7.80191,1.56038 9.36229,0 12.48305,-3.12076 -1.56038,0 -1.56038,0 0,0 0,-1.56038 0,0 0,0 z m -31.20762,-18.72457 v -3.12076 c -1.56038,-6.24153 -10.92266,-12.48305 -17.16419,-12.48305 -10.92266,0 -12.48304,9.36228 -12.48304,15.60381 7.8019,3.12076 14.04342,6.24152 21.84533,9.36229 1.56038,0 3.12076,0 3.12076,-1.56039 3.12076,0 4.68114,-4.68114 4.68114,-7.8019 z m -14.04343,-76.45867 c 7.80191,1.56038 12.48305,1.56038 20.28496,3.12076 v 1.56038 c -1.56038,0 -3.12076,0 -4.68115,1.56039 -10.92266,0 -20.28495,10.92266 -14.04343,21.84533 9.36229,15.60381 26.52648,-14.04343 32.768,-20.28495 12.48305,-12.48305 31.20762,-3.12076 34.32839,10.92266 1.56038,6.24153 0,12.48305 -3.12077,18.72457 -3.12076,4.68115 -6.24152,9.36229 0,12.48305 h -1.56038 l -23.40571,-4.68114 v -1.56038 c 3.12076,0 6.24152,-1.56038 9.36229,-1.56038 9.36228,-3.12076 18.72457,-12.48305 15.6038,-23.40572 -4.68114,-18.72457 -23.40571,4.68115 -26.52647,9.36229 -12.48305,17.16419 -45.25105,14.04343 -39.00953,-12.48305 -1.56038,-1.56038 6.24153,-10.92267 0,-15.60381 z M 116.63848,312.07619 c 7.8019,3.12077 15.60381,4.68115 23.40571,6.24153 v 1.56038 c -10.92266,0 -31.20762,6.24152 -28.08685,21.84533 4.68114,23.40572 29.64723,-6.24152 34.32838,-12.48305 10.92266,-7.8019 23.40571,-4.68114 28.08685,6.24153 4.68115,9.36228 3.12077,15.60381 -3.12076,23.40571 0,1.56038 -1.56038,1.56038 -1.56038,3.12076 -3.12076,3.12077 -4.68114,6.24153 0,9.36229 l -18.72457,-4.68114 v -1.56038 c 9.36228,0 21.84533,-3.12077 23.40571,-14.04343 1.56039,-4.68114 0,-9.36229 -4.68114,-10.92267 -14.04343,-7.8019 -24.96609,24.9661 -39.00952,24.9661 -14.04343,1.56038 -24.9661,-10.92267 -21.84534,-24.9661 1.56039,-4.68114 3.12077,-7.8019 4.68115,-12.48305 4.68114,-6.24152 4.68114,-6.24152 3.12076,-15.60381 7.8019,3.12077 1.56038,9.36229 0,0 z m 7.8019,277.74781 c -4.68114,-12.48304 -9.36228,-21.84533 -12.48304,-34.32838 h 1.56038 c 0,1.56038 1.56038,1.56038 1.56038,3.12076 3.12076,9.36229 17.16419,1.56038 21.84533,-1.56038 1.56038,0 3.12076,-1.56038 3.12076,-3.12076 7.80191,-10.92266 15.60381,-18.72457 23.40572,-29.64724 1.56038,-3.12076 3.12076,-6.24152 4.68114,-10.92266 4.68114,9.36228 7.80191,18.72457 12.48305,28.08685 -7.80191,-4.68114 -9.36229,-1.56038 -15.60381,4.68115 -3.12076,3.12076 -17.16419,17.16419 -10.92267,20.28495 10.92267,1.56038 32.768,9.36229 32.768,-6.24153 h 1.56038 c 3.12076,6.24153 4.68114,10.92267 7.80191,17.1642 -12.48305,-9.36229 -29.64724,-7.80191 -42.13029,-10.92267 -3.12076,0 -6.24152,0 -7.8019,1.56038 -4.68115,1.56038 -9.36229,3.12076 -12.48305,4.68114 -6.24153,3.12076 -7.80191,4.68114 -4.68114,10.92267 -4.68115,6.24152 -3.12077,6.24152 -4.68115,6.24152 z M 717.38514,382.29334 c -3.12076,-9.36229 -6.24152,-18.72458 -9.36228,-29.64724 h 1.56038 c 4.68114,6.24152 6.24153,3.12076 12.48305,-1.56038 3.12076,-3.12076 17.16419,-14.04343 17.16419,-17.16419 -1.56038,0 -1.56038,0 -3.12076,-1.56038 -7.80191,-1.56039 -14.04343,-4.68115 -21.84534,-6.24153 -9.36228,-1.56038 -9.36228,-1.56038 -10.92266,7.80191 -1.56038,-6.24153 -3.12076,-12.48305 -6.24153,-17.16419 3.12076,1.56038 6.24153,4.68114 9.36229,6.24152 12.48305,3.12076 21.84533,6.24153 34.32838,9.36229 h 6.24152 c 4.68115,-1.56039 9.36229,-3.12077 12.48305,-4.68115 6.24153,-1.56038 7.80191,-3.12076 6.24153,-10.92266 v -1.56038 h 1.56038 c 3.12076,12.48304 7.8019,21.84533 10.92266,34.32838 h -1.56038 c 0,-1.56038 -1.56038,-1.56038 -1.56038,-3.12076 -1.56038,-4.68115 -4.68114,-6.24153 -9.36228,-4.68115 -10.92267,4.68114 -17.1642,6.24153 -24.9661,15.60381 -10.92267,7.80191 -18.72457,15.60381 -23.40572,24.9661 -3.12076,-7.80191 1.56039,-3.12076 0,0 z M 194.65753,689.68838 c -7.80191,-9.36228 -14.04343,-15.6038 -23.40572,-24.96609 l 1.56038,-1.56038 c 1.56038,0 1.56038,1.56038 3.12077,1.56038 3.12076,3.12076 6.24152,3.12076 9.36228,0 12.48305,-12.48305 24.9661,-24.9661 37.44914,-35.88876 v -4.68115 c -6.24152,-7.8019 -12.48304,-9.36228 -18.72457,-4.68114 -1.56038,0 -1.56038,1.56038 -3.12076,1.56038 1.56038,-1.56038 1.56038,-3.12076 1.56038,-3.12076 10.92267,-10.92267 10.92267,-10.92267 21.84533,0 9.36229,10.92267 18.72458,20.28495 29.64724,31.20762 0,0 1.56038,3.12076 0,3.12076 -3.12076,4.68114 -7.8019,7.80191 -12.48304,10.92267 h -1.56039 c 0,-1.56038 1.56039,-3.12076 1.56039,-3.12076 4.68114,-7.80191 3.12076,-12.48305 -4.68115,-18.72457 -1.56038,-1.56039 -3.12076,-1.56039 -4.68114,0 -6.24153,6.24152 -46.81143,37.44914 -37.44914,45.25104 v 3.12076 c 1.56038,-1.56038 0,-1.56038 0,0 -7.80191,-7.8019 0,-1.56038 0,0 z m 547.69371,-244.9798 c -4.68114,0 -10.92267,1.56038 -14.04343,1.56038 0,0 -1.56038,-1.56038 -1.56038,-3.12077 -3.12076,-17.16419 -4.68114,-35.88876 -7.8019,-54.61333 0,-1.56038 1.56038,-3.12076 1.56038,-3.12076 4.68114,-1.56038 10.92266,-1.56038 14.04343,-1.56038 v 1.56038 c -1.56038,0 -1.56038,1.56038 -3.12077,1.56038 -7.8019,4.68114 -10.92266,9.36228 -9.36228,17.16419 0,3.12076 1.56038,3.12076 4.68114,3.12076 15.60381,-3.12076 34.32838,-4.68114 49.93219,-7.8019 6.24153,-1.56038 7.80191,-1.56038 7.80191,-9.36229 l 1.56038,-1.56038 4.68114,32.768 h -1.56038 c -3.12076,-6.24152 -1.56038,-7.8019 -12.48305,-7.8019 -15.60381,1.56038 -32.768,4.68114 -48.37181,6.24152 -4.68114,0 -3.12076,9.36228 -1.56038,12.48305 1.56038,4.68114 6.24153,6.24152 12.48305,7.8019 1.56038,3.12076 1.56038,3.12076 3.12076,4.68115 0,-1.56039 0,0 0,0 z M 136.92343,617.91086 c -4.68114,-6.24152 -7.8019,-10.92267 -12.48305,-17.16419 h 1.56038 c 12.48305,6.24152 21.84534,0 32.768,0 12.48305,-1.56038 26.52648,-4.68114 39.00953,-6.24152 h 3.12076 c -1.56038,1.56038 -1.56038,3.12076 -1.56038,4.68114 -10.92267,15.60381 -20.28495,31.20762 -31.20762,46.81143 -3.12076,4.68114 -6.24152,9.36228 -4.68114,14.04343 h -1.56038 c -6.24153,-9.36229 -12.48305,-17.1642 -17.16419,-26.52648 h 1.56038 c 6.24152,6.24152 6.24152,6.24152 10.92266,-1.56038 6.24153,-9.36229 6.24153,-6.24153 0,-14.04343 -3.12076,-6.24152 -7.8019,-9.36228 -12.48304,-12.48305 h -4.68115 c -7.8019,1.56038 -9.36228,3.12076 -6.24152,10.92267 4.68114,0 6.24152,0 3.12076,1.56038 1.56038,-1.56038 1.56038,-1.56038 0,0 -3.12076,-6.24152 1.56038,-1.56038 0,0 z m 43.69067,-17.16419 c -7.80191,0 -14.04343,1.56038 -21.84534,1.56038 0,0 -1.56038,1.56038 -1.56038,3.12076 3.12076,4.68114 6.24153,9.36229 9.36229,12.48305 h 3.12076 c 3.12076,-6.24152 6.24153,-10.92267 10.92267,-17.16419 z M 787.60229,449.38972 v 34.32838 c -6.24153,-14.04343 -21.84533,-9.36229 -34.32838,-9.36229 -12.48305,0 -26.52648,-4.68114 -31.20762,7.80191 v -32.768 h 1.56038 c 0,0 0,1.56038 1.56038,1.56038 3.12076,12.48305 21.84533,7.8019 32.768,7.8019 10.92267,0 24.96609,4.68115 29.64724,-9.36228 0,12.48304 -3.12076,9.36228 0,0 z"
     fill="#085521"
     id="path8" />
  <path
     d="m 247.71048,699.05067 c -1.56038,-1.56038 -1.56038,-1.56038 -3.12076,-1.56038 -4.68115,-3.12076 -9.36229,-7.80191 -12.48305,-10.92267 -3.12076,-1.56038 -1.56038,-3.12076 0,-6.24152 6.24152,-6.24153 14.04343,4.68114 18.72457,9.36228 1.56038,0 1.56038,3.12077 1.56038,3.12077 -1.56038,3.12076 -3.12076,4.68114 -4.68114,6.24152 -1.56038,-1.56038 1.56038,-1.56038 0,0 z"
     fill="#085521"
     id="path10" />
  <path
     d="m 678.37562,221.5741 c -1.56038,1.56038 -3.12076,3.12076 -3.12076,1.56038 l -4.68114,-4.68114 c 0,0 1.56038,-3.12076 1.56038,-1.56038 3.12076,1.56038 4.68114,3.12076 6.24152,4.68114 -1.56038,1.56038 -1.56038,-1.56038 0,0 z m 51.49257,344.84419 c -1.56038,3.12076 -1.56038,6.24152 -3.12076,10.92267 0,1.56038 -3.12076,1.56038 -3.12076,1.56038 -7.80191,-3.12076 -14.04343,-6.24153 -21.84533,-9.36229 -6.24153,0 6.24152,-14.04343 7.8019,-15.60381 7.80191,-1.56038 20.28495,4.68114 20.28495,12.48305 0,-1.56038 0,-1.56038 0,0 -1.56038,3.12076 0,-1.56038 0,0 z M 180.6141,600.74667 c -4.68114,6.24152 -7.80191,12.48305 -12.48305,17.16419 h -3.12076 c -3.12076,-4.68114 -6.24153,-9.36228 -9.36229,-12.48305 0,0 0,-1.56038 1.56038,-3.12076 7.80191,0 15.60381,-1.56038 23.40572,-1.56038 z"
     fill="#ffffff"
     id="path12" />
  <path
     d="m 347.57486,349.52534 c 6.24152,0 12.48305,1.56038 15.60381,-4.68115 3.12076,-26.52647 15.60381,-46.81142 39.00952,-59.29447 37.44914,-20.28496 88.94172,-3.12076 104.54553,37.44914 3.12076,7.80191 3.12076,14.04343 4.68114,21.84533 0,7.80191 26.52647,4.68115 32.768,6.24153 34.32838,6.24152 59.29447,24.96609 74.89828,56.17371 28.08686,54.61333 3.12077,117.02857 -53.05295,141.99467 -10.92266,4.68114 -23.40571,7.8019 -35.88876,7.8019 -10.92267,1.56038 -18.72457,-3.12076 -18.72457,9.36229 -9.36229,74.89829 -109.22667,84.26057 -141.99467,21.84533 -4.68114,-9.36228 -6.24152,-17.16419 -7.8019,-26.52647 0,-6.24153 -29.64724,-6.24153 -35.88876,-7.80191 -45.25105,-10.92266 -79.57943,-51.49257 -81.13981,-98.304 -1.56038,-45.25105 28.08685,-85.82095 70.21714,-99.86438 10.92267,-4.68114 21.84533,-6.24152 32.768,-6.24152 z M 614.4,418.1821 c 0,-1.56038 0,-1.56038 0,0 v -3.12076 c -15.60381,-34.32838 -43.69066,-54.61334 -81.13981,-57.7341 -4.68114,0 -23.40571,3.12076 -26.52647,-1.56038 -4.68115,-4.68114 -3.12076,-23.40571 -6.24153,-29.64724 -15.60381,-40.5699 -67.09638,-57.73409 -102.98514,-31.20762 -12.48305,7.80191 -21.84533,20.28496 -26.52648,34.32838 -1.56038,7.80191 -3.12076,14.04343 -3.12076,21.84534 0,7.8019 -20.28495,4.68114 -24.96609,4.68114 -39.00953,3.12076 -67.09638,21.84533 -82.70019,57.7341 v 3.12076 h 3.12076 c 23.40571,-3.12076 45.25105,10.92266 54.61333,32.768 4.68114,15.60381 90.5021,-1.56038 90.5021,9.36228 0,7.80191 -40.56991,4.68115 -46.81143,4.68115 -4.68114,0 -45.25105,-3.12077 -40.56991,6.24152 4.68115,4.68114 21.84534,1.56038 28.08686,1.56038 h 53.05295 c 1.56038,0 7.80191,3.12076 3.12077,6.24153 -7.80191,3.12076 -23.40572,0 -31.20762,0 v 1.56038 h 1.56038 c 14.04342,6.24152 15.60381,18.72457 15.60381,32.768 v 31.20762 c 0,6.24152 -3.12077,23.40571 1.56038,28.08685 10.92266,10.92267 9.36228,-20.28495 9.36228,-23.40571 v -26.52648 c 0,-7.8019 -1.56038,-6.24152 -6.24152,-10.92266 4.68114,0 12.48305,-1.56039 17.16419,-1.56039 4.68114,0 3.12076,10.92267 3.12076,14.04343 3.12076,-1.56038 14.04343,-6.24152 9.36229,-12.48304 0,-1.56039 -1.56038,-1.56039 -1.56038,-3.12077 4.68114,0 12.48304,-4.68114 17.16419,0 0,0 0,1.56038 -1.56038,3.12077 0,7.8019 3.12076,9.36228 10.92266,12.48304 0,-3.12076 -1.56038,-14.04343 3.12076,-14.04343 4.68115,0 17.1642,-1.56038 18.72458,1.56039 l -1.56038,1.56038 c -9.36229,0 -3.12077,59.29447 -3.12077,59.29447 12.48305,6.24153 9.36229,-40.5699 9.36229,-46.81143 0,-15.60381 -3.12076,-39.00952 14.04343,-46.81142 1.56038,0 1.56038,-1.56039 3.12076,-1.56039 -3.12076,-3.12076 -34.32838,1.56039 -31.20762,-6.24152 0,-3.12076 63.97562,-1.56038 70.21714,-1.56038 h 14.04343 c 3.12076,0 3.12076,-6.24153 1.56038,-7.80191 -9.36228,-4.68114 -29.64724,0 -39.00952,0 h -42.13029 c -3.12076,0 -4.68114,-1.56038 -4.68114,-4.68114 0,-4.68114 12.48305,-3.12076 15.60381,-3.12076 h 40.5699 c 7.80191,0 29.64724,4.68114 34.32838,-4.68114 7.80191,-18.72458 20.28496,-31.20762 40.56991,-34.32838 9.36229,3.12076 14.04343,4.68114 20.28495,4.68114 0,-1.56038 -6.24152,0 0,0 z M 374.10134,577.34096 c 7.8019,23.40571 34.32838,46.81142 68.65676,45.25104 32.768,-3.12076 54.61333,-28.08685 57.73409,-45.25104 H 374.10134 c 7.8019,23.40571 43.69066,0 0,0 z m 81.1398,-26.52648 v -18.72457 c -3.12076,-7.80191 -12.48304,-12.48305 -20.28495,-12.48305 -12.48305,1.56038 -14.04343,12.48305 -14.04343,23.40572 0,6.24152 -3.12076,28.08685 4.68115,28.08685 4.68114,0 32.768,3.12076 32.768,-3.12076 -3.12076,-6.24152 -3.12076,-12.48305 -3.12077,-17.16419 z m -68.65676,-42.13029 c 0,0 1.56038,0 0,0 0,-4.68114 0,-9.36228 -1.56038,-12.48304 -3.12076,-12.48305 -23.40571,-17.1642 -31.20762,-6.24153 -1.56038,1.56038 -1.56038,3.12076 0,4.68114 6.24153,7.80191 9.36229,15.60381 9.36229,24.9661 0,4.68114 23.40571,4.68114 23.40571,0 1.56038,-4.68114 0,-7.8019 0,-10.92267 z m 101.42476,0 c 0,1.56039 -1.56038,9.36229 1.56039,10.92267 4.68114,1.56038 14.04342,0 18.72457,0 4.68114,0 9.36228,-23.40571 12.48304,-28.08686 1.56039,-1.56038 1.56039,-3.12076 0,-6.24152 -6.24152,-6.24153 -12.48304,-7.80191 -18.72457,-4.68114 -6.24152,1.56038 -10.92266,6.24152 -10.92266,12.48304 -3.12076,6.24153 -3.12076,10.92267 -3.12077,15.60381 z m -115.46818,18.72457 c 0,0 -1.56039,0 0,0 3.12076,4.68115 4.68114,42.13029 6.24152,42.13029 9.36228,-1.56038 6.24152,-10.92267 6.24152,-18.72457 0,-6.24153 3.12076,-18.72457 -1.56038,-23.40572 -3.12076,-1.56038 -7.8019,0 -10.92266,0 z m 131.072,-1.56038 c -3.12077,0 -10.92267,-1.56038 -14.04343,1.56038 -4.68115,4.68115 -1.56039,20.28496 -1.56039,24.9661 0,1.56038 -1.56038,14.04343 1.56039,15.60381 6.24152,1.56038 9.36228,0 9.36228,-6.24152 0,-10.92267 -3.12076,-21.84534 4.68115,-35.88877 -4.68115,0 -7.80191,14.04343 0,0 z m 39.00952,-51.49257 h -28.08686 c 4.68114,3.12076 7.80191,6.24153 10.92267,9.36229 0,0 1.56038,1.56038 3.12076,0 4.68114,-1.56038 7.80191,-4.68114 14.04343,-9.36229 -9.36229,0 -6.24153,4.68114 0,0 z m -210.65143,0 c 6.24152,3.12076 10.92267,6.24153 14.04343,9.36229 h 3.12076 c 4.68114,-3.12076 7.80191,-6.24153 12.48305,-9.36229 h -29.64724 c 6.24152,3.12076 10.92267,0 0,0 z"
     fill="#085521"
     id="path14" />
  <path
     d="m 542.62248,474.35581 c -6.24153,3.12076 -10.92267,6.24153 -14.04343,9.36229 h -3.12076 c -3.12076,-3.12076 -7.80191,-6.24153 -10.92267,-9.36229 h 28.08686 c -6.24153,3.12076 -9.36229,0 0,0 z m -210.65143,0 h 29.64724 c -4.68114,3.12076 -7.80191,6.24153 -12.48305,9.36229 h -3.12076 c -3.12076,-3.12076 -7.80191,-6.24153 -14.04343,-9.36229 10.92267,0 6.24152,3.12076 0,0 z"
     fill="#ffffff"
     id="path16" />
  <path
     d="m 464.60343,429.10476 c 0,7.80191 -4.68114,57.7341 4.68114,57.7341 3.12077,4.68114 1.56039,9.36229 1.56039,14.04343 0,4.68114 -10.92267,3.12076 -14.04343,3.12076 -6.24153,0 -54.61334,1.56038 -51.49257,-4.68114 0,-4.68114 -1.56039,-12.48305 4.68114,-12.48305 4.68114,-9.36228 1.56038,-24.96609 1.56038,-34.32838 v -48.37181 c 0,-9.36229 -4.68114,-28.08686 7.8019,-28.08686 9.36229,0 6.24153,9.36229 6.24153,17.16419 0,6.24153 -1.56038,14.04343 0,20.28496 1.56038,3.12076 9.36228,0 12.48305,0 4.68114,0 9.36228,3.12076 9.36228,-3.12077 v -21.84533 c 0,-7.8019 0,-9.36228 7.8019,-9.36228 6.24153,0 7.80191,1.56038 7.80191,7.8019 1.56038,15.60381 1.56038,29.64724 1.56038,42.13028 z m -39.00952,14.04343 c 0,4.68115 -3.12076,26.52648 4.68114,26.52648 10.92267,0 17.16419,3.12076 17.16419,-9.36229 v -31.20762 c 0,-7.8019 0,-9.36228 -7.8019,-10.92266 -1.56038,-1.56038 -12.48305,0 -14.04343,3.12076 -1.56038,3.12076 0,15.60381 0,21.84533 z m 12.48305,31.20762 c -7.80191,0 -12.48305,-1.56038 -12.48305,7.80191 0,6.24152 14.04343,3.12076 17.16419,3.12076 4.68114,0 4.68114,-10.92267 -1.56038,-10.92267 z m 1.56038,-173.20228 c 0,6.24152 0,28.08686 10.92266,28.08685 1.56038,1.56038 -1.56038,12.48305 -1.56038,12.48305 4.68114,1.56038 1.56038,12.48305 7.80191,10.92267 h 1.56038 c 9.36228,0 4.68114,10.92266 10.92266,10.92266 4.68115,0 3.12077,6.24153 0,6.24153 h -23.40571 c -4.68114,0 -37.44914,3.12076 -37.44914,-3.12076 0,-4.68114 6.24152,-1.56038 6.24152,-7.80191 0,-4.68114 0,-6.24152 6.24152,-6.24152 h 1.56038 c 4.68115,0 6.24153,0 6.24153,-6.24152 0,-4.68115 7.8019,-7.80191 3.12076,-10.92267 -3.12076,-1.56038 -3.12076,-4.68114 0,-6.24153 l 1.56038,-1.56038 c 0,-4.68114 3.12076,-6.24152 6.24153,-9.36228 -1.56038,-1.56038 -4.68115,-17.16419 0,-17.16419 -1.56038,0 -1.56038,0 0,0 0,4.68114 -1.56038,0 0,0 z m 4.68114,45.25105 c 0,-1.56039 -1.56038,-4.68115 -1.56038,-6.24153 v 12.48305 c 0,-3.12076 1.56038,-4.68114 1.56038,-6.24152 z m -7.80191,0 c -1.56038,-1.56039 -1.56038,-4.68115 -3.12076,-6.24153 0,3.12076 -4.68114,7.80191 0,10.92267 0,0 1.56038,-3.12076 3.12076,-4.68114 -1.56038,-1.56039 -1.56038,1.56038 0,0 z"
     fill="#085521"
     id="path18" />
  <path
     d="m 438.07696,397.89715 c -9.36229,0 -4.68115,-10.92267 0,-12.48305 6.24152,-1.56038 7.8019,12.48305 0,12.48305 z m -20.28496,196.608 c 0,-7.80191 7.80191,-12.48305 12.48305,-9.36229 l 1.56038,1.56038 c 0,4.68114 0,7.80191 -1.56038,10.92267 0,6.24152 -14.04343,1.56038 -15.60381,1.56038 3.12076,0 7.80191,-3.12076 12.48305,-3.12076 -3.12076,0 -6.24153,-1.56038 -9.36229,-1.56038 0,-6.24153 0,0 0,0 z m 6.24153,-6.24153 -3.12077,3.12076 1.56038,1.56038 c 1.56039,0 1.56039,-1.56038 3.12077,-1.56038 0,-1.56038 0,-1.56038 -1.56038,-3.12076 -1.56039,0 1.56038,1.56038 0,0 z m 23.40571,9.36229 c 1.56038,1.56038 4.68114,3.12076 4.68114,3.12076 0,3.12076 -12.48304,1.56038 -14.04342,0 0,-1.56038 1.56038,-3.12076 1.56038,-4.68114 1.56038,-1.56038 3.12076,-1.56038 4.68114,-3.12077 1.56038,0 1.56038,-1.56038 1.56038,-3.12076 h -3.12076 c -1.56038,0 -3.12076,0 -4.68114,1.56038 0,-1.56038 -1.56039,-3.12076 0,-4.68114 0,-1.56038 21.84533,-1.56038 9.36228,10.92267 0,-1.56038 0,0 0,0 z m 26.52648,0 c -1.56038,1.56038 -1.56038,4.68114 -3.12076,4.68114 0,0 -15.60381,-6.24152 -12.48305,-10.92267 0,-1.56038 1.56038,-3.12076 1.56038,-3.12076 3.12076,-6.24152 7.8019,7.80191 14.04343,9.36229 0,-3.12076 0,-1.56038 0,0 -1.56038,1.56038 0,-1.56038 0,0 z m -60.85486,-9.36229 c -1.56038,4.68114 -3.12076,9.36229 -4.68114,12.48305 -1.56038,3.12076 -3.12076,1.56038 -6.24153,1.56038 3.12076,-4.68114 4.68114,-10.92267 6.24153,-14.04343 0,0 1.56038,-1.56038 4.68114,0 -1.56038,-1.56038 -1.56038,-1.56038 0,0 -1.56038,3.12076 -1.56038,-1.56038 0,0 z"
     fill="#085521"
     id="path20" />
  <path
     d="m 424.03353,588.26362 c 1.56038,1.56038 1.56038,1.56038 1.56038,3.12076 -1.56038,0 -1.56038,1.56038 -3.12077,1.56038 l -1.56038,-1.56038 3.12077,-3.12076 c 1.56038,0 -1.56039,1.56038 0,0 z"
     fill="#ffffff"
     id="path22" />
  <path
     d="m 441.19772,443.14819 c 0,3.12077 1.56038,12.48305 -3.12076,12.48305 -4.68115,-4.68114 -4.68115,-23.40571 0,-29.64724 4.68114,4.68115 3.12076,10.92267 3.12076,17.16419 z"
     fill="#085521"
     id="path24" />
</svg>
